<?xml version="1.0" encoding="utf-8"?>
<!-- Generator: Adobe Illustrator 17.0.2, SVG Export Plug-In . SVG Version: 6.00 Build 0)  -->
<!DOCTYPE svg PUBLIC "-//W3C//DTD SVG 1.1//EN" "http://www.w3.org/Graphics/SVG/1.1/DTD/svg11.dtd">
<svg version="1.1" id="Layer_1" xmlns="http://www.w3.org/2000/svg" xmlns:xlink="http://www.w3.org/1999/xlink" x="0px" y="0px"
	 width="252px" height="144px" viewBox="0 0 252 144" enable-background="new 0 0 252 144" xml:space="preserve">
<rect width="252" height="144"/>
<g>
	<g>
		<path fill="#BED731" d="M90.198,13.749c13.74,0,20.64,10.5,20.64,21s-6.9,20.939-20.64,20.939H75.139V13.749H90.198z
			 M90.198,49.628c9.72,0,14.64-7.44,14.64-14.879c0-7.44-4.92-14.939-14.64-14.939h-9v29.819H90.198z"/>
		<path fill="#BED731" d="M131.592,13.749c5.28,0,8.64,3,10.2,6.9c1.68,4.14,1.14,8.939-3.061,11.939
			c4.8,2.04,6.54,6.48,6.54,10.439c0,6.3-4.14,12.66-12.18,12.66h-18.959V13.749H131.592z M120.132,30.429h11.339
			c6.601,0,6.72-10.92,0.12-10.92h-11.459V30.429z M120.132,49.808h12.959c4.08,0,6.12-3.42,6.12-6.72s-2.04-6.66-6.12-6.66h-12.959
			V49.808z"/>
		<path fill="#BED731" d="M147.428,13.749h28.439l2.04,3.84l-23.76,32.699h23.399v5.4h-29.459l-2.46-3.36l24.239-33.059h-22.439
			V13.749z"/>
	</g>
	<g>
		<path fill="#BED731" d="M74.335,59.102h9.172V61.8h-3.103v16.187h-2.967V61.8h-3.103V59.102z"/>
		<path fill="#BED731" d="M87.77,67.061h4.074v2.698H87.77v5.53h5.126v2.698h-8.093V59.102h8.093V61.8H87.77V67.061z"/>
		<path fill="#BED731" d="M103.337,70.945v2.509c0,3.021-1.511,4.748-4.424,4.748s-4.424-1.727-4.424-4.748v-9.82
			c0-3.021,1.511-4.748,4.424-4.748s4.424,1.727,4.424,4.748v1.834h-2.806v-2.023c0-1.349-0.594-1.861-1.538-1.861
			c-0.944,0-1.538,0.513-1.538,1.861v10.198c0,1.349,0.594,1.834,1.538,1.834c0.944,0,1.538-0.486,1.538-1.834v-2.698H103.337z"/>
		<path fill="#BED731" d="M108.113,77.986h-2.967V59.102h2.967v8.093h3.373v-8.093h3.021v18.884h-3.021v-8.093h-3.373V77.986z"/>
		<path fill="#BED731" d="M119.31,64.309v13.678h-2.671V59.102h3.723l3.049,11.304V59.102h2.644v18.884h-3.048L119.31,64.309z"/>
		<path fill="#BED731" d="M127.943,63.634c0-3.021,1.592-4.748,4.506-4.748c2.913,0,4.505,1.727,4.505,4.748v9.82
			c0,3.021-1.592,4.748-4.505,4.748c-2.914,0-4.506-1.727-4.506-4.748V63.634z M130.911,73.643c0,1.349,0.594,1.861,1.538,1.861
			s1.537-0.513,1.537-1.861V63.445c0-1.349-0.593-1.861-1.537-1.861s-1.538,0.513-1.538,1.861V73.643z"/>
		<path fill="#BED731" d="M138.871,59.102h2.968v16.187h4.883v2.698h-7.851V59.102z"/>
		<path fill="#BED731" d="M147.773,63.634c0-3.021,1.592-4.748,4.506-4.748c2.913,0,4.505,1.727,4.505,4.748v9.82
			c0,3.021-1.592,4.748-4.505,4.748c-2.914,0-4.506-1.727-4.506-4.748V63.634z M150.741,73.643c0,1.349,0.594,1.861,1.538,1.861
			s1.537-0.513,1.537-1.861V63.445c0-1.349-0.593-1.861-1.537-1.861s-1.538,0.513-1.538,1.861V73.643z"/>
		<path fill="#BED731" d="M163.152,67.465h4.154v5.989c0,3.021-1.511,4.748-4.424,4.748c-2.914,0-4.425-1.727-4.425-4.748v-9.82
			c0-3.021,1.511-4.748,4.425-4.748c2.913,0,4.424,1.727,4.424,4.748v1.834h-2.806v-2.023c0-1.349-0.593-1.861-1.537-1.861
			s-1.538,0.513-1.538,1.861v10.198c0,1.349,0.594,1.834,1.538,1.834s1.537-0.486,1.537-1.834v-3.48h-1.349V67.465z"/>
		<path fill="#BED731" d="M171.597,71.728l-3.75-12.625h3.103l2.267,8.606l2.266-8.606h2.833l-3.75,12.625v6.259h-2.968V71.728z"/>
	</g>
</g>
<g>
	<polygon fill="#BED731" points="74.406,109.814 125.662,132.015 176.915,109.815 176.915,90.981 125.662,113.18 74.406,90.981 	"/>
</g>
</svg>
