<?xml version="1.0" encoding="utf-8"?>
<!-- Generator: Adobe Illustrator 17.1.0, SVG Export Plug-In . SVG Version: 6.00 Build 0)  -->
<!DOCTYPE svg PUBLIC "-//W3C//DTD SVG 1.1//EN" "http://www.w3.org/Graphics/SVG/1.1/DTD/svg11.dtd">
<svg version="1.1" id="Layer_1" xmlns="http://www.w3.org/2000/svg" xmlns:xlink="http://www.w3.org/1999/xlink" x="0px" y="0px"
	 viewBox="0 0 252 144" enable-background="new 0 0 252 144" xml:space="preserve">
<g>
	<rect x="0.1" y="-0.2" width="252" height="144"/>
	<g>
		<line fill="none" x1="9.9" y1="-0.2" x2="9.9" y2="18.2"/>
		<line fill="none" x1="19.7" y1="9" x2="0.1" y2="9"/>
		<rect x="0.1" y="-0.2" fill="#212121" width="19.5" height="18.4"/>
		<polygon points="0.1,18.2 9.9,9 0.1,9 		"/>
		<polygon points="9.9,9 19.7,-0.2 9.9,-0.2 		"/>
		<polygon fill="#1C1C1C" points="9.9,9 0.1,18.2 9.9,18.2 		"/>
		<polygon fill="#1C1C1C" points="19.7,-0.2 9.9,9 19.7,9 		"/>
	</g>
	<g>
		<line fill="none" x1="49" y1="53.6" x2="49" y2="71.9"/>
		<line fill="none" x1="58.8" y1="62.7" x2="39.2" y2="62.7"/>
		<rect x="39.2" y="53.6" fill="#212121" width="19.5" height="18.4"/>
		<polygon points="39.2,71.9 49,62.7 39.2,62.7 		"/>
		<polygon points="49,62.7 58.8,53.6 49,53.6 		"/>
		<polygon fill="#1C1C1C" points="49,62.7 39.2,71.9 49,71.9 		"/>
		<polygon fill="#1C1C1C" points="58.8,53.6 49,62.7 58.8,62.7 		"/>
	</g>
	<g>
		<line fill="none" x1="29.4" y1="53.6" x2="29.4" y2="71.9"/>
		<line fill="none" x1="39.2" y1="62.7" x2="19.7" y2="62.7"/>
		<rect x="19.7" y="53.6" fill="#212121" width="19.5" height="18.4"/>
		<polygon points="19.7,71.9 29.4,62.7 19.7,62.7 		"/>
		<polygon points="29.4,62.7 39.2,53.6 29.4,53.6 		"/>
		<polygon fill="#1C1C1C" points="29.4,62.7 19.7,71.9 29.4,71.9 		"/>
		<polygon fill="#1C1C1C" points="39.2,53.6 29.4,62.7 39.2,62.7 		"/>
	</g>
	<g>
		<line fill="none" x1="9.9" y1="53.6" x2="9.9" y2="71.9"/>
		<line fill="none" x1="19.7" y1="62.7" x2="0.1" y2="62.7"/>
		<rect x="0.1" y="53.6" fill="#212121" width="19.5" height="18.4"/>
		<polygon points="0.1,71.9 9.9,62.7 0.1,62.7 		"/>
		<polygon points="9.9,62.7 19.7,53.6 9.9,53.6 		"/>
		<polygon fill="#1C1C1C" points="9.9,62.7 0.1,71.9 9.9,71.9 		"/>
		<polygon fill="#1C1C1C" points="19.7,53.6 9.9,62.7 19.7,62.7 		"/>
	</g>
	<g>
		<line fill="none" x1="49" y1="36.6" x2="49" y2="54.9"/>
		<line fill="none" x1="58.8" y1="45.7" x2="39.2" y2="45.7"/>
		<rect x="39.2" y="36.6" fill="#212121" width="19.5" height="18.4"/>
		<polygon points="39.2,54.9 49,45.7 39.2,45.7 		"/>
		<polygon points="49,45.7 58.8,36.6 49,36.6 		"/>
		<polygon fill="#1C1C1C" points="49,45.7 39.2,54.9 49,54.9 		"/>
		<polygon fill="#1C1C1C" points="58.8,36.6 49,45.7 58.8,45.7 		"/>
	</g>
	<g>
		<line fill="none" x1="29.4" y1="36.6" x2="29.4" y2="54.9"/>
		<line fill="none" x1="39.2" y1="45.7" x2="19.7" y2="45.7"/>
		<rect x="19.7" y="36.6" fill="#212121" width="19.5" height="18.4"/>
		<polygon points="19.7,54.9 29.4,45.7 19.7,45.7 		"/>
		<polygon points="29.4,45.7 39.2,36.6 29.4,36.6 		"/>
		<polygon fill="#1C1C1C" points="29.4,45.7 19.7,54.9 29.4,54.9 		"/>
		<polygon fill="#1C1C1C" points="39.2,36.6 29.4,45.7 39.2,45.7 		"/>
	</g>
	<g>
		<line fill="none" x1="9.9" y1="36.6" x2="9.9" y2="54.9"/>
		<line fill="none" x1="19.7" y1="45.7" x2="0.1" y2="45.7"/>
		<rect x="0.1" y="36.6" fill="#212121" width="19.5" height="18.4"/>
		<polygon points="0.1,54.9 9.9,45.7 0.1,45.7 		"/>
		<polygon points="9.9,45.7 19.7,36.6 9.9,36.6 		"/>
		<polygon fill="#1C1C1C" points="9.9,45.7 0.1,54.9 9.9,54.9 		"/>
		<polygon fill="#1C1C1C" points="19.7,36.6 9.9,45.7 19.7,45.7 		"/>
	</g>
	<g>
		<line fill="none" x1="49" y1="18.2" x2="49" y2="36.6"/>
		<line fill="none" x1="58.8" y1="27.4" x2="39.2" y2="27.4"/>
		<rect x="39.2" y="18.2" fill="#212121" width="19.5" height="18.4"/>
		<polygon points="39.2,36.6 49,27.4 39.2,27.4 		"/>
		<polygon points="49,27.4 58.8,18.2 49,18.2 		"/>
		<polygon fill="#1C1C1C" points="49,27.4 39.2,36.6 49,36.6 		"/>
		<polygon fill="#1C1C1C" points="58.8,18.2 49,27.4 58.8,27.4 		"/>
	</g>
	<g>
		<line fill="none" x1="29.4" y1="18.2" x2="29.4" y2="36.6"/>
		<line fill="none" x1="39.2" y1="27.4" x2="19.7" y2="27.4"/>
		<rect x="19.7" y="18.2" fill="#212121" width="19.5" height="18.4"/>
		<polygon points="19.7,36.6 29.4,27.4 19.7,27.4 		"/>
		<polygon points="29.4,27.4 39.2,18.2 29.4,18.2 		"/>
		<polygon fill="#1C1C1C" points="29.4,27.4 19.7,36.6 29.4,36.6 		"/>
		<polygon fill="#1C1C1C" points="39.2,18.2 29.4,27.4 39.2,27.4 		"/>
	</g>
	<g>
		<line fill="none" x1="9.9" y1="18.2" x2="9.9" y2="36.6"/>
		<line fill="none" x1="19.7" y1="27.4" x2="0.1" y2="27.4"/>
		<rect x="0.1" y="18.2" fill="#212121" width="19.5" height="18.4"/>
		<polygon points="0.1,36.6 9.9,27.4 0.1,27.4 		"/>
		<polygon points="9.9,27.4 19.7,18.2 9.9,18.2 		"/>
		<polygon fill="#1C1C1C" points="9.9,27.4 0.1,36.6 9.9,36.6 		"/>
		<polygon fill="#1C1C1C" points="19.7,18.2 9.9,27.4 19.7,27.4 		"/>
	</g>
	<g>
		<line fill="none" x1="49" y1="-0.2" x2="49" y2="18.2"/>
		<line fill="none" x1="58.8" y1="9" x2="39.2" y2="9"/>
		<rect x="39.2" y="-0.2" fill="#212121" width="19.5" height="18.4"/>
		<polygon points="39.2,18.2 49,9 39.2,9 		"/>
		<polygon points="49,9 58.8,-0.2 49,-0.2 		"/>
		<polygon fill="#1C1C1C" points="49,9 39.2,18.2 49,18.2 		"/>
		<polygon fill="#1C1C1C" points="58.8,-0.2 49,9 58.8,9 		"/>
	</g>
	<g>
		<line fill="none" x1="29.4" y1="-0.2" x2="29.4" y2="18.2"/>
		<line fill="none" x1="39.2" y1="9" x2="19.7" y2="9"/>
		<rect x="19.7" y="-0.2" fill="#212121" width="19.5" height="18.4"/>
		<polygon points="19.7,18.2 29.4,9 19.7,9 		"/>
		<polygon points="29.4,9 39.2,-0.2 29.4,-0.2 		"/>
		<polygon fill="#1C1C1C" points="29.4,9 19.7,18.2 29.4,18.2 		"/>
		<polygon fill="#1C1C1C" points="39.2,-0.2 29.4,9 39.2,9 		"/>
	</g>
	<g>
		<line fill="none" x1="67.4" y1="-0.4" x2="67.4" y2="17.9"/>
		<line fill="none" x1="77.2" y1="8.8" x2="57.6" y2="8.8"/>
		<rect x="57.6" y="-0.4" fill="#212121" width="19.5" height="18.4"/>
		<polygon points="57.6,17.9 67.4,8.8 57.6,8.8 		"/>
		<polygon points="67.4,8.8 77.2,-0.4 67.4,-0.4 		"/>
		<polygon fill="#1C1C1C" points="67.4,8.8 57.6,17.9 67.4,17.9 		"/>
		<polygon fill="#1C1C1C" points="77.2,-0.4 67.4,8.8 77.2,8.8 		"/>
	</g>
	<g>
		<line fill="none" x1="106.5" y1="53.3" x2="106.5" y2="71.7"/>
		<line fill="none" x1="116.3" y1="62.5" x2="96.7" y2="62.5"/>
		<rect x="96.7" y="53.3" fill="#212121" width="19.5" height="18.4"/>
		<polygon points="96.7,71.7 106.5,62.5 96.7,62.5 		"/>
		<polygon points="106.5,62.5 116.3,53.3 106.5,53.3 		"/>
		<polygon fill="#1C1C1C" points="106.5,62.5 96.7,71.7 106.5,71.7 		"/>
		<polygon fill="#1C1C1C" points="116.3,53.3 106.5,62.5 116.3,62.5 		"/>
	</g>
	<g>
		<line fill="none" x1="87" y1="53.3" x2="87" y2="71.7"/>
		<line fill="none" x1="96.7" y1="62.5" x2="77.2" y2="62.5"/>
		<rect x="77.2" y="53.3" fill="#212121" width="19.5" height="18.4"/>
		<polygon points="77.2,71.7 87,62.5 77.2,62.5 		"/>
		<polygon points="87,62.5 96.7,53.3 87,53.3 		"/>
		<polygon fill="#1C1C1C" points="87,62.5 77.2,71.7 87,71.7 		"/>
		<polygon fill="#1C1C1C" points="96.7,53.3 87,62.5 96.7,62.5 		"/>
	</g>
	<g>
		<line fill="none" x1="67.4" y1="53.3" x2="67.4" y2="71.7"/>
		<line fill="none" x1="77.2" y1="62.5" x2="57.6" y2="62.5"/>
		<rect x="57.6" y="53.3" fill="#212121" width="19.5" height="18.4"/>
		<polygon points="57.6,71.7 67.4,62.5 57.6,62.5 		"/>
		<polygon points="67.4,62.5 77.2,53.3 67.4,53.3 		"/>
		<polygon fill="#1C1C1C" points="67.4,62.5 57.6,71.7 67.4,71.7 		"/>
		<polygon fill="#1C1C1C" points="77.2,53.3 67.4,62.5 77.2,62.5 		"/>
	</g>
	<g>
		<line fill="none" x1="106.5" y1="36.3" x2="106.5" y2="54.7"/>
		<line fill="none" x1="116.3" y1="45.5" x2="96.7" y2="45.5"/>
		<rect x="96.7" y="36.3" fill="#212121" width="19.5" height="18.4"/>
		<polygon points="96.7,54.7 106.5,45.5 96.7,45.5 		"/>
		<polygon points="106.5,45.5 116.3,36.3 106.5,36.3 		"/>
		<polygon fill="#1C1C1C" points="106.5,45.5 96.7,54.7 106.5,54.7 		"/>
		<polygon fill="#1C1C1C" points="116.3,36.3 106.5,45.5 116.3,45.5 		"/>
	</g>
	<g>
		<line fill="none" x1="87" y1="36.3" x2="87" y2="54.7"/>
		<line fill="none" x1="96.7" y1="45.5" x2="77.2" y2="45.5"/>
		<rect x="77.2" y="36.3" fill="#212121" width="19.5" height="18.4"/>
		<polygon points="77.2,54.7 87,45.5 77.2,45.5 		"/>
		<polygon points="87,45.5 96.7,36.3 87,36.3 		"/>
		<polygon fill="#1C1C1C" points="87,45.5 77.2,54.7 87,54.7 		"/>
		<polygon fill="#1C1C1C" points="96.7,36.3 87,45.5 96.7,45.5 		"/>
	</g>
	<g>
		<line fill="none" x1="67.4" y1="36.3" x2="67.4" y2="54.7"/>
		<line fill="none" x1="77.2" y1="45.5" x2="57.6" y2="45.5"/>
		<rect x="57.6" y="36.3" fill="#212121" width="19.5" height="18.4"/>
		<polygon points="57.6,54.7 67.4,45.5 57.6,45.5 		"/>
		<polygon points="67.4,45.5 77.2,36.3 67.4,36.3 		"/>
		<polygon fill="#1C1C1C" points="67.4,45.5 57.6,54.7 67.4,54.7 		"/>
		<polygon fill="#1C1C1C" points="77.2,36.3 67.4,45.5 77.2,45.5 		"/>
	</g>
	<g>
		<line fill="none" x1="106.5" y1="17.9" x2="106.5" y2="36.3"/>
		<line fill="none" x1="116.3" y1="27.1" x2="96.7" y2="27.1"/>
		<rect x="96.7" y="17.9" fill="#212121" width="19.5" height="18.4"/>
		<polygon points="96.7,36.3 106.5,27.1 96.7,27.1 		"/>
		<polygon points="106.5,27.1 116.3,17.9 106.5,17.9 		"/>
		<polygon fill="#1C1C1C" points="106.5,27.1 96.7,36.3 106.5,36.3 		"/>
		<polygon fill="#1C1C1C" points="116.3,17.9 106.5,27.1 116.3,27.1 		"/>
	</g>
	<g>
		<line fill="none" x1="87" y1="17.9" x2="87" y2="36.3"/>
		<line fill="none" x1="96.7" y1="27.1" x2="77.2" y2="27.1"/>
		<rect x="77.2" y="17.9" fill="#212121" width="19.5" height="18.4"/>
		<polygon points="77.2,36.3 87,27.1 77.2,27.1 		"/>
		<polygon points="87,27.1 96.7,17.9 87,17.9 		"/>
		<polygon fill="#1C1C1C" points="87,27.1 77.2,36.3 87,36.3 		"/>
		<polygon fill="#1C1C1C" points="96.7,17.9 87,27.1 96.7,27.1 		"/>
	</g>
	<g>
		<line fill="none" x1="67.4" y1="17.9" x2="67.4" y2="36.3"/>
		<line fill="none" x1="77.2" y1="27.1" x2="57.6" y2="27.1"/>
		<rect x="57.6" y="17.9" fill="#212121" width="19.5" height="18.4"/>
		<polygon points="57.6,36.3 67.4,27.1 57.6,27.1 		"/>
		<polygon points="67.4,27.1 77.2,17.9 67.4,17.9 		"/>
		<polygon fill="#1C1C1C" points="67.4,27.1 57.6,36.3 67.4,36.3 		"/>
		<polygon fill="#1C1C1C" points="77.2,17.9 67.4,27.1 77.2,27.1 		"/>
	</g>
	<g>
		<line fill="none" x1="106.5" y1="-0.4" x2="106.5" y2="17.9"/>
		<line fill="none" x1="116.3" y1="8.8" x2="96.7" y2="8.8"/>
		<rect x="96.7" y="-0.4" fill="#212121" width="19.5" height="18.4"/>
		<polygon points="96.7,17.9 106.5,8.8 96.7,8.8 		"/>
		<polygon points="106.5,8.8 116.3,-0.4 106.5,-0.4 		"/>
		<polygon fill="#1C1C1C" points="106.5,8.8 96.7,17.9 106.5,17.9 		"/>
		<polygon fill="#1C1C1C" points="116.3,-0.4 106.5,8.8 116.3,8.8 		"/>
	</g>
	<g>
		<line fill="none" x1="87" y1="-0.4" x2="87" y2="17.9"/>
		<line fill="none" x1="96.7" y1="8.8" x2="77.2" y2="8.8"/>
		<rect x="77.2" y="-0.4" fill="#212121" width="19.5" height="18.4"/>
		<polygon points="77.2,17.9 87,8.8 77.2,8.8 		"/>
		<polygon points="87,8.8 96.7,-0.4 87,-0.4 		"/>
		<polygon fill="#1C1C1C" points="87,8.8 77.2,17.9 87,17.9 		"/>
		<polygon fill="#1C1C1C" points="96.7,-0.4 87,8.8 96.7,8.8 		"/>
	</g>
	<g>
		<line fill="none" x1="125" y1="-0.4" x2="125" y2="17.9"/>
		<line fill="none" x1="134.8" y1="8.8" x2="115.2" y2="8.8"/>
		<rect x="115.2" y="-0.4" fill="#212121" width="19.5" height="18.4"/>
		<polygon points="115.2,17.9 125,8.8 115.2,8.8 		"/>
		<polygon points="125,8.8 134.8,-0.4 125,-0.4 		"/>
		<polygon fill="#1C1C1C" points="125,8.8 115.2,17.9 125,17.9 		"/>
		<polygon fill="#1C1C1C" points="134.8,-0.4 125,8.8 134.8,8.8 		"/>
	</g>
	<g>
		<line fill="none" x1="164.1" y1="53.3" x2="164.1" y2="71.7"/>
		<line fill="none" x1="173.9" y1="62.5" x2="154.3" y2="62.5"/>
		<rect x="154.3" y="53.3" fill="#212121" width="19.5" height="18.4"/>
		<polygon points="154.3,71.7 164.1,62.5 154.3,62.5 		"/>
		<polygon points="164.1,62.5 173.9,53.3 164.1,53.3 		"/>
		<polygon fill="#1C1C1C" points="164.1,62.5 154.3,71.7 164.1,71.7 		"/>
		<polygon fill="#1C1C1C" points="173.9,53.3 164.1,62.5 173.9,62.5 		"/>
	</g>
	<g>
		<line fill="none" x1="144.6" y1="53.3" x2="144.6" y2="71.7"/>
		<line fill="none" x1="154.3" y1="62.5" x2="134.8" y2="62.5"/>
		<rect x="134.8" y="53.3" fill="#212121" width="19.5" height="18.4"/>
		<polygon points="134.8,71.7 144.6,62.5 134.8,62.5 		"/>
		<polygon points="144.6,62.5 154.3,53.3 144.6,53.3 		"/>
		<polygon fill="#1C1C1C" points="144.6,62.5 134.8,71.7 144.6,71.7 		"/>
		<polygon fill="#1C1C1C" points="154.3,53.3 144.6,62.5 154.3,62.5 		"/>
	</g>
	<g>
		<line fill="none" x1="125" y1="53.3" x2="125" y2="71.7"/>
		<line fill="none" x1="134.8" y1="62.5" x2="115.2" y2="62.5"/>
		<rect x="115.2" y="53.3" fill="#212121" width="19.5" height="18.4"/>
		<polygon points="115.2,71.7 125,62.5 115.2,62.5 		"/>
		<polygon points="125,62.5 134.8,53.3 125,53.3 		"/>
		<polygon fill="#1C1C1C" points="125,62.5 115.2,71.7 125,71.7 		"/>
		<polygon fill="#1C1C1C" points="134.8,53.3 125,62.5 134.8,62.5 		"/>
	</g>
	<g>
		<line fill="none" x1="164.1" y1="36.3" x2="164.1" y2="54.7"/>
		<line fill="none" x1="173.9" y1="45.5" x2="154.3" y2="45.5"/>
		<rect x="154.3" y="36.3" fill="#212121" width="19.5" height="18.4"/>
		<polygon points="154.3,54.7 164.1,45.5 154.3,45.5 		"/>
		<polygon points="164.1,45.5 173.9,36.3 164.1,36.3 		"/>
		<polygon fill="#1C1C1C" points="164.1,45.5 154.3,54.7 164.1,54.7 		"/>
		<polygon fill="#1C1C1C" points="173.9,36.3 164.1,45.5 173.9,45.5 		"/>
	</g>
	<g>
		<line fill="none" x1="144.6" y1="36.3" x2="144.6" y2="54.7"/>
		<line fill="none" x1="154.3" y1="45.5" x2="134.8" y2="45.5"/>
		<rect x="134.8" y="36.3" fill="#212121" width="19.5" height="18.4"/>
		<polygon points="134.8,54.7 144.6,45.5 134.8,45.5 		"/>
		<polygon points="144.6,45.5 154.3,36.3 144.6,36.3 		"/>
		<polygon fill="#1C1C1C" points="144.6,45.5 134.8,54.7 144.6,54.7 		"/>
		<polygon fill="#1C1C1C" points="154.3,36.3 144.6,45.5 154.3,45.5 		"/>
	</g>
	<g>
		<line fill="none" x1="125" y1="36.3" x2="125" y2="54.7"/>
		<line fill="none" x1="134.8" y1="45.5" x2="115.2" y2="45.5"/>
		<rect x="115.2" y="36.3" fill="#212121" width="19.5" height="18.4"/>
		<polygon points="115.2,54.7 125,45.5 115.2,45.5 		"/>
		<polygon points="125,45.5 134.8,36.3 125,36.3 		"/>
		<polygon fill="#1C1C1C" points="125,45.5 115.2,54.7 125,54.7 		"/>
		<polygon fill="#1C1C1C" points="134.8,36.3 125,45.5 134.8,45.5 		"/>
	</g>
	<g>
		<line fill="none" x1="164.1" y1="17.9" x2="164.1" y2="36.3"/>
		<line fill="none" x1="173.9" y1="27.1" x2="154.3" y2="27.1"/>
		<rect x="154.3" y="17.9" fill="#212121" width="19.5" height="18.4"/>
		<polygon points="154.3,36.3 164.1,27.1 154.3,27.1 		"/>
		<polygon points="164.1,27.1 173.9,17.9 164.1,17.9 		"/>
		<polygon fill="#1C1C1C" points="164.1,27.1 154.3,36.3 164.1,36.3 		"/>
		<polygon fill="#1C1C1C" points="173.9,17.9 164.1,27.1 173.9,27.1 		"/>
	</g>
	<g>
		<line fill="none" x1="144.6" y1="17.9" x2="144.6" y2="36.3"/>
		<line fill="none" x1="154.3" y1="27.1" x2="134.8" y2="27.1"/>
		<rect x="134.8" y="17.9" fill="#212121" width="19.5" height="18.4"/>
		<polygon points="134.8,36.3 144.6,27.1 134.8,27.1 		"/>
		<polygon points="144.6,27.1 154.3,17.9 144.6,17.9 		"/>
		<polygon fill="#1C1C1C" points="144.6,27.1 134.8,36.3 144.6,36.3 		"/>
		<polygon fill="#1C1C1C" points="154.3,17.9 144.6,27.1 154.3,27.1 		"/>
	</g>
	<g>
		<line fill="none" x1="125" y1="17.9" x2="125" y2="36.3"/>
		<line fill="none" x1="134.8" y1="27.1" x2="115.2" y2="27.1"/>
		<rect x="115.2" y="17.9" fill="#212121" width="19.5" height="18.4"/>
		<polygon points="115.2,36.3 125,27.1 115.2,27.1 		"/>
		<polygon points="125,27.1 134.8,17.9 125,17.9 		"/>
		<polygon fill="#1C1C1C" points="125,27.1 115.2,36.3 125,36.3 		"/>
		<polygon fill="#1C1C1C" points="134.8,17.9 125,27.1 134.8,27.1 		"/>
	</g>
	<g>
		<line fill="none" x1="164.1" y1="-0.4" x2="164.1" y2="17.9"/>
		<line fill="none" x1="173.9" y1="8.8" x2="154.3" y2="8.8"/>
		<rect x="154.3" y="-0.4" fill="#212121" width="19.5" height="18.4"/>
		<polygon points="154.3,17.9 164.1,8.8 154.3,8.8 		"/>
		<polygon points="164.1,8.8 173.9,-0.4 164.1,-0.4 		"/>
		<polygon fill="#1C1C1C" points="164.1,8.8 154.3,17.9 164.1,17.9 		"/>
		<polygon fill="#1C1C1C" points="173.9,-0.4 164.1,8.8 173.9,8.8 		"/>
	</g>
	<g>
		<line fill="none" x1="144.6" y1="-0.4" x2="144.6" y2="17.9"/>
		<line fill="none" x1="154.3" y1="8.8" x2="134.8" y2="8.8"/>
		<rect x="134.8" y="-0.4" fill="#212121" width="19.5" height="18.4"/>
		<polygon points="134.8,17.9 144.6,8.8 134.8,8.8 		"/>
		<polygon points="144.6,8.8 154.3,-0.4 144.6,-0.4 		"/>
		<polygon fill="#1C1C1C" points="144.6,8.8 134.8,17.9 144.6,17.9 		"/>
		<polygon fill="#1C1C1C" points="154.3,-0.4 144.6,8.8 154.3,8.8 		"/>
	</g>
	<g>
		<line fill="none" x1="183.7" y1="-0.4" x2="183.7" y2="17.9"/>
		<line fill="none" x1="193.4" y1="8.8" x2="173.9" y2="8.8"/>
		<rect x="173.9" y="-0.4" fill="#212121" width="19.5" height="18.4"/>
		<polygon points="173.9,17.9 183.7,8.8 173.9,8.8 		"/>
		<polygon points="183.7,8.8 193.4,-0.4 183.7,-0.4 		"/>
		<polygon fill="#1C1C1C" points="183.7,8.8 173.9,17.9 183.7,17.9 		"/>
		<polygon fill="#1C1C1C" points="193.4,-0.4 183.7,8.8 193.4,8.8 		"/>
	</g>
	<g>
		<line fill="none" x1="222.7" y1="53.3" x2="222.7" y2="71.7"/>
		<line fill="none" x1="232.5" y1="62.5" x2="213" y2="62.5"/>
		<rect x="213" y="53.3" fill="#212121" width="19.5" height="18.4"/>
		<polygon points="213,71.7 222.7,62.5 213,62.5 		"/>
		<polygon points="222.7,62.5 232.5,53.3 222.7,53.3 		"/>
		<polygon fill="#1C1C1C" points="222.7,62.5 213,71.7 222.7,71.7 		"/>
		<polygon fill="#1C1C1C" points="232.5,53.3 222.7,62.5 232.5,62.5 		"/>
	</g>
	<g>
		<line fill="none" x1="203.2" y1="53.3" x2="203.2" y2="71.7"/>
		<line fill="none" x1="213" y1="62.5" x2="193.4" y2="62.5"/>
		<rect x="193.4" y="53.3" fill="#212121" width="19.5" height="18.4"/>
		<polygon points="193.4,71.7 203.2,62.5 193.4,62.5 		"/>
		<polygon points="203.2,62.5 213,53.3 203.2,53.3 		"/>
		<polygon fill="#1C1C1C" points="203.2,62.5 193.4,71.7 203.2,71.7 		"/>
		<polygon fill="#1C1C1C" points="213,53.3 203.2,62.5 213,62.5 		"/>
	</g>
	<g>
		<line fill="none" x1="183.7" y1="53.3" x2="183.7" y2="71.7"/>
		<line fill="none" x1="193.4" y1="62.5" x2="173.9" y2="62.5"/>
		<rect x="173.9" y="53.3" fill="#212121" width="19.5" height="18.4"/>
		<polygon points="173.9,71.7 183.7,62.5 173.9,62.5 		"/>
		<polygon points="183.7,62.5 193.4,53.3 183.7,53.3 		"/>
		<polygon fill="#1C1C1C" points="183.7,62.5 173.9,71.7 183.7,71.7 		"/>
		<polygon fill="#1C1C1C" points="193.4,53.3 183.7,62.5 193.4,62.5 		"/>
	</g>
	<g>
		<line fill="none" x1="222.7" y1="36.3" x2="222.7" y2="54.7"/>
		<line fill="none" x1="232.5" y1="45.5" x2="213" y2="45.5"/>
		<rect x="213" y="36.3" fill="#212121" width="19.5" height="18.4"/>
		<polygon points="213,54.7 222.7,45.5 213,45.5 		"/>
		<polygon points="222.7,45.5 232.5,36.3 222.7,36.3 		"/>
		<polygon fill="#1C1C1C" points="222.7,45.5 213,54.7 222.7,54.7 		"/>
		<polygon fill="#1C1C1C" points="232.5,36.3 222.7,45.5 232.5,45.5 		"/>
	</g>
	<g>
		<line fill="none" x1="203.2" y1="36.3" x2="203.2" y2="54.7"/>
		<line fill="none" x1="213" y1="45.5" x2="193.4" y2="45.5"/>
		<rect x="193.4" y="36.3" fill="#212121" width="19.5" height="18.4"/>
		<polygon points="193.4,54.7 203.2,45.5 193.4,45.5 		"/>
		<polygon points="203.2,45.5 213,36.3 203.2,36.3 		"/>
		<polygon fill="#1C1C1C" points="203.2,45.5 193.4,54.7 203.2,54.7 		"/>
		<polygon fill="#1C1C1C" points="213,36.3 203.2,45.5 213,45.5 		"/>
	</g>
	<g>
		<line fill="none" x1="183.7" y1="36.3" x2="183.7" y2="54.7"/>
		<line fill="none" x1="193.4" y1="45.5" x2="173.9" y2="45.5"/>
		<rect x="173.9" y="36.3" fill="#212121" width="19.5" height="18.4"/>
		<polygon points="173.9,54.7 183.7,45.5 173.9,45.5 		"/>
		<polygon points="183.7,45.5 193.4,36.3 183.7,36.3 		"/>
		<polygon fill="#1C1C1C" points="183.7,45.5 173.9,54.7 183.7,54.7 		"/>
		<polygon fill="#1C1C1C" points="193.4,36.3 183.7,45.5 193.4,45.5 		"/>
	</g>
	<g>
		<line fill="none" x1="222.7" y1="17.9" x2="222.7" y2="36.3"/>
		<line fill="none" x1="232.5" y1="27.1" x2="213" y2="27.1"/>
		<rect x="213" y="17.9" fill="#212121" width="19.5" height="18.4"/>
		<polygon points="213,36.3 222.7,27.1 213,27.1 		"/>
		<polygon points="222.7,27.1 232.5,17.9 222.7,17.9 		"/>
		<polygon fill="#1C1C1C" points="222.7,27.1 213,36.3 222.7,36.3 		"/>
		<polygon fill="#1C1C1C" points="232.5,17.9 222.7,27.1 232.5,27.1 		"/>
	</g>
	<g>
		<line fill="none" x1="203.2" y1="17.9" x2="203.2" y2="36.3"/>
		<line fill="none" x1="213" y1="27.1" x2="193.4" y2="27.1"/>
		<rect x="193.4" y="17.9" fill="#212121" width="19.5" height="18.4"/>
		<polygon points="193.4,36.3 203.2,27.1 193.4,27.1 		"/>
		<polygon points="203.2,27.1 213,17.9 203.2,17.9 		"/>
		<polygon fill="#1C1C1C" points="203.2,27.1 193.4,36.3 203.2,36.3 		"/>
		<polygon fill="#1C1C1C" points="213,17.9 203.2,27.1 213,27.1 		"/>
	</g>
	<g>
		<line fill="none" x1="183.7" y1="17.9" x2="183.7" y2="36.3"/>
		<line fill="none" x1="193.4" y1="27.1" x2="173.9" y2="27.1"/>
		<rect x="173.9" y="17.9" fill="#212121" width="19.5" height="18.4"/>
		<polygon points="173.9,36.3 183.7,27.1 173.9,27.1 		"/>
		<polygon points="183.7,27.1 193.4,17.9 183.7,17.9 		"/>
		<polygon fill="#1C1C1C" points="183.7,27.1 173.9,36.3 183.7,36.3 		"/>
		<polygon fill="#1C1C1C" points="193.4,17.9 183.7,27.1 193.4,27.1 		"/>
	</g>
	<g>
		<line fill="none" x1="222.7" y1="-0.4" x2="222.7" y2="17.9"/>
		<line fill="none" x1="232.5" y1="8.8" x2="213" y2="8.8"/>
		<rect x="213" y="-0.4" fill="#212121" width="19.5" height="18.4"/>
		<polygon points="213,17.9 222.7,8.8 213,8.8 		"/>
		<polygon points="222.7,8.8 232.5,-0.4 222.7,-0.4 		"/>
		<polygon fill="#1C1C1C" points="222.7,8.8 213,17.9 222.7,17.9 		"/>
		<polygon fill="#1C1C1C" points="232.5,-0.4 222.7,8.8 232.5,8.8 		"/>
	</g>
	<g>
		<line fill="none" x1="203.2" y1="-0.4" x2="203.2" y2="17.9"/>
		<line fill="none" x1="213" y1="8.8" x2="193.4" y2="8.8"/>
		<rect x="193.4" y="-0.4" fill="#212121" width="19.5" height="18.4"/>
		<polygon points="193.4,17.9 203.2,8.8 193.4,8.8 		"/>
		<polygon points="203.2,8.8 213,-0.4 203.2,-0.4 		"/>
		<polygon fill="#1C1C1C" points="203.2,8.8 193.4,17.9 203.2,17.9 		"/>
		<polygon fill="#1C1C1C" points="213,-0.4 203.2,8.8 213,8.8 		"/>
	</g>
	<g>
		<line fill="none" x1="242.3" y1="-0.4" x2="242.3" y2="17.9"/>
		<line fill="none" x1="252.1" y1="8.8" x2="232.5" y2="8.8"/>
		<rect x="232.5" y="-0.4" fill="#212121" width="19.5" height="18.4"/>
		<polygon points="232.5,17.9 242.3,8.8 232.5,8.8 		"/>
		<polygon points="242.3,8.8 252.1,-0.4 242.3,-0.4 		"/>
		<polygon fill="#1C1C1C" points="242.3,8.8 232.5,17.9 242.3,17.9 		"/>
		<polygon fill="#1C1C1C" points="252.1,-0.4 242.3,8.8 252.1,8.8 		"/>
	</g>
	<g>
		<line fill="none" x1="242.3" y1="53.3" x2="242.3" y2="71.7"/>
		<line fill="none" x1="252.1" y1="62.5" x2="232.5" y2="62.5"/>
		<rect x="232.5" y="53.3" fill="#212121" width="19.5" height="18.4"/>
		<polygon points="232.5,71.7 242.3,62.5 232.5,62.5 		"/>
		<polygon points="242.3,62.5 252.1,53.3 242.3,53.3 		"/>
		<polygon fill="#1C1C1C" points="242.3,62.5 232.5,71.7 242.3,71.7 		"/>
		<polygon fill="#1C1C1C" points="252.1,53.3 242.3,62.5 252.1,62.5 		"/>
	</g>
	<g>
		<line fill="none" x1="242.3" y1="36.3" x2="242.3" y2="54.7"/>
		<line fill="none" x1="252.1" y1="45.5" x2="232.5" y2="45.5"/>
		<rect x="232.5" y="36.3" fill="#212121" width="19.5" height="18.4"/>
		<polygon points="232.5,54.7 242.3,45.5 232.5,45.5 		"/>
		<polygon points="242.3,45.5 252.1,36.3 242.3,36.3 		"/>
		<polygon fill="#1C1C1C" points="242.3,45.5 232.5,54.7 242.3,54.7 		"/>
		<polygon fill="#1C1C1C" points="252.1,36.3 242.3,45.5 252.1,45.5 		"/>
	</g>
	<g>
		<line fill="none" x1="242.3" y1="17.9" x2="242.3" y2="36.3"/>
		<line fill="none" x1="252.1" y1="27.1" x2="232.5" y2="27.1"/>
		<rect x="232.5" y="17.9" fill="#212121" width="19.5" height="18.4"/>
		<polygon points="232.5,36.3 242.3,27.1 232.5,27.1 		"/>
		<polygon points="242.3,27.1 252.1,17.9 242.3,17.9 		"/>
		<polygon fill="#1C1C1C" points="242.3,27.1 232.5,36.3 242.3,36.3 		"/>
		<polygon fill="#1C1C1C" points="252.1,17.9 242.3,27.1 252.1,27.1 		"/>
	</g>
	<g>
		<line fill="none" x1="10" y1="71.9" x2="10" y2="90.3"/>
		<line fill="none" x1="19.7" y1="81.1" x2="0.2" y2="81.1"/>
		<rect x="0.2" y="71.9" fill="#212121" width="19.5" height="18.4"/>
		<polygon points="0.2,90.3 10,81.1 0.2,81.1 		"/>
		<polygon points="10,81.1 19.7,71.9 10,71.9 		"/>
		<polygon fill="#1C1C1C" points="10,81.1 0.2,90.3 10,90.3 		"/>
		<polygon fill="#1C1C1C" points="19.7,71.9 10,81.1 19.7,81.1 		"/>
	</g>
	<g>
		<line fill="none" x1="49.1" y1="125.6" x2="49.1" y2="144"/>
		<line fill="none" x1="58.8" y1="134.8" x2="39.3" y2="134.8"/>
		<rect x="39.3" y="125.6" fill="#212121" width="19.5" height="18.4"/>
		<polygon points="39.3,144 49.1,134.8 39.3,134.8 		"/>
		<polygon points="49.1,134.8 58.8,125.6 49.1,125.6 		"/>
		<polygon fill="#1C1C1C" points="49.1,134.8 39.3,144 49.1,144 		"/>
		<polygon fill="#1C1C1C" points="58.8,125.6 49.1,134.8 58.8,134.8 		"/>
	</g>
	<g>
		<line fill="none" x1="29.5" y1="125.6" x2="29.5" y2="144"/>
		<line fill="none" x1="39.3" y1="134.8" x2="19.7" y2="134.8"/>
		<rect x="19.7" y="125.6" fill="#212121" width="19.5" height="18.4"/>
		<polygon points="19.7,144 29.5,134.8 19.7,134.8 		"/>
		<polygon points="29.5,134.8 39.3,125.6 29.5,125.6 		"/>
		<polygon fill="#1C1C1C" points="29.5,134.8 19.7,144 29.5,144 		"/>
		<polygon fill="#1C1C1C" points="39.3,125.6 29.5,134.8 39.3,134.8 		"/>
	</g>
	<g>
		<line fill="none" x1="10" y1="125.6" x2="10" y2="144"/>
		<line fill="none" x1="19.7" y1="134.8" x2="0.2" y2="134.8"/>
		<rect x="0.2" y="125.6" fill="#212121" width="19.5" height="18.4"/>
		<polygon points="0.2,144 10,134.8 0.2,134.8 		"/>
		<polygon points="10,134.8 19.7,125.6 10,125.6 		"/>
		<polygon fill="#1C1C1C" points="10,134.8 0.2,144 10,144 		"/>
		<polygon fill="#1C1C1C" points="19.7,125.6 10,134.8 19.7,134.8 		"/>
	</g>
	<g>
		<line fill="none" x1="49.1" y1="108.6" x2="49.1" y2="127"/>
		<line fill="none" x1="58.8" y1="117.8" x2="39.3" y2="117.8"/>
		<rect x="39.3" y="108.6" fill="#212121" width="19.5" height="18.4"/>
		<polygon points="39.3,127 49.1,117.8 39.3,117.8 		"/>
		<polygon points="49.1,117.8 58.8,108.6 49.1,108.6 		"/>
		<polygon fill="#1C1C1C" points="49.1,117.8 39.3,127 49.1,127 		"/>
		<polygon fill="#1C1C1C" points="58.8,108.6 49.1,117.8 58.8,117.8 		"/>
	</g>
	<g>
		<line fill="none" x1="29.5" y1="108.6" x2="29.5" y2="127"/>
		<line fill="none" x1="39.3" y1="117.8" x2="19.7" y2="117.8"/>
		<rect x="19.7" y="108.6" fill="#212121" width="19.5" height="18.4"/>
		<polygon points="19.7,127 29.5,117.8 19.7,117.8 		"/>
		<polygon points="29.5,117.8 39.3,108.6 29.5,108.6 		"/>
		<polygon fill="#1C1C1C" points="29.5,117.8 19.7,127 29.5,127 		"/>
		<polygon fill="#1C1C1C" points="39.3,108.6 29.5,117.8 39.3,117.8 		"/>
	</g>
	<g>
		<line fill="none" x1="10" y1="108.6" x2="10" y2="127"/>
		<line fill="none" x1="19.7" y1="117.8" x2="0.2" y2="117.8"/>
		<rect x="0.2" y="108.6" fill="#212121" width="19.5" height="18.4"/>
		<polygon points="0.2,127 10,117.8 0.2,117.8 		"/>
		<polygon points="10,117.8 19.7,108.6 10,108.6 		"/>
		<polygon fill="#1C1C1C" points="10,117.8 0.2,127 10,127 		"/>
		<polygon fill="#1C1C1C" points="19.7,108.6 10,117.8 19.7,117.8 		"/>
	</g>
	<g>
		<line fill="none" x1="49.1" y1="90.3" x2="49.1" y2="108.6"/>
		<line fill="none" x1="58.8" y1="99.5" x2="39.3" y2="99.5"/>
		<rect x="39.3" y="90.3" fill="#212121" width="19.5" height="18.4"/>
		<polygon points="39.3,108.6 49.1,99.5 39.3,99.5 		"/>
		<polygon points="49.1,99.5 58.8,90.3 49.1,90.3 		"/>
		<polygon fill="#1C1C1C" points="49.1,99.5 39.3,108.6 49.1,108.6 		"/>
		<polygon fill="#1C1C1C" points="58.8,90.3 49.1,99.5 58.8,99.5 		"/>
	</g>
	<g>
		<line fill="none" x1="29.5" y1="90.3" x2="29.5" y2="108.6"/>
		<line fill="none" x1="39.3" y1="99.5" x2="19.7" y2="99.5"/>
		<rect x="19.7" y="90.3" fill="#212121" width="19.5" height="18.4"/>
		<polygon points="19.7,108.6 29.5,99.5 19.7,99.5 		"/>
		<polygon points="29.5,99.5 39.3,90.3 29.5,90.3 		"/>
		<polygon fill="#1C1C1C" points="29.5,99.5 19.7,108.6 29.5,108.6 		"/>
		<polygon fill="#1C1C1C" points="39.3,90.3 29.5,99.5 39.3,99.5 		"/>
	</g>
	<g>
		<line fill="none" x1="10" y1="90.3" x2="10" y2="108.6"/>
		<line fill="none" x1="19.7" y1="99.5" x2="0.2" y2="99.5"/>
		<rect x="0.2" y="90.3" fill="#212121" width="19.5" height="18.4"/>
		<polygon points="0.2,108.6 10,99.5 0.2,99.5 		"/>
		<polygon points="10,99.5 19.7,90.3 10,90.3 		"/>
		<polygon fill="#1C1C1C" points="10,99.5 0.2,108.6 10,108.6 		"/>
		<polygon fill="#1C1C1C" points="19.7,90.3 10,99.5 19.7,99.5 		"/>
	</g>
	<g>
		<line fill="none" x1="49.1" y1="71.9" x2="49.1" y2="90.3"/>
		<line fill="none" x1="58.8" y1="81.1" x2="39.3" y2="81.1"/>
		<rect x="39.3" y="71.9" fill="#212121" width="19.5" height="18.4"/>
		<polygon points="39.3,90.3 49.1,81.1 39.3,81.1 		"/>
		<polygon points="49.1,81.1 58.8,71.9 49.1,71.9 		"/>
		<polygon fill="#1C1C1C" points="49.1,81.1 39.3,90.3 49.1,90.3 		"/>
		<polygon fill="#1C1C1C" points="58.8,71.9 49.1,81.1 58.8,81.1 		"/>
	</g>
	<g>
		<line fill="none" x1="29.5" y1="71.9" x2="29.5" y2="90.3"/>
		<line fill="none" x1="39.3" y1="81.1" x2="19.7" y2="81.1"/>
		<rect x="19.7" y="71.9" fill="#212121" width="19.5" height="18.4"/>
		<polygon points="19.7,90.3 29.5,81.1 19.7,81.1 		"/>
		<polygon points="29.5,81.1 39.3,71.9 29.5,71.9 		"/>
		<polygon fill="#1C1C1C" points="29.5,81.1 19.7,90.3 29.5,90.3 		"/>
		<polygon fill="#1C1C1C" points="39.3,71.9 29.5,81.1 39.3,81.1 		"/>
	</g>
	<g>
		<line fill="none" x1="67.5" y1="71.7" x2="67.5" y2="90"/>
		<line fill="none" x1="77.2" y1="80.8" x2="57.7" y2="80.8"/>
		<rect x="57.7" y="71.7" fill="#212121" width="19.5" height="18.4"/>
		<polygon points="57.7,90 67.5,80.8 57.7,80.8 		"/>
		<polygon points="67.5,80.8 77.2,71.7 67.5,71.7 		"/>
		<polygon fill="#1C1C1C" points="67.5,80.8 57.7,90 67.5,90 		"/>
		<polygon fill="#1C1C1C" points="77.2,71.7 67.5,80.8 77.2,80.8 		"/>
	</g>
	<g>
		<line fill="none" x1="106.6" y1="125.4" x2="106.6" y2="143.7"/>
		<line fill="none" x1="116.3" y1="134.6" x2="96.8" y2="134.6"/>
		<rect x="96.8" y="125.4" fill="#212121" width="19.5" height="18.4"/>
		<polygon points="96.8,143.7 106.6,134.6 96.8,134.6 		"/>
		<polygon points="106.6,134.6 116.3,125.4 106.6,125.4 		"/>
		<polygon fill="#1C1C1C" points="106.6,134.6 96.8,143.7 106.6,143.7 		"/>
		<polygon fill="#1C1C1C" points="116.3,125.4 106.6,134.6 116.3,134.6 		"/>
	</g>
	<g>
		<line fill="none" x1="87" y1="125.4" x2="87" y2="143.7"/>
		<line fill="none" x1="96.8" y1="134.6" x2="77.2" y2="134.6"/>
		<rect x="77.2" y="125.4" fill="#212121" width="19.5" height="18.4"/>
		<polygon points="77.2,143.7 87,134.6 77.2,134.6 		"/>
		<polygon points="87,134.6 96.8,125.4 87,125.4 		"/>
		<polygon fill="#1C1C1C" points="87,134.6 77.2,143.7 87,143.7 		"/>
		<polygon fill="#1C1C1C" points="96.8,125.4 87,134.6 96.8,134.6 		"/>
	</g>
	<g>
		<line fill="none" x1="67.5" y1="125.4" x2="67.5" y2="143.7"/>
		<line fill="none" x1="77.2" y1="134.6" x2="57.7" y2="134.6"/>
		<rect x="57.7" y="125.4" fill="#212121" width="19.5" height="18.4"/>
		<polygon points="57.7,143.7 67.5,134.6 57.7,134.6 		"/>
		<polygon points="67.5,134.6 77.2,125.4 67.5,125.4 		"/>
		<polygon fill="#1C1C1C" points="67.5,134.6 57.7,143.7 67.5,143.7 		"/>
		<polygon fill="#1C1C1C" points="77.2,125.4 67.5,134.6 77.2,134.6 		"/>
	</g>
	<g>
		<line fill="none" x1="106.6" y1="108.4" x2="106.6" y2="126.7"/>
		<line fill="none" x1="116.3" y1="117.6" x2="96.8" y2="117.6"/>
		<rect x="96.8" y="108.4" fill="#212121" width="19.5" height="18.4"/>
		<polygon points="96.8,126.7 106.6,117.6 96.8,117.6 		"/>
		<polygon points="106.6,117.6 116.3,108.4 106.6,108.4 		"/>
		<polygon fill="#1C1C1C" points="106.6,117.6 96.8,126.7 106.6,126.7 		"/>
		<polygon fill="#1C1C1C" points="116.3,108.4 106.6,117.6 116.3,117.6 		"/>
	</g>
	<g>
		<line fill="none" x1="87" y1="108.4" x2="87" y2="126.7"/>
		<line fill="none" x1="96.8" y1="117.6" x2="77.2" y2="117.6"/>
		<rect x="77.2" y="108.4" fill="#212121" width="19.5" height="18.4"/>
		<polygon points="77.2,126.7 87,117.6 77.2,117.6 		"/>
		<polygon points="87,117.6 96.8,108.4 87,108.4 		"/>
		<polygon fill="#1C1C1C" points="87,117.6 77.2,126.7 87,126.7 		"/>
		<polygon fill="#1C1C1C" points="96.8,108.4 87,117.6 96.8,117.6 		"/>
	</g>
	<g>
		<line fill="none" x1="67.5" y1="108.4" x2="67.5" y2="126.7"/>
		<line fill="none" x1="77.2" y1="117.6" x2="57.7" y2="117.6"/>
		<rect x="57.7" y="108.4" fill="#212121" width="19.5" height="18.4"/>
		<polygon points="57.7,126.7 67.5,117.6 57.7,117.6 		"/>
		<polygon points="67.5,117.6 77.2,108.4 67.5,108.4 		"/>
		<polygon fill="#1C1C1C" points="67.5,117.6 57.7,126.7 67.5,126.7 		"/>
		<polygon fill="#1C1C1C" points="77.2,108.4 67.5,117.6 77.2,117.6 		"/>
	</g>
	<g>
		<line fill="none" x1="106.6" y1="90" x2="106.6" y2="108.4"/>
		<line fill="none" x1="116.3" y1="99.2" x2="96.8" y2="99.2"/>
		<rect x="96.8" y="90" fill="#212121" width="19.5" height="18.4"/>
		<polygon points="96.8,108.4 106.6,99.2 96.8,99.2 		"/>
		<polygon points="106.6,99.2 116.3,90 106.6,90 		"/>
		<polygon fill="#1C1C1C" points="106.6,99.2 96.8,108.4 106.6,108.4 		"/>
		<polygon fill="#1C1C1C" points="116.3,90 106.6,99.2 116.3,99.2 		"/>
	</g>
	<g>
		<line fill="none" x1="87" y1="90" x2="87" y2="108.4"/>
		<line fill="none" x1="96.8" y1="99.2" x2="77.2" y2="99.2"/>
		<rect x="77.2" y="90" fill="#212121" width="19.5" height="18.4"/>
		<polygon points="77.2,108.4 87,99.2 77.2,99.2 		"/>
		<polygon points="87,99.2 96.8,90 87,90 		"/>
		<polygon fill="#1C1C1C" points="87,99.2 77.2,108.4 87,108.4 		"/>
		<polygon fill="#1C1C1C" points="96.8,90 87,99.2 96.8,99.2 		"/>
	</g>
	<g>
		<line fill="none" x1="67.5" y1="90" x2="67.5" y2="108.4"/>
		<line fill="none" x1="77.2" y1="99.2" x2="57.7" y2="99.2"/>
		<rect x="57.7" y="90" fill="#212121" width="19.5" height="18.4"/>
		<polygon points="57.7,108.4 67.5,99.2 57.7,99.2 		"/>
		<polygon points="67.5,99.2 77.2,90 67.5,90 		"/>
		<polygon fill="#1C1C1C" points="67.5,99.2 57.7,108.4 67.5,108.4 		"/>
		<polygon fill="#1C1C1C" points="77.2,90 67.5,99.2 77.2,99.2 		"/>
	</g>
	<g>
		<line fill="none" x1="106.6" y1="71.7" x2="106.6" y2="90"/>
		<line fill="none" x1="116.3" y1="80.8" x2="96.8" y2="80.8"/>
		<rect x="96.8" y="71.7" fill="#212121" width="19.5" height="18.4"/>
		<polygon points="96.8,90 106.6,80.8 96.8,80.8 		"/>
		<polygon points="106.6,80.8 116.3,71.7 106.6,71.7 		"/>
		<polygon fill="#1C1C1C" points="106.6,80.8 96.8,90 106.6,90 		"/>
		<polygon fill="#1C1C1C" points="116.3,71.7 106.6,80.8 116.3,80.8 		"/>
	</g>
	<g>
		<line fill="none" x1="87" y1="71.7" x2="87" y2="90"/>
		<line fill="none" x1="96.8" y1="80.8" x2="77.2" y2="80.8"/>
		<rect x="77.2" y="71.7" fill="#212121" width="19.5" height="18.4"/>
		<polygon points="77.2,90 87,80.8 77.2,80.8 		"/>
		<polygon points="87,80.8 96.8,71.7 87,71.7 		"/>
		<polygon fill="#1C1C1C" points="87,80.8 77.2,90 87,90 		"/>
		<polygon fill="#1C1C1C" points="96.8,71.7 87,80.8 96.8,80.8 		"/>
	</g>
	<g>
		<line fill="none" x1="125.1" y1="71.7" x2="125.1" y2="90"/>
		<line fill="none" x1="134.8" y1="80.8" x2="115.3" y2="80.8"/>
		<rect x="115.3" y="71.7" fill="#212121" width="19.5" height="18.4"/>
		<polygon points="115.3,90 125.1,80.8 115.3,80.8 		"/>
		<polygon points="125.1,80.8 134.8,71.7 125.1,71.7 		"/>
		<polygon fill="#1C1C1C" points="125.1,80.8 115.3,90 125.1,90 		"/>
		<polygon fill="#1C1C1C" points="134.8,71.7 125.1,80.8 134.8,80.8 		"/>
	</g>
	<g>
		<line fill="none" x1="164.2" y1="125.4" x2="164.2" y2="143.7"/>
		<line fill="none" x1="173.9" y1="134.6" x2="154.4" y2="134.6"/>
		<rect x="154.4" y="125.4" fill="#212121" width="19.5" height="18.4"/>
		<polygon points="154.4,143.7 164.2,134.6 154.4,134.6 		"/>
		<polygon points="164.2,134.6 173.9,125.4 164.2,125.4 		"/>
		<polygon fill="#1C1C1C" points="164.2,134.6 154.4,143.7 164.2,143.7 		"/>
		<polygon fill="#1C1C1C" points="173.9,125.4 164.2,134.6 173.9,134.6 		"/>
	</g>
	<g>
		<line fill="none" x1="144.6" y1="125.4" x2="144.6" y2="143.7"/>
		<line fill="none" x1="154.4" y1="134.6" x2="134.8" y2="134.6"/>
		<rect x="134.8" y="125.4" fill="#212121" width="19.5" height="18.4"/>
		<polygon points="134.8,143.7 144.6,134.6 134.8,134.6 		"/>
		<polygon points="144.6,134.6 154.4,125.4 144.6,125.4 		"/>
		<polygon fill="#1C1C1C" points="144.6,134.6 134.8,143.7 144.6,143.7 		"/>
		<polygon fill="#1C1C1C" points="154.4,125.4 144.6,134.6 154.4,134.6 		"/>
	</g>
	<g>
		<line fill="none" x1="125.1" y1="125.4" x2="125.1" y2="143.7"/>
		<line fill="none" x1="134.8" y1="134.6" x2="115.3" y2="134.6"/>
		<rect x="115.3" y="125.4" fill="#212121" width="19.5" height="18.4"/>
		<polygon points="115.3,143.7 125.1,134.6 115.3,134.6 		"/>
		<polygon points="125.1,134.6 134.8,125.4 125.1,125.4 		"/>
		<polygon fill="#1C1C1C" points="125.1,134.6 115.3,143.7 125.1,143.7 		"/>
		<polygon fill="#1C1C1C" points="134.8,125.4 125.1,134.6 134.8,134.6 		"/>
	</g>
	<g>
		<line fill="none" x1="164.2" y1="108.4" x2="164.2" y2="126.7"/>
		<line fill="none" x1="173.9" y1="117.6" x2="154.4" y2="117.6"/>
		<rect x="154.4" y="108.4" fill="#212121" width="19.5" height="18.4"/>
		<polygon points="154.4,126.7 164.2,117.6 154.4,117.6 		"/>
		<polygon points="164.2,117.6 173.9,108.4 164.2,108.4 		"/>
		<polygon fill="#1C1C1C" points="164.2,117.6 154.4,126.7 164.2,126.7 		"/>
		<polygon fill="#1C1C1C" points="173.9,108.4 164.2,117.6 173.9,117.6 		"/>
	</g>
	<g>
		<line fill="none" x1="144.6" y1="108.4" x2="144.6" y2="126.7"/>
		<line fill="none" x1="154.4" y1="117.6" x2="134.8" y2="117.6"/>
		<rect x="134.8" y="108.4" fill="#212121" width="19.5" height="18.4"/>
		<polygon points="134.8,126.7 144.6,117.6 134.8,117.6 		"/>
		<polygon points="144.6,117.6 154.4,108.4 144.6,108.4 		"/>
		<polygon fill="#1C1C1C" points="144.6,117.6 134.8,126.7 144.6,126.7 		"/>
		<polygon fill="#1C1C1C" points="154.4,108.4 144.6,117.6 154.4,117.6 		"/>
	</g>
	<g>
		<line fill="none" x1="125.1" y1="108.4" x2="125.1" y2="126.7"/>
		<line fill="none" x1="134.8" y1="117.6" x2="115.3" y2="117.6"/>
		<rect x="115.3" y="108.4" fill="#212121" width="19.5" height="18.4"/>
		<polygon points="115.3,126.7 125.1,117.6 115.3,117.6 		"/>
		<polygon points="125.1,117.6 134.8,108.4 125.1,108.4 		"/>
		<polygon fill="#1C1C1C" points="125.1,117.6 115.3,126.7 125.1,126.7 		"/>
		<polygon fill="#1C1C1C" points="134.8,108.4 125.1,117.6 134.8,117.6 		"/>
	</g>
	<g>
		<line fill="none" x1="164.2" y1="90" x2="164.2" y2="108.4"/>
		<line fill="none" x1="173.9" y1="99.2" x2="154.4" y2="99.2"/>
		<rect x="154.4" y="90" fill="#212121" width="19.5" height="18.4"/>
		<polygon points="154.4,108.4 164.2,99.2 154.4,99.2 		"/>
		<polygon points="164.2,99.2 173.9,90 164.2,90 		"/>
		<polygon fill="#1C1C1C" points="164.2,99.2 154.4,108.4 164.2,108.4 		"/>
		<polygon fill="#1C1C1C" points="173.9,90 164.2,99.2 173.9,99.2 		"/>
	</g>
	<g>
		<line fill="none" x1="144.6" y1="90" x2="144.6" y2="108.4"/>
		<line fill="none" x1="154.4" y1="99.2" x2="134.8" y2="99.2"/>
		<rect x="134.8" y="90" fill="#212121" width="19.5" height="18.4"/>
		<polygon points="134.8,108.4 144.6,99.2 134.8,99.2 		"/>
		<polygon points="144.6,99.2 154.4,90 144.6,90 		"/>
		<polygon fill="#1C1C1C" points="144.6,99.2 134.8,108.4 144.6,108.4 		"/>
		<polygon fill="#1C1C1C" points="154.4,90 144.6,99.2 154.4,99.2 		"/>
	</g>
	<g>
		<line fill="none" x1="125.1" y1="90" x2="125.1" y2="108.4"/>
		<line fill="none" x1="134.8" y1="99.2" x2="115.3" y2="99.2"/>
		<rect x="115.3" y="90" fill="#212121" width="19.5" height="18.4"/>
		<polygon points="115.3,108.4 125.1,99.2 115.3,99.2 		"/>
		<polygon points="125.1,99.2 134.8,90 125.1,90 		"/>
		<polygon fill="#1C1C1C" points="125.1,99.2 115.3,108.4 125.1,108.4 		"/>
		<polygon fill="#1C1C1C" points="134.8,90 125.1,99.2 134.8,99.2 		"/>
	</g>
	<g>
		<line fill="none" x1="164.2" y1="71.7" x2="164.2" y2="90"/>
		<line fill="none" x1="173.9" y1="80.8" x2="154.4" y2="80.8"/>
		<rect x="154.4" y="71.7" fill="#212121" width="19.5" height="18.4"/>
		<polygon points="154.4,90 164.2,80.8 154.4,80.8 		"/>
		<polygon points="164.2,80.8 173.9,71.7 164.2,71.7 		"/>
		<polygon fill="#1C1C1C" points="164.2,80.8 154.4,90 164.2,90 		"/>
		<polygon fill="#1C1C1C" points="173.9,71.7 164.2,80.8 173.9,80.8 		"/>
	</g>
	<g>
		<line fill="none" x1="144.6" y1="71.7" x2="144.6" y2="90"/>
		<line fill="none" x1="154.4" y1="80.8" x2="134.8" y2="80.8"/>
		<rect x="134.8" y="71.7" fill="#212121" width="19.5" height="18.4"/>
		<polygon points="134.8,90 144.6,80.8 134.8,80.8 		"/>
		<polygon points="144.6,80.8 154.4,71.7 144.6,71.7 		"/>
		<polygon fill="#1C1C1C" points="144.6,80.8 134.8,90 144.6,90 		"/>
		<polygon fill="#1C1C1C" points="154.4,71.7 144.6,80.8 154.4,80.8 		"/>
	</g>
	<g>
		<line fill="none" x1="183.7" y1="71.7" x2="183.7" y2="90"/>
		<line fill="none" x1="193.5" y1="80.8" x2="173.9" y2="80.8"/>
		<rect x="173.9" y="71.7" fill="#212121" width="19.5" height="18.4"/>
		<polygon points="173.9,90 183.7,80.8 173.9,80.8 		"/>
		<polygon points="183.7,80.8 193.5,71.7 183.7,71.7 		"/>
		<polygon fill="#1C1C1C" points="183.7,80.8 173.9,90 183.7,90 		"/>
		<polygon fill="#1C1C1C" points="193.5,71.7 183.7,80.8 193.5,80.8 		"/>
	</g>
	<g>
		<line fill="none" x1="222.8" y1="125.4" x2="222.8" y2="143.7"/>
		<line fill="none" x1="232.6" y1="134.6" x2="213" y2="134.6"/>
		<rect x="213" y="125.4" fill="#212121" width="19.5" height="18.4"/>
		<polygon points="213,143.7 222.8,134.6 213,134.6 		"/>
		<polygon points="222.8,134.6 232.6,125.4 222.8,125.4 		"/>
		<polygon fill="#1C1C1C" points="222.8,134.6 213,143.7 222.8,143.7 		"/>
		<polygon fill="#1C1C1C" points="232.6,125.4 222.8,134.6 232.6,134.6 		"/>
	</g>
	<g>
		<line fill="none" x1="203.3" y1="125.4" x2="203.3" y2="143.7"/>
		<line fill="none" x1="213" y1="134.6" x2="193.5" y2="134.6"/>
		<rect x="193.5" y="125.4" fill="#212121" width="19.5" height="18.4"/>
		<polygon points="193.5,143.7 203.3,134.6 193.5,134.6 		"/>
		<polygon points="203.3,134.6 213,125.4 203.3,125.4 		"/>
		<polygon fill="#1C1C1C" points="203.3,134.6 193.5,143.7 203.3,143.7 		"/>
		<polygon fill="#1C1C1C" points="213,125.4 203.3,134.6 213,134.6 		"/>
	</g>
	<g>
		<line fill="none" x1="183.7" y1="125.4" x2="183.7" y2="143.7"/>
		<line fill="none" x1="193.5" y1="134.6" x2="173.9" y2="134.6"/>
		<rect x="173.9" y="125.4" fill="#212121" width="19.5" height="18.4"/>
		<polygon points="173.9,143.7 183.7,134.6 173.9,134.6 		"/>
		<polygon points="183.7,134.6 193.5,125.4 183.7,125.4 		"/>
		<polygon fill="#1C1C1C" points="183.7,134.6 173.9,143.7 183.7,143.7 		"/>
		<polygon fill="#1C1C1C" points="193.5,125.4 183.7,134.6 193.5,134.6 		"/>
	</g>
	<g>
		<line fill="none" x1="222.8" y1="108.4" x2="222.8" y2="126.7"/>
		<line fill="none" x1="232.6" y1="117.6" x2="213" y2="117.6"/>
		<rect x="213" y="108.4" fill="#212121" width="19.5" height="18.4"/>
		<polygon points="213,126.7 222.8,117.6 213,117.6 		"/>
		<polygon points="222.8,117.6 232.6,108.4 222.8,108.4 		"/>
		<polygon fill="#1C1C1C" points="222.8,117.6 213,126.7 222.8,126.7 		"/>
		<polygon fill="#1C1C1C" points="232.6,108.4 222.8,117.6 232.6,117.6 		"/>
	</g>
	<g>
		<line fill="none" x1="203.3" y1="108.4" x2="203.3" y2="126.7"/>
		<line fill="none" x1="213" y1="117.6" x2="193.5" y2="117.6"/>
		<rect x="193.5" y="108.4" fill="#212121" width="19.5" height="18.4"/>
		<polygon points="193.5,126.7 203.3,117.6 193.5,117.6 		"/>
		<polygon points="203.3,117.6 213,108.4 203.3,108.4 		"/>
		<polygon fill="#1C1C1C" points="203.3,117.6 193.5,126.7 203.3,126.7 		"/>
		<polygon fill="#1C1C1C" points="213,108.4 203.3,117.6 213,117.6 		"/>
	</g>
	<g>
		<line fill="none" x1="183.7" y1="108.4" x2="183.7" y2="126.7"/>
		<line fill="none" x1="193.5" y1="117.6" x2="173.9" y2="117.6"/>
		<rect x="173.9" y="108.4" fill="#212121" width="19.5" height="18.4"/>
		<polygon points="173.9,126.7 183.7,117.6 173.9,117.6 		"/>
		<polygon points="183.7,117.6 193.5,108.4 183.7,108.4 		"/>
		<polygon fill="#1C1C1C" points="183.7,117.6 173.9,126.7 183.7,126.7 		"/>
		<polygon fill="#1C1C1C" points="193.5,108.4 183.7,117.6 193.5,117.6 		"/>
	</g>
	<g>
		<line fill="none" x1="222.8" y1="90" x2="222.8" y2="108.4"/>
		<line fill="none" x1="232.6" y1="99.2" x2="213" y2="99.2"/>
		<rect x="213" y="90" fill="#212121" width="19.5" height="18.4"/>
		<polygon points="213,108.4 222.8,99.2 213,99.2 		"/>
		<polygon points="222.8,99.2 232.6,90 222.8,90 		"/>
		<polygon fill="#1C1C1C" points="222.8,99.2 213,108.4 222.8,108.4 		"/>
		<polygon fill="#1C1C1C" points="232.6,90 222.8,99.2 232.6,99.2 		"/>
	</g>
	<g>
		<line fill="none" x1="203.3" y1="90" x2="203.3" y2="108.4"/>
		<line fill="none" x1="213" y1="99.2" x2="193.5" y2="99.2"/>
		<rect x="193.5" y="90" fill="#212121" width="19.5" height="18.4"/>
		<polygon points="193.5,108.4 203.3,99.2 193.5,99.2 		"/>
		<polygon points="203.3,99.2 213,90 203.3,90 		"/>
		<polygon fill="#1C1C1C" points="203.3,99.2 193.5,108.4 203.3,108.4 		"/>
		<polygon fill="#1C1C1C" points="213,90 203.3,99.2 213,99.2 		"/>
	</g>
	<g>
		<line fill="none" x1="183.7" y1="90" x2="183.7" y2="108.4"/>
		<line fill="none" x1="193.5" y1="99.2" x2="173.9" y2="99.2"/>
		<rect x="173.9" y="90" fill="#212121" width="19.5" height="18.4"/>
		<polygon points="173.9,108.4 183.7,99.2 173.9,99.2 		"/>
		<polygon points="183.7,99.2 193.5,90 183.7,90 		"/>
		<polygon fill="#1C1C1C" points="183.7,99.2 173.9,108.4 183.7,108.4 		"/>
		<polygon fill="#1C1C1C" points="193.5,90 183.7,99.2 193.5,99.2 		"/>
	</g>
	<g>
		<line fill="none" x1="222.8" y1="71.7" x2="222.8" y2="90"/>
		<line fill="none" x1="232.6" y1="80.8" x2="213" y2="80.8"/>
		<rect x="213" y="71.7" fill="#212121" width="19.5" height="18.4"/>
		<polygon points="213,90 222.8,80.8 213,80.8 		"/>
		<polygon points="222.8,80.8 232.6,71.7 222.8,71.7 		"/>
		<polygon fill="#1C1C1C" points="222.8,80.8 213,90 222.8,90 		"/>
		<polygon fill="#1C1C1C" points="232.6,71.7 222.8,80.8 232.6,80.8 		"/>
	</g>
	<g>
		<line fill="none" x1="203.3" y1="71.7" x2="203.3" y2="90"/>
		<line fill="none" x1="213" y1="80.8" x2="193.5" y2="80.8"/>
		<rect x="193.5" y="71.7" fill="#212121" width="19.5" height="18.4"/>
		<polygon points="193.5,90 203.3,80.8 193.5,80.8 		"/>
		<polygon points="203.3,80.8 213,71.7 203.3,71.7 		"/>
		<polygon fill="#1C1C1C" points="203.3,80.8 193.5,90 203.3,90 		"/>
		<polygon fill="#1C1C1C" points="213,71.7 203.3,80.8 213,80.8 		"/>
	</g>
	<g>
		<line fill="none" x1="242.4" y1="71.7" x2="242.4" y2="90"/>
		<line fill="none" x1="252.1" y1="80.8" x2="232.6" y2="80.8"/>
		<rect x="232.6" y="71.7" fill="#212121" width="19.5" height="18.4"/>
		<polygon points="232.6,90 242.4,80.8 232.6,80.8 		"/>
		<polygon points="242.4,80.8 252.1,71.7 242.4,71.7 		"/>
		<polygon fill="#1C1C1C" points="242.4,80.8 232.6,90 242.4,90 		"/>
		<polygon fill="#1C1C1C" points="252.1,71.7 242.4,80.8 252.1,80.8 		"/>
	</g>
	<g>
		<line fill="none" x1="242.4" y1="125.4" x2="242.4" y2="143.7"/>
		<line fill="none" x1="252.1" y1="134.6" x2="232.6" y2="134.6"/>
		<rect x="232.6" y="125.4" fill="#212121" width="19.5" height="18.4"/>
		<polygon points="232.6,143.7 242.4,134.6 232.6,134.6 		"/>
		<polygon points="242.4,134.6 252.1,125.4 242.4,125.4 		"/>
		<polygon fill="#1C1C1C" points="242.4,134.6 232.6,143.7 242.4,143.7 		"/>
		<polygon fill="#1C1C1C" points="252.1,125.4 242.4,134.6 252.1,134.6 		"/>
	</g>
	<g>
		<line fill="none" x1="242.4" y1="108.4" x2="242.4" y2="126.7"/>
		<line fill="none" x1="252.1" y1="117.6" x2="232.6" y2="117.6"/>
		<rect x="232.6" y="108.4" fill="#212121" width="19.5" height="18.4"/>
		<polygon points="232.6,126.7 242.4,117.6 232.6,117.6 		"/>
		<polygon points="242.4,117.6 252.1,108.4 242.4,108.4 		"/>
		<polygon fill="#1C1C1C" points="242.4,117.6 232.6,126.7 242.4,126.7 		"/>
		<polygon fill="#1C1C1C" points="252.1,108.4 242.4,117.6 252.1,117.6 		"/>
	</g>
	<g>
		<line fill="none" x1="242.4" y1="90" x2="242.4" y2="108.4"/>
		<line fill="none" x1="252.1" y1="99.2" x2="232.6" y2="99.2"/>
		<rect x="232.6" y="90" fill="#212121" width="19.5" height="18.4"/>
		<polygon points="232.6,108.4 242.4,99.2 232.6,99.2 		"/>
		<polygon points="242.4,99.2 252.1,90 242.4,90 		"/>
		<polygon fill="#1C1C1C" points="242.4,99.2 232.6,108.4 242.4,108.4 		"/>
		<polygon fill="#1C1C1C" points="252.1,90 242.4,99.2 252.1,99.2 		"/>
	</g>
</g>
<g>
	<path fill="#BED731" d="M22,74.3c1.1,0,1.7,0.6,2,1.4c0.3,0.8,0.2,1.8-0.6,2.4c1,0.4,1.3,1.3,1.3,2.1c0,1.3-0.8,2.5-2.4,2.5h-3.8
		v-8.4C18.5,74.3,22,74.3,22,74.3z M19.7,77.6H22c1.3,0,1.3-2.2,0-2.2h-2.3V77.6z M19.7,81.5h2.6c0.8,0,1.2-0.7,1.2-1.3
		c0-0.7-0.4-1.3-1.2-1.3h-2.6V81.5z"/>
	<path fill="#BED731" d="M27,78.4h1.4c1,0,1.5-0.7,1.5-1.5c0-0.7-0.5-1.5-1.5-1.5h-1.9v7.2h-1.2v-8.4h3.1c1.8,0,2.7,1.3,2.7,2.7
		c0,1.2-0.7,2.3-2.2,2.6l2.7,3.2H30L27,79V78.4z"/>
	<path fill="#BED731" d="M33,81.5h3.9v1.2h-5.1v-8.4h5.1v1.2H33v2.4h3.8v1.2H33C33,79.1,33,81.5,33,81.5z"/>
	<path fill="#BED731" d="M37.4,82.7v-8.4l0.9,0l4.1,5.9v-5.9h1.2v8.4h-1l-4.1-5.9v5.9L37.4,82.7L37.4,82.7z"/>
	<path fill="#BED731" d="M47.9,74.3c2.7,0,4.1,2.1,4.1,4.2s-1.4,4.2-4.1,4.2h-3v-8.4C44.9,74.3,47.9,74.3,47.9,74.3z M47.9,81.5
		c1.9,0,2.9-1.5,2.9-3s-1-3-2.9-3h-1.8v6H47.9z"/>
	<path fill="#BED731" d="M57.1,80.2h-3c-0.3,0.8-0.7,1.8-1,2.5h-1.3l3.4-8.5H56l3.4,8.5h-1.3L57.1,80.2z M54.5,79.1h2.1l-1-3
		L54.5,79.1z"/>
	<path fill="#BED731" d="M59.7,82.7v-8.4l0.9,0l4.1,5.9v-5.9H66v8.4h-1L61,76.8v5.9L59.7,82.7L59.7,82.7z"/>
	<path fill="#BED731" d="M74.5,74.3c1.1,0,1.7,0.6,2,1.4c0.3,0.8,0.2,1.8-0.6,2.4c1,0.4,1.3,1.3,1.3,2.1c0,1.3-0.8,2.5-2.4,2.5H71
		v-8.4C71,74.3,74.5,74.3,74.5,74.3z M72.2,77.6h2.3c1.3,0,1.3-2.2,0-2.2h-2.3V77.6z M72.2,81.5h2.6c0.8,0,1.2-0.7,1.2-1.3
		c0-0.7-0.4-1.3-1.2-1.3h-2.6V81.5z"/>
	<path fill="#BED731" d="M78.9,75.4c0.8-0.8,1.8-1.3,3-1.3c1.2,0,2.3,0.5,3,1.3c0.8,0.8,1.2,1.8,1.2,3c0,1.2-0.5,2.3-1.2,3
		c-0.8,0.8-1.8,1.3-3,1.3c-1.2,0-2.3-0.5-3-1.3c-0.8-0.8-1.2-1.8-1.2-3C77.6,77.3,78.1,76.2,78.9,75.4z M84.1,76.3
		c-0.6-0.6-1.3-0.9-2.2-0.9s-1.6,0.3-2.1,0.9c-0.6,0.6-0.9,1.3-0.9,2.2s0.3,1.6,0.9,2.2c0.6,0.6,1.3,0.9,2.1,0.9s1.6-0.3,2.2-0.9
		c0.5-0.6,0.9-1.3,0.9-2.2C85,77.6,84.6,76.9,84.1,76.3z"/>
	<path fill="#BED731" d="M87.5,74.3l2.3,3.7l2.3-3.7h1.4l-3.1,5v3.4h-1.2v-3.4l-3.1-5H87.5z"/>
	<path fill="#BED731" d="M94.9,81.5h3.9v1.2h-5.2v-8.4h1.2L94.9,81.5L94.9,81.5z"/>
	<path fill="#BED731" d="M100.5,81.5h3.9v1.2h-5.1v-8.4h5.1v1.2h-3.9v2.4h3.8v1.2h-3.8V81.5z"/>
	<path fill="#BED731" d="M19.7,97.1h-1.2v-8.4h5v1.2h-3.8v2.4H23v1.2h-3.4C19.7,93.5,19.7,97.1,19.7,97.1z"/>
	<path fill="#BED731" d="M24.9,89.8c0.8-0.8,1.8-1.3,3-1.3c1.2,0,2.3,0.5,3,1.3c0.8,0.8,1.2,1.8,1.2,3c0,1.2-0.5,2.3-1.2,3
		c-0.8,0.8-1.8,1.3-3,1.3c-1.2,0-2.3-0.5-3-1.3c-0.8-0.8-1.2-1.8-1.2-3C23.7,91.7,24.2,90.6,24.9,89.8z M30.1,90.7
		c-0.6-0.6-1.3-0.9-2.2-0.9s-1.6,0.3-2.1,0.9c-0.6,0.6-0.9,1.3-0.9,2.2s0.3,1.6,0.9,2.2c0.6,0.6,1.3,0.9,2.1,0.9s1.6-0.3,2.2-0.9
		c0.5-0.6,0.9-1.3,0.9-2.2C31,92,30.6,91.3,30.1,90.7z"/>
	<path fill="#BED731" d="M33.1,94.6v-5.9h1.2v5.9c0,0.9,1,1.4,1.9,1.4c0.9,0,1.9-0.5,1.9-1.4v-5.9h1.2v5.9c0,1.7-1.7,2.6-3.1,2.6
		C34.8,97.2,33.1,96.3,33.1,94.6z"/>
	<path fill="#BED731" d="M40.4,97.1v-8.4l0.9,0l4.1,5.9v-5.9h1.2v8.4h-1l-4.1-5.9v5.9L40.4,97.1L40.4,97.1z"/>
	<path fill="#BED731" d="M50.9,88.7c2.7,0,4.1,2.1,4.1,4.2s-1.4,4.2-4.1,4.2h-3v-8.4C47.9,88.7,50.9,88.7,50.9,88.7z M50.9,95.9
		c1.9,0,2.9-1.5,2.9-3s-1-3-2.9-3h-1.8v6H50.9z"/>
	<path fill="#BED731" d="M56.8,95.9h3.9v1.2h-5.1v-8.4h5.1v1.2h-3.9v2.4h3.8v1.2h-3.8C56.8,93.5,56.8,95.9,56.8,95.9z"/>
	<path fill="#BED731" d="M62.9,92.8h1.4c1,0,1.5-0.7,1.5-1.5c0-0.7-0.5-1.5-1.5-1.5h-1.9v7.2h-1.2v-8.4h3.1c1.8,0,2.7,1.3,2.7,2.7
		c0,1.2-0.7,2.3-2.2,2.6l2.7,3.2H66l-3.1-3.7V92.8z"/>
	<path fill="#BED731" d="M72.9,89.8c0.8-0.8,1.8-1.3,3-1.3c1.2,0,2.3,0.5,3,1.3c0.8,0.8,1.2,1.8,1.2,3c0,1.2-0.5,2.3-1.2,3
		c-0.8,0.8-1.8,1.3-3,1.3c-1.2,0-2.3-0.5-3-1.3c-0.8-0.8-1.2-1.8-1.2-3C71.7,91.7,72.2,90.6,72.9,89.8z M78.1,90.7
		c-0.6-0.6-1.3-0.9-2.2-0.9s-1.6,0.3-2.1,0.9c-0.6,0.6-0.9,1.3-0.9,2.2s0.3,1.6,0.9,2.2c0.6,0.6,1.3,0.9,2.1,0.9s1.6-0.3,2.2-0.9
		c0.5-0.6,0.9-1.3,0.9-2.2C79,92,78.6,91.3,78.1,90.7z"/>
	<path fill="#BED731" d="M82.1,97.1h-1.2v-8.4h5v1.2h-3.8v2.4h3.4v1.2h-3.4V97.1z"/>
	<path fill="#BED731" d="M93.6,88.7c2.7,0,4.1,2.1,4.1,4.2s-1.4,4.2-4.1,4.2h-3v-8.4C90.6,88.7,93.6,88.7,93.6,88.7z M93.6,95.9
		c1.9,0,2.9-1.5,2.9-3s-1-3-2.9-3h-1.8v6H93.6z"/>
	<path fill="#BED731" d="M101.9,88.7c1.1,0,1.7,0.6,2,1.4c0.3,0.8,0.2,1.8-0.6,2.4c1,0.4,1.3,1.3,1.3,2.1c0,1.3-0.8,2.5-2.4,2.5
		h-3.8v-8.4C98.4,88.7,101.9,88.7,101.9,88.7z M99.6,92h2.3c1.3,0,1.3-2.2,0-2.2h-2.3V92z M99.6,95.9h2.6c0.8,0,1.2-0.7,1.2-1.3
		c0-0.7-0.4-1.3-1.2-1.3h-2.6V95.9z"/>
	<path fill="#BED731" d="M105.1,88.7h5.7l0.4,0.8l-4.7,6.5h4.7v1.1h-5.9l-0.5-0.7l4.8-6.6h-4.5V88.7z"/>
	<path fill="#BED731" d="M118,97.1v-7.2h-2.5v-1.2h6.3v1.2h-2.5v7.2C119.2,97.1,118,97.1,118,97.1z"/>
	<path fill="#BED731" d="M123.4,95.9h3.9v1.2h-5.1v-8.4h5.1v1.2h-3.9v2.4h3.8v1.2h-3.8L123.4,95.9L123.4,95.9z"/>
	<path fill="#BED731" d="M128.9,89.9c0.7-0.8,1.8-1.2,2.9-1.2c1.9,0,3.4,1.2,3.9,3.1h-1.2c-0.4-1.3-1.5-1.9-2.7-1.9
		c-0.8,0-1.5,0.3-2.1,0.9c-0.5,0.6-0.9,1.3-0.9,2.2c0,0.8,0.3,1.6,0.9,2.1c0.5,0.6,1.3,0.9,2.1,0.9c1.3,0,2.4-0.7,2.8-2h1.2
		c-0.5,1.9-2,3.2-4,3.2c-1.1,0-2.2-0.5-2.9-1.2c-0.7-0.8-1.2-1.8-1.2-3C127.7,91.7,128.2,90.7,128.9,89.9z"/>
	<path fill="#BED731" d="M137.6,92.2h3.6v-3.5h1.2v8.4h-1.2v-3.6h-3.6v3.6h-1.2v-8.4h1.2V92.2z"/>
	<path fill="#BED731" d="M143.2,97.1v-8.4l0.9,0l4.1,5.9v-5.9h1.2v8.4h-1l-4.1-5.9v5.9L143.2,97.1L143.2,97.1z"/>
	<path fill="#BED731" d="M151.1,89.8c0.8-0.8,1.8-1.3,3-1.3c1.2,0,2.3,0.5,3,1.3c0.8,0.8,1.2,1.8,1.2,3c0,1.2-0.5,2.3-1.2,3
		c-0.8,0.8-1.8,1.3-3,1.3c-1.2,0-2.3-0.5-3-1.3c-0.8-0.8-1.2-1.8-1.2-3C149.9,91.7,150.4,90.6,151.1,89.8z M156.3,90.7
		c-0.6-0.6-1.3-0.9-2.2-0.9c-0.8,0-1.6,0.3-2.1,0.9c-0.6,0.6-0.9,1.3-0.9,2.2s0.3,1.6,0.9,2.2c0.6,0.6,1.3,0.9,2.1,0.9
		c0.8,0,1.6-0.3,2.2-0.9c0.5-0.6,0.9-1.3,0.9-2.2C157.2,92,156.9,91.3,156.3,90.7z"/>
	<path fill="#BED731" d="M160.5,95.9h3.9v1.2h-5.2v-8.4h1.2V95.9z"/>
	<path fill="#BED731" d="M165.4,89.8c0.8-0.8,1.8-1.3,3-1.3c1.2,0,2.3,0.5,3,1.3c0.8,0.8,1.2,1.8,1.2,3c0,1.2-0.5,2.3-1.2,3
		c-0.8,0.8-1.8,1.3-3,1.3c-1.2,0-2.3-0.5-3-1.3c-0.8-0.8-1.2-1.8-1.2-3C164.2,91.7,164.7,90.6,165.4,89.8z M170.6,90.7
		c-0.6-0.6-1.3-0.9-2.2-0.9c-0.8,0-1.6,0.3-2.1,0.9c-0.6,0.6-0.9,1.3-0.9,2.2s0.3,1.6,0.9,2.2c0.6,0.6,1.3,0.9,2.1,0.9
		c0.8,0,1.6-0.3,2.2-0.9c0.5-0.6,0.9-1.3,0.9-2.2C171.5,92,171.2,91.3,170.6,90.7z"/>
	<path fill="#BED731" d="M180.2,91.7c-0.3-1.4-1.6-1.8-2.7-1.8c-1.6,0-2.9,1.3-2.9,3c0,1.8,1.3,3.1,2.9,3.1c1,0,2.1-0.5,2.6-1.7H177
		v-1.2h4.5c-0.1,0.7-0.1,1.2-0.2,1.5v0c-0.6,1.6-2.3,2.6-3.8,2.6c-2.4,0-4.1-1.8-4.1-4.2c0-2.5,1.8-4.3,4.1-4.3c1.6,0,3.6,0.8,4,3.1
		L180.2,91.7L180.2,91.7z"/>
	<path fill="#BED731" d="M182.7,88.7l2.3,3.7l2.3-3.7h1.4l-3.1,5v3.4h-1.2v-3.4l-3.1-5H182.7z"/>
	<path fill="#BED731" d="M27.3,102.8l-0.3,1.5h-2.6l-1.5,7.1h-1.8l1.5-7.1H20l0.3-1.5H27.3z"/>
	<path fill="#BED731" d="M26.9,106.6v-1.1h0.9v1.1H26.9z M26.9,111.5v-1.1h0.9v1.1H26.9z"/>
	<path fill="#BED731" d="M35.6,102.6c-0.6,0.8-1,1.7-1.3,2.7c-0.3,0.9-0.5,1.9-0.5,2.9c0,1,0.2,2,0.5,2.9c0.3,0.9,0.8,1.8,1.3,2.6
		H35c-0.3-0.5-0.6-0.9-0.9-1.3s-0.5-0.9-0.6-1.3s-0.3-0.9-0.4-1.4c-0.1-0.5-0.1-1-0.1-1.6c0-0.6,0-1.1,0.1-1.6
		c0.1-0.5,0.2-0.9,0.4-1.4c0.2-0.4,0.4-0.9,0.6-1.3c0.3-0.4,0.5-0.9,0.9-1.3C35,102.6,35.6,102.6,35.6,102.6z"/>
	<path fill="#BED731" d="M41.5,105.1c-0.1-0.4-0.3-0.8-0.5-1s-0.6-0.4-1.1-0.4c-0.5,0-0.9,0.1-1.2,0.4c-0.3,0.2-0.5,0.6-0.7,0.9
		s-0.3,0.8-0.3,1.2s-0.1,0.9-0.1,1.3c0.1-0.2,0.2-0.3,0.4-0.5c0.1-0.2,0.3-0.3,0.5-0.4s0.4-0.2,0.6-0.3c0.2-0.1,0.5-0.1,0.8-0.1
		c0.9,0,1.5,0.2,2,0.7s0.7,1.2,0.7,2c0,0.9-0.2,1.5-0.7,2s-1.1,0.7-2,0.7c-0.4,0-0.8-0.1-1.2-0.2s-0.7-0.4-0.9-0.7
		c-0.3-0.3-0.5-0.7-0.6-1.3c-0.2-0.5-0.2-1.1-0.2-1.9c0-0.5,0-1,0.1-1.6c0.1-0.5,0.2-1,0.5-1.5s0.5-0.8,0.9-1.1s0.9-0.4,1.5-0.4
		c0.7,0,1.2,0.2,1.7,0.5s0.7,0.9,0.8,1.5H41.5z M39.8,106.8c-0.3,0-0.6,0.1-0.8,0.2c-0.2,0.1-0.4,0.3-0.6,0.5
		c-0.2,0.2-0.3,0.4-0.4,0.7c-0.1,0.3-0.1,0.5-0.1,0.8c0,0.2,0,0.5,0.1,0.7s0.2,0.5,0.3,0.7s0.4,0.4,0.6,0.5s0.5,0.2,0.9,0.2
		c0.4,0,0.7-0.1,0.9-0.2s0.4-0.3,0.6-0.5c0.2-0.2,0.3-0.4,0.3-0.7s0.1-0.5,0.1-0.8c0-0.7-0.2-1.2-0.5-1.5
		C40.9,107,40.4,106.8,39.8,106.8z"/>
	<path fill="#BED731" d="M44.2,109.3c0.1,0.6,0.3,1,0.7,1.3c0.4,0.3,0.8,0.4,1.4,0.4c0.3,0,0.6-0.1,0.8-0.2c0.3-0.1,0.5-0.3,0.6-0.5
		c0.2-0.2,0.3-0.4,0.4-0.7c0.1-0.3,0.1-0.5,0.1-0.8c0-0.3,0-0.6-0.2-0.9s-0.2-0.5-0.4-0.7c-0.2-0.2-0.4-0.3-0.7-0.4
		c-0.3-0.1-0.5-0.2-0.9-0.2c-0.4,0-0.7,0.1-1,0.2c-0.3,0.1-0.6,0.4-0.8,0.7l-0.6-0.1l0.7-4.4h4.2v0.6H45l-0.5,2.8
		c0.2-0.1,0.3-0.2,0.5-0.3c0.1-0.1,0.3-0.1,0.4-0.2s0.3-0.1,0.5-0.1c0.2,0,0.3,0,0.5,0c0.4,0,0.7,0.1,1.1,0.2s0.6,0.3,0.9,0.6
		c0.2,0.2,0.4,0.5,0.6,0.9c0.1,0.3,0.2,0.7,0.2,1.2c0,0.4-0.1,0.8-0.2,1.2c-0.1,0.3-0.3,0.6-0.6,0.9c-0.2,0.2-0.5,0.4-0.9,0.5
		c-0.3,0.1-0.7,0.2-1,0.2c-0.4,0-0.8,0-1.1-0.1s-0.7-0.2-0.9-0.4c-0.3-0.2-0.5-0.4-0.6-0.7s-0.3-0.7-0.3-1.1L44.2,109.3L44.2,109.3z
		"/>
	<path fill="#BED731" d="M53.3,105.2h-2.2v-0.5c0.3,0,0.6-0.1,0.9-0.1s0.5-0.1,0.7-0.2c0.2-0.1,0.4-0.3,0.5-0.5s0.2-0.5,0.3-0.9H54
		v8.5h-0.8V105.2z"/>
	<path fill="#BED731" d="M57,113.8c0.6-0.8,1-1.7,1.3-2.7c0.3-0.9,0.5-1.9,0.5-2.9c0-1-0.2-2-0.5-2.9c-0.3-0.9-0.8-1.8-1.3-2.6h0.6
		c0.3,0.5,0.6,0.9,0.9,1.3c0.3,0.4,0.5,0.9,0.6,1.3c0.2,0.4,0.3,0.9,0.4,1.4c0.1,0.5,0.1,1,0.1,1.6c0,0.6,0,1.1-0.1,1.6
		c-0.1,0.5-0.2,0.9-0.4,1.4c-0.2,0.4-0.4,0.9-0.6,1.3s-0.5,0.9-0.9,1.3C57.6,113.8,57,113.8,57,113.8z"/>
	<path fill="#BED731" d="M63.8,108v0.7h-3V108H63.8z"/>
	<path fill="#BED731" d="M67,106.8c0.4,0,0.7,0,1-0.1c0.3,0,0.6-0.1,0.8-0.3c0.2-0.1,0.4-0.3,0.5-0.5s0.2-0.5,0.2-0.8
		c0-0.3,0-0.5-0.1-0.7c-0.1-0.2-0.2-0.3-0.4-0.5s-0.4-0.2-0.6-0.3c-0.2-0.1-0.4-0.1-0.7-0.1c-0.3,0-0.5,0-0.7,0.1
		c-0.2,0.1-0.4,0.2-0.6,0.4c-0.2,0.2-0.3,0.4-0.4,0.6c-0.1,0.2-0.1,0.5-0.1,0.7H65c0-0.4,0.1-0.7,0.2-1c0.1-0.3,0.3-0.6,0.6-0.9
		c0.3-0.2,0.6-0.4,0.9-0.5c0.3-0.1,0.7-0.1,1-0.1c0.3,0,0.7,0,0.9,0.1s0.5,0.2,0.8,0.4c0.2,0.2,0.4,0.4,0.5,0.7s0.2,0.6,0.2,0.9
		c0,0.4-0.1,0.8-0.3,1.1s-0.5,0.6-0.9,0.7c0.3,0.1,0.6,0.2,0.8,0.4c0.2,0.2,0.3,0.3,0.5,0.5c0.1,0.2,0.2,0.4,0.2,0.6
		s0.1,0.4,0.1,0.6c0,0.4-0.1,0.7-0.2,1c-0.1,0.3-0.3,0.6-0.5,0.8s-0.5,0.4-0.9,0.6c-0.3,0.1-0.7,0.2-1.2,0.2c-0.5,0-0.9,0-1.3-0.1
		s-0.7-0.2-0.9-0.4s-0.4-0.5-0.6-0.8s-0.2-0.7-0.3-1.2h0.8c0,0.6,0.2,1.1,0.6,1.5s0.9,0.5,1.5,0.5c0.3,0,0.6-0.1,0.9-0.2
		c0.3-0.1,0.5-0.2,0.7-0.4c0.2-0.2,0.3-0.4,0.4-0.6s0.1-0.5,0.1-0.7c0-0.3-0.1-0.6-0.2-0.9c-0.1-0.2-0.3-0.4-0.6-0.5
		s-0.5-0.2-0.9-0.3s-0.7-0.1-1,0L67,106.8L67,106.8z"/>
	<path fill="#BED731" d="M75.3,109.4h-3.9v-0.7l3.9-5.6H76v5.6h1.2v0.6H76v2.1h-0.8V109.4z M72.2,108.7h3.1v-4.5L72.2,108.7z"/>
	<path fill="#BED731" d="M82.9,105.1c-0.1-0.4-0.3-0.8-0.5-1s-0.6-0.4-1.1-0.4c-0.5,0-0.9,0.1-1.2,0.4c-0.3,0.2-0.5,0.6-0.7,0.9
		s-0.3,0.8-0.3,1.2s-0.1,0.9-0.1,1.3c0.1-0.2,0.2-0.3,0.4-0.5c0.1-0.2,0.3-0.3,0.4-0.4s0.4-0.2,0.6-0.3c0.2-0.1,0.5-0.1,0.8-0.1
		c0.9,0,1.5,0.2,2,0.7s0.7,1.2,0.7,2c0,0.9-0.2,1.5-0.7,2s-1.1,0.7-2,0.7c-0.4,0-0.8-0.1-1.2-0.2s-0.7-0.4-0.9-0.7
		c-0.3-0.3-0.5-0.7-0.6-1.3c-0.2-0.5-0.2-1.1-0.2-1.9c0-0.5,0-1,0.1-1.6c0.1-0.5,0.2-1,0.5-1.5s0.5-0.8,0.9-1.1s0.9-0.4,1.5-0.4
		c0.7,0,1.2,0.2,1.7,0.5s0.7,0.9,0.8,1.5H82.9z M81.1,106.8c-0.3,0-0.6,0.1-0.8,0.2c-0.2,0.1-0.4,0.3-0.6,0.5
		c-0.2,0.2-0.3,0.4-0.4,0.7s-0.1,0.5-0.1,0.8c0,0.2,0,0.5,0.1,0.7s0.2,0.5,0.3,0.7s0.4,0.4,0.6,0.5c0.2,0.1,0.5,0.2,0.9,0.2
		c0.4,0,0.7-0.1,0.9-0.2s0.4-0.3,0.6-0.5c0.2-0.2,0.3-0.4,0.3-0.7s0.1-0.5,0.1-0.8c0-0.7-0.2-1.2-0.5-1.5
		C82.3,107,81.8,106.8,81.1,106.8z"/>
	<path fill="#BED731" d="M87.8,108v0.7h-3V108H87.8z"/>
	<path fill="#BED731" d="M89.7,109.6c0.1,0.5,0.3,0.8,0.5,1c0.3,0.2,0.6,0.3,1.1,0.3c0.5,0,0.9-0.1,1.2-0.4s0.5-0.6,0.7-0.9
		s0.3-0.8,0.3-1.2c0.1-0.4,0.1-0.8,0.1-1.2l0,0c-0.3,0.4-0.6,0.8-1,1c-0.4,0.2-0.8,0.3-1.3,0.3c-0.4,0-0.8-0.1-1.1-0.2
		s-0.6-0.3-0.8-0.6c-0.2-0.2-0.4-0.5-0.5-0.9c-0.1-0.3-0.2-0.7-0.2-1.1c0-0.4,0.1-0.8,0.2-1.1c0.1-0.3,0.3-0.6,0.5-0.9
		s0.5-0.4,0.8-0.6c0.3-0.1,0.7-0.2,1.2-0.2c0.6,0,1,0.1,1.4,0.3s0.7,0.5,0.9,0.9s0.4,0.8,0.5,1.4c0.1,0.5,0.1,1.1,0.1,1.7
		c0,0.7-0.1,1.4-0.2,1.9s-0.4,1-0.6,1.4c-0.3,0.4-0.6,0.6-1,0.8c-0.4,0.2-0.8,0.3-1.2,0.3c-0.3,0-0.6,0-0.9-0.1s-0.5-0.2-0.8-0.4
		s-0.4-0.4-0.5-0.6c-0.1-0.3-0.2-0.6-0.3-0.9C88.9,109.6,89.7,109.6,89.7,109.6z M91.5,103.7c-0.6,0-1.1,0.2-1.5,0.6
		s-0.5,0.9-0.5,1.6c0,0.6,0.2,1.2,0.5,1.5c0.3,0.4,0.8,0.5,1.4,0.5c0.3,0,0.6-0.1,0.8-0.2s0.4-0.3,0.6-0.5s0.3-0.4,0.4-0.7
		s0.1-0.5,0.1-0.8c0-0.6-0.2-1.1-0.5-1.5S92.1,103.7,91.5,103.7z"/>
	<path fill="#BED731" d="M95.7,103.1h5.4v0.7c-0.6,0.7-1.1,1.4-1.5,2.1c-0.4,0.7-0.8,1.4-1,2.1c-0.3,0.7-0.5,1.3-0.6,1.9
		s-0.2,1.1-0.2,1.5h-0.8c0-0.6,0.2-1.3,0.4-1.9c0.2-0.7,0.5-1.4,0.8-2s0.6-1.3,1-1.9c0.4-0.6,0.8-1.2,1.2-1.7h-4.5
		C95.7,103.9,95.7,103.1,95.7,103.1z"/>
	<path fill="#BED731" d="M106.9,105.1c-0.1-0.4-0.3-0.8-0.5-1s-0.6-0.4-1.1-0.4c-0.5,0-0.9,0.1-1.2,0.4c-0.3,0.2-0.5,0.6-0.7,0.9
		s-0.3,0.8-0.3,1.2s-0.1,0.9-0.1,1.3c0.1-0.2,0.2-0.3,0.4-0.5c0.1-0.2,0.3-0.3,0.4-0.4s0.4-0.2,0.6-0.3c0.2-0.1,0.5-0.1,0.8-0.1
		c0.9,0,1.5,0.2,2,0.7s0.7,1.2,0.7,2c0,0.9-0.2,1.5-0.7,2s-1.1,0.7-2,0.7c-0.4,0-0.8-0.1-1.2-0.2s-0.7-0.4-0.9-0.7
		c-0.3-0.3-0.5-0.7-0.6-1.3c-0.2-0.5-0.2-1.1-0.2-1.9c0-0.5,0-1,0.1-1.6c0.1-0.5,0.2-1,0.5-1.5s0.5-0.8,0.9-1.1s0.9-0.4,1.5-0.4
		c0.7,0,1.2,0.2,1.7,0.5s0.7,0.9,0.8,1.5H106.9z M105.1,106.8c-0.3,0-0.6,0.1-0.8,0.2c-0.2,0.1-0.4,0.3-0.6,0.5
		c-0.2,0.2-0.3,0.4-0.4,0.7s-0.1,0.5-0.1,0.8c0,0.2,0,0.5,0.1,0.7s0.2,0.5,0.3,0.7s0.4,0.4,0.6,0.5c0.2,0.1,0.5,0.2,0.9,0.2
		c0.4,0,0.7-0.1,0.9-0.2s0.4-0.3,0.6-0.5c0.2-0.2,0.3-0.4,0.3-0.7s0.1-0.5,0.1-0.8c0-0.7-0.2-1.2-0.5-1.5
		C106.3,107,105.8,106.8,105.1,106.8z"/>
	<path fill="#BED731" d="M111.7,103c0.4,0,0.8,0.1,1.1,0.2c0.3,0.1,0.6,0.3,0.8,0.5c0.2,0.2,0.4,0.5,0.5,0.8s0.2,0.6,0.3,0.9
		s0.1,0.7,0.1,1c0,0.3,0,0.7,0,1c0,0.6,0,1.1-0.1,1.6s-0.2,1-0.4,1.4c-0.2,0.4-0.5,0.7-0.9,0.9c-0.4,0.2-0.8,0.3-1.4,0.3
		s-1.1-0.1-1.4-0.3s-0.7-0.5-0.9-0.9s-0.4-0.9-0.4-1.4c-0.1-0.5-0.1-1.1-0.1-1.7c0-0.5,0-1.1,0.1-1.6s0.2-1,0.4-1.4
		c0.2-0.4,0.5-0.7,0.9-1S111.1,103,111.7,103z M113.8,107.3c0-0.5,0-0.9-0.1-1.3c-0.1-0.4-0.2-0.8-0.3-1.2s-0.4-0.6-0.6-0.8
		s-0.6-0.3-1.1-0.3c-0.4,0-0.8,0.1-1,0.3s-0.5,0.5-0.6,0.8c-0.2,0.4-0.3,0.8-0.3,1.2c-0.1,0.4-0.1,0.9-0.1,1.4c0,0.5,0,1,0.1,1.5
		c0.1,0.4,0.2,0.8,0.3,1.1c0.2,0.3,0.4,0.6,0.6,0.7c0.3,0.2,0.6,0.3,1,0.3c0.5,0,0.8-0.1,1.1-0.3c0.3-0.2,0.5-0.5,0.6-0.9
		c0.1-0.4,0.2-0.7,0.3-1.2C113.7,108.2,113.8,107.7,113.8,107.3z"/>
	<path fill="#BED731" d="M27.1,118.8h-4.6l-0.4,1.8h4.2l-0.3,1.5h-4.2l-0.5,2.2h4.8l-0.3,1.6h-6.5l1.8-8.6h6.3L27.1,118.8z"/>
	<path fill="#BED731" d="M27.5,121V120h0.9v1.1H27.5z M27.5,125.9v-1.1h0.9v1.1H27.5z"/>
	<path fill="#BED731" d="M34.6,125.9h-0.7v-8.6h0.7v3.4c0.2-0.4,0.5-0.7,1-0.9s0.8-0.3,1.3-0.3c0.5,0,0.9,0.1,1.2,0.3
		c0.3,0.2,0.6,0.4,0.9,0.7c0.2,0.3,0.4,0.6,0.5,1.1c0.1,0.4,0.2,0.8,0.2,1.2c0,0.5-0.1,0.9-0.2,1.3c-0.1,0.4-0.3,0.7-0.5,1
		c-0.2,0.3-0.5,0.5-0.9,0.7c-0.4,0.2-0.8,0.3-1.3,0.3c-0.2,0-0.4,0-0.6-0.1s-0.4-0.1-0.6-0.2s-0.4-0.2-0.5-0.4
		c-0.2-0.2-0.3-0.3-0.4-0.5h0C34.6,124.8,34.6,125.9,34.6,125.9z M34.6,122.8c0,0.4,0,0.7,0.1,1.1c0.1,0.3,0.2,0.6,0.4,0.8
		s0.4,0.4,0.7,0.6c0.3,0.1,0.6,0.2,0.9,0.2c0.3,0,0.6-0.1,0.8-0.2c0.3-0.1,0.5-0.3,0.7-0.5s0.3-0.5,0.5-0.8s0.2-0.6,0.2-1
		c0-0.4,0-0.8-0.1-1.1s-0.2-0.6-0.4-0.9s-0.4-0.5-0.7-0.6c-0.3-0.1-0.6-0.2-1-0.2c-0.3,0-0.6,0.1-0.9,0.2c-0.3,0.1-0.5,0.3-0.7,0.6
		s-0.3,0.5-0.4,0.8S34.6,122.4,34.6,122.8z"/>
	<path fill="#BED731" d="M41.9,125.9h-0.7v-6.2h0.7v1.2h0c0.2-0.5,0.5-0.8,0.8-1s0.7-0.3,1.3-0.3v0.8c-0.4,0-0.7,0.1-1,0.2
		c-0.3,0.1-0.5,0.3-0.6,0.6c-0.2,0.2-0.3,0.5-0.3,0.8c-0.1,0.3-0.1,0.6-0.1,1C41.9,122.8,41.9,125.9,41.9,125.9z"/>
	<path fill="#BED731" d="M45.6,122.9c0,0.3,0,0.7,0.1,1c0.1,0.3,0.2,0.6,0.4,0.8c0.2,0.2,0.4,0.4,0.7,0.5c0.3,0.1,0.6,0.2,0.9,0.2
		c0.5,0,0.9-0.1,1.2-0.4s0.6-0.6,0.7-1.1h0.8c-0.1,0.3-0.2,0.6-0.3,0.8s-0.3,0.5-0.5,0.7s-0.5,0.3-0.8,0.4c-0.3,0.1-0.6,0.2-1,0.2
		c-0.5,0-0.9-0.1-1.3-0.3s-0.7-0.4-0.9-0.7c-0.2-0.3-0.4-0.6-0.5-1c-0.1-0.4-0.2-0.8-0.2-1.3s0.1-0.9,0.2-1.3
		c0.1-0.4,0.3-0.8,0.6-1.1s0.5-0.5,0.9-0.7s0.8-0.3,1.2-0.3c0.9,0,1.5,0.3,2,0.9c0.5,0.6,0.7,1.4,0.7,2.6H45.6z M49.7,122.3
		c0-0.3,0-0.6-0.1-0.9c-0.1-0.3-0.2-0.5-0.4-0.7s-0.4-0.4-0.6-0.5c-0.2-0.1-0.5-0.2-0.9-0.2s-0.6,0.1-0.8,0.2s-0.5,0.3-0.6,0.5
		c-0.2,0.2-0.3,0.4-0.4,0.7c-0.1,0.3-0.2,0.5-0.2,0.8L49.7,122.3L49.7,122.3z"/>
	<path fill="#BED731" d="M52.6,125.9h-0.7v-6.2h0.7v0.9c0.3-0.3,0.6-0.6,0.9-0.7c0.3-0.2,0.7-0.3,1.1-0.3c0.4,0,0.7,0.1,1.1,0.2
		c0.3,0.1,0.6,0.4,0.8,0.7c0.2,0.2,0.2,0.5,0.3,0.7c0,0.2,0,0.5,0,0.7v4.1H56v-4.1c0-0.6-0.1-1-0.4-1.3c-0.2-0.3-0.7-0.4-1.2-0.4
		c-0.2,0-0.4,0-0.6,0.1c-0.2,0.1-0.3,0.2-0.5,0.3c-0.1,0.1-0.3,0.2-0.4,0.4c-0.1,0.1-0.2,0.3-0.2,0.5c-0.1,0.2-0.1,0.4-0.1,0.6
		c0,0.2,0,0.4,0,0.6V125.9z"/>
	<path fill="#BED731" d="M63.3,117.2H64v8.6h-0.7v-1.1h0c-0.1,0.2-0.2,0.4-0.4,0.5s-0.3,0.3-0.5,0.4s-0.4,0.2-0.6,0.2
		s-0.4,0.1-0.6,0.1c-0.5,0-0.9-0.1-1.3-0.3s-0.6-0.4-0.9-0.7c-0.2-0.3-0.4-0.6-0.5-1c-0.1-0.4-0.2-0.8-0.2-1.3
		c0-0.4,0.1-0.8,0.2-1.2c0.1-0.4,0.3-0.8,0.5-1.1c0.2-0.3,0.5-0.5,0.9-0.7c0.3-0.2,0.8-0.3,1.2-0.3c0.4,0,0.9,0.1,1.3,0.3
		s0.7,0.5,1,0.9C63.3,120.7,63.3,117.2,63.3,117.2z M63.3,122.8c0-0.4,0-0.7-0.1-1c-0.1-0.3-0.2-0.6-0.4-0.8s-0.4-0.4-0.7-0.6
		s-0.6-0.2-0.9-0.2c-0.4,0-0.7,0.1-1,0.2c-0.3,0.1-0.5,0.3-0.7,0.6s-0.3,0.6-0.4,0.9c-0.1,0.3-0.1,0.7-0.1,1.1c0,0.4,0.1,0.7,0.2,1
		s0.3,0.6,0.5,0.8s0.4,0.4,0.7,0.5c0.3,0.1,0.5,0.2,0.8,0.2c0.3,0,0.6-0.1,0.9-0.2c0.3-0.1,0.5-0.3,0.7-0.6c0.2-0.2,0.3-0.5,0.4-0.8
		S63.3,123.1,63.3,122.8z"/>
	<path fill="#BED731" d="M68.7,122.3c0.1,0,0.3,0,0.5-0.1c0.2,0,0.3-0.1,0.5-0.1c0.1-0.1,0.2-0.1,0.2-0.3c0-0.1,0-0.3,0-0.4
		c0-0.4-0.1-0.7-0.4-0.9s-0.6-0.4-1.2-0.4c-0.2,0-0.5,0-0.7,0.1s-0.4,0.1-0.5,0.2c-0.2,0.1-0.3,0.3-0.4,0.4
		c-0.1,0.2-0.2,0.4-0.2,0.7h-0.7c0-0.4,0.1-0.7,0.3-0.9s0.3-0.5,0.6-0.6s0.5-0.3,0.8-0.4c0.3-0.1,0.6-0.1,1-0.1c0.3,0,0.6,0,0.9,0.1
		s0.5,0.2,0.7,0.3c0.2,0.1,0.4,0.3,0.5,0.6c0.1,0.2,0.2,0.6,0.2,0.9v3.4c0,0.3,0.1,0.5,0.2,0.5s0.3,0.1,0.6-0.1v0.6
		c-0.1,0-0.1,0-0.2,0.1s-0.2,0-0.3,0c-0.1,0-0.2,0-0.3,0c-0.1,0-0.2-0.1-0.3-0.1c-0.1-0.1-0.1-0.1-0.2-0.2s-0.1-0.2-0.1-0.3
		s0-0.2,0-0.3c-0.3,0.3-0.7,0.6-1,0.8s-0.8,0.3-1.3,0.3c-0.3,0-0.5,0-0.8-0.1c-0.3-0.1-0.5-0.2-0.7-0.3c-0.2-0.2-0.3-0.3-0.5-0.6
		s-0.2-0.5-0.2-0.8c0-1.1,0.7-1.7,2.2-1.9L68.7,122.3z M69.9,122.6c-0.3,0.1-0.6,0.2-0.9,0.3s-0.6,0.1-0.9,0.1c-0.6,0-1,0.2-1.3,0.4
		s-0.5,0.5-0.5,0.9c0,0.2,0,0.4,0.1,0.5c0.1,0.1,0.2,0.3,0.3,0.3s0.3,0.2,0.4,0.2s0.3,0.1,0.5,0.1c0.3,0,0.6,0,0.8-0.1
		s0.5-0.2,0.7-0.3s0.4-0.3,0.5-0.6c0.1-0.2,0.2-0.5,0.2-0.8V122.6z"/>
	<path fill="#BED731" d="M73.2,125.9h-0.7v-6.2h0.7v0.9c0.3-0.3,0.6-0.6,0.9-0.7c0.3-0.2,0.7-0.3,1.1-0.3c0.4,0,0.7,0.1,1.1,0.2
		c0.3,0.1,0.6,0.4,0.8,0.7c0.2,0.2,0.2,0.5,0.3,0.7c0,0.2,0,0.5,0,0.7v4.1h-0.7v-4.1c0-0.6-0.1-1-0.4-1.3c-0.2-0.3-0.7-0.4-1.2-0.4
		c-0.2,0-0.4,0-0.6,0.1c-0.2,0.1-0.3,0.2-0.5,0.3s-0.3,0.2-0.4,0.4c-0.1,0.1-0.2,0.3-0.2,0.5c-0.1,0.2-0.1,0.4-0.1,0.6
		c0,0.2,0,0.4,0,0.6C73.2,122.5,73.2,125.9,73.2,125.9z"/>
	<path fill="#BED731" d="M87.2,123.9c-0.2,0.4-0.4,0.7-0.7,0.9c-0.3,0.3-0.6,0.5-0.9,0.7c-0.3,0.2-0.7,0.3-1.1,0.4
		c-0.4,0.1-0.8,0.1-1.2,0.1c-0.6,0-1.2-0.1-1.8-0.4s-1-0.6-1.4-1s-0.7-0.9-1-1.5c-0.2-0.6-0.3-1.1-0.3-1.8c0-0.6,0.1-1.2,0.4-1.8
		c0.2-0.5,0.6-1,1-1.4s0.9-0.7,1.4-1s1.1-0.4,1.7-0.4c0.6,0,1.1,0.1,1.6,0.3c0.5,0.2,0.9,0.4,1.3,0.8s0.7,0.7,0.9,1.2s0.3,1,0.3,1.5
		c0,0.5-0.1,0.9-0.3,1.3c-0.2,0.4-0.4,0.8-0.7,1.1c-0.3,0.3-0.6,0.6-0.9,0.8c-0.3,0.2-0.7,0.3-1,0.3c-0.2,0-0.4-0.1-0.6-0.1
		c-0.2-0.1-0.3-0.3-0.4-0.5c-0.2,0.2-0.4,0.3-0.7,0.4c-0.3,0.1-0.5,0.2-0.8,0.2s-0.5,0-0.7-0.1c-0.2-0.1-0.4-0.2-0.5-0.4
		s-0.3-0.4-0.3-0.6c-0.1-0.2-0.1-0.4-0.1-0.7c0-0.4,0.1-0.8,0.2-1.2s0.3-0.8,0.6-1.2c0.3-0.4,0.6-0.6,0.9-0.9
		c0.4-0.2,0.8-0.3,1.2-0.3c0.3,0,0.5,0.1,0.8,0.2c0.2,0.1,0.4,0.3,0.6,0.6l0.2-0.6h0.8l-1.2,3.6c0,0.1-0.1,0.3-0.1,0.4s0,0.2,0,0.3
		c0,0.1,0,0.2,0.1,0.2c0.1,0.1,0.1,0.1,0.3,0.1c0.2,0,0.5-0.1,0.7-0.3c0.2-0.2,0.4-0.4,0.6-0.7c0.2-0.3,0.3-0.6,0.4-0.9
		s0.2-0.7,0.2-1c0-0.5-0.1-0.9-0.3-1.3c-0.2-0.4-0.4-0.7-0.7-1c-0.3-0.3-0.7-0.5-1.1-0.6c-0.4-0.1-0.8-0.2-1.3-0.2
		c-0.6,0-1.1,0.1-1.5,0.3s-0.9,0.5-1.2,0.9s-0.6,0.8-0.8,1.3c-0.2,0.5-0.3,1-0.3,1.5c0,0.5,0.1,1.1,0.3,1.5c0.2,0.5,0.5,0.9,0.8,1.2
		c0.3,0.4,0.7,0.6,1.2,0.8s1,0.3,1.5,0.3c0.3,0,0.6,0,0.9-0.1c0.3-0.1,0.6-0.2,0.9-0.3s0.5-0.3,0.8-0.5c0.2-0.2,0.4-0.4,0.6-0.7
		L87.2,123.9L87.2,123.9z M82.4,123.5c0.3,0,0.5-0.1,0.8-0.3c0.2-0.2,0.4-0.5,0.6-0.8c0.2-0.3,0.3-0.7,0.4-1
		c0.1-0.4,0.2-0.7,0.2-0.9c0-0.2-0.1-0.4-0.2-0.6c-0.2-0.2-0.4-0.3-0.6-0.3c-0.3,0-0.6,0.1-0.9,0.3c-0.3,0.2-0.5,0.4-0.7,0.7
		s-0.3,0.6-0.4,0.9s-0.2,0.6-0.2,0.9c0,0.3,0.1,0.5,0.2,0.8C81.8,123.4,82.1,123.5,82.4,123.5z"/>
	<path fill="#BED731" d="M93.6,117.2h0.7v8.6h-0.7v-1.1h0c-0.1,0.2-0.2,0.4-0.4,0.5s-0.3,0.3-0.5,0.4s-0.4,0.2-0.6,0.2
		s-0.4,0.1-0.6,0.1c-0.5,0-0.9-0.1-1.3-0.3s-0.6-0.4-0.9-0.7c-0.2-0.3-0.4-0.6-0.5-1c-0.1-0.4-0.2-0.8-0.2-1.3
		c0-0.4,0.1-0.8,0.2-1.2c0.1-0.4,0.3-0.8,0.5-1.1c0.2-0.3,0.5-0.5,0.9-0.7c0.3-0.2,0.8-0.3,1.2-0.3c0.4,0,0.9,0.1,1.3,0.3
		s0.7,0.5,1,0.9V117.2z M93.6,122.8c0-0.4,0-0.7-0.1-1c-0.1-0.3-0.2-0.6-0.4-0.8s-0.4-0.4-0.7-0.6s-0.6-0.2-0.9-0.2
		c-0.4,0-0.7,0.1-1,0.2c-0.3,0.1-0.5,0.3-0.7,0.6s-0.3,0.6-0.4,0.9s-0.1,0.7-0.1,1.1c0,0.4,0.1,0.7,0.2,1s0.3,0.6,0.4,0.8
		c0.2,0.2,0.4,0.4,0.7,0.5c0.3,0.1,0.5,0.2,0.8,0.2c0.3,0,0.6-0.1,0.9-0.2c0.3-0.1,0.5-0.3,0.7-0.6c0.2-0.2,0.3-0.5,0.4-0.8
		S93.6,123.1,93.6,122.8z"/>
	<path fill="#BED731" d="M96.9,125.9h-0.7v-8.6h0.7v3.4c0.2-0.4,0.6-0.7,1-0.9s0.8-0.3,1.3-0.3c0.5,0,0.9,0.1,1.2,0.3
		c0.3,0.2,0.6,0.4,0.9,0.7c0.2,0.3,0.4,0.6,0.5,1.1c0.1,0.4,0.2,0.8,0.2,1.2c0,0.5-0.1,0.9-0.2,1.3c-0.1,0.4-0.3,0.7-0.5,1
		c-0.2,0.3-0.5,0.5-0.9,0.7c-0.4,0.2-0.8,0.3-1.3,0.3c-0.2,0-0.4,0-0.6-0.1s-0.4-0.1-0.6-0.2s-0.4-0.2-0.5-0.4
		c-0.2-0.2-0.3-0.3-0.4-0.5h0V125.9z M96.9,122.8c0,0.4,0,0.7,0.1,1.1c0.1,0.3,0.2,0.6,0.4,0.8s0.4,0.4,0.7,0.6
		c0.3,0.1,0.6,0.2,0.9,0.2c0.3,0,0.6-0.1,0.8-0.2c0.3-0.1,0.5-0.3,0.7-0.5c0.2-0.2,0.3-0.5,0.4-0.8s0.2-0.6,0.2-1
		c0-0.4,0-0.8-0.1-1.1s-0.2-0.6-0.4-0.9s-0.4-0.5-0.7-0.6c-0.3-0.1-0.6-0.2-1-0.2c-0.3,0-0.6,0.1-0.9,0.2c-0.3,0.1-0.5,0.3-0.7,0.6
		s-0.3,0.5-0.4,0.8C97,122.1,96.9,122.4,96.9,122.8z"/>
	<path fill="#BED731" d="M103,125.9v-0.6l4.1-5h-3.9v-0.6h4.8v0.6l-4.1,5h4.3v0.6H103z"/>
	<path fill="#BED731" d="M111.6,125.9c-0.1,0-0.2,0-0.3,0.1c-0.1,0-0.3,0.1-0.5,0.1c-0.4,0-0.6-0.1-0.8-0.3c-0.2-0.2-0.3-0.5-0.3-1
		v-4.5h-0.9v-0.6h0.9v-1.7h0.7v1.7h1.2v0.6h-1.2v4.3c0,0.2,0,0.3,0,0.4c0,0.1,0,0.2,0.1,0.3c0,0.1,0.1,0.1,0.2,0.2
		c0.1,0,0.2,0,0.4,0c0.1,0,0.2,0,0.3,0s0.2,0,0.3-0.1C111.6,125.3,111.6,125.9,111.6,125.9z"/>
	<path fill="#BED731" d="M113.2,122.9c0,0.3,0,0.7,0.1,1c0.1,0.3,0.2,0.6,0.4,0.8c0.2,0.2,0.4,0.4,0.7,0.5c0.3,0.1,0.6,0.2,0.9,0.2
		c0.5,0,0.9-0.1,1.2-0.4s0.6-0.6,0.7-1.1h0.8c-0.1,0.3-0.2,0.6-0.3,0.8s-0.3,0.5-0.5,0.7s-0.5,0.3-0.8,0.4c-0.3,0.1-0.6,0.2-1,0.2
		c-0.5,0-0.9-0.1-1.3-0.3c-0.4-0.2-0.7-0.4-0.9-0.7c-0.2-0.3-0.4-0.6-0.5-1c-0.1-0.4-0.2-0.8-0.2-1.3s0.1-0.9,0.2-1.3
		c0.1-0.4,0.3-0.8,0.6-1.1s0.5-0.5,0.9-0.7s0.8-0.3,1.2-0.3c0.9,0,1.5,0.3,2,0.9c0.5,0.6,0.7,1.4,0.7,2.6H113.2z M117.3,122.3
		c0-0.3,0-0.6-0.1-0.9c-0.1-0.3-0.2-0.5-0.4-0.7s-0.4-0.4-0.6-0.5c-0.2-0.1-0.5-0.2-0.9-0.2s-0.6,0.1-0.8,0.2s-0.5,0.3-0.6,0.5
		c-0.2,0.2-0.3,0.4-0.4,0.7c-0.1,0.3-0.2,0.5-0.2,0.8L117.3,122.3L117.3,122.3z"/>
	<path fill="#BED731" d="M123.9,121.6c-0.1-0.5-0.3-0.8-0.7-1.1s-0.7-0.4-1.2-0.4c-0.4,0-0.7,0.1-0.9,0.2c-0.3,0.2-0.5,0.4-0.6,0.6
		c-0.2,0.3-0.3,0.5-0.4,0.9c-0.1,0.3-0.1,0.6-0.1,1c0,0.3,0,0.6,0.1,1c0.1,0.3,0.2,0.6,0.4,0.8s0.4,0.4,0.6,0.6s0.6,0.2,1,0.2
		c0.5,0,1-0.1,1.3-0.4s0.5-0.7,0.6-1.2h0.8c-0.1,0.3-0.2,0.7-0.3,0.9c-0.1,0.3-0.3,0.5-0.5,0.7s-0.5,0.4-0.8,0.5s-0.7,0.2-1,0.2
		c-0.5,0-0.9-0.1-1.3-0.3c-0.4-0.2-0.7-0.4-0.9-0.7c-0.2-0.3-0.4-0.6-0.5-1c-0.1-0.4-0.2-0.8-0.2-1.3c0-0.4,0.1-0.8,0.2-1.2
		c0.1-0.4,0.3-0.7,0.5-1.1c0.2-0.3,0.5-0.5,0.9-0.7c0.4-0.2,0.8-0.3,1.2-0.3c0.7,0,1.3,0.2,1.7,0.5s0.7,0.9,0.8,1.6
		C124.6,121.6,123.9,121.6,123.9,121.6z"/>
	<path fill="#BED731" d="M126.1,125.9v-8.6h0.7v3.3c0.3-0.3,0.6-0.6,0.9-0.7c0.3-0.2,0.7-0.3,1.1-0.3c0.4,0,0.7,0.1,1.1,0.2
		c0.3,0.1,0.6,0.4,0.8,0.7c0.2,0.2,0.2,0.5,0.3,0.7c0,0.2,0,0.5,0,0.7v4.1h-0.7v-4.1c0-0.6-0.1-1-0.4-1.3c-0.2-0.3-0.7-0.4-1.2-0.4
		c-0.2,0-0.4,0-0.6,0.1c-0.2,0.1-0.4,0.2-0.5,0.3c-0.1,0.1-0.3,0.2-0.4,0.4c-0.1,0.1-0.2,0.3-0.2,0.5c-0.1,0.2-0.1,0.4-0.1,0.6
		c0,0.2,0,0.4,0,0.6v3.3L126.1,125.9L126.1,125.9z"/>
	<path fill="#BED731" d="M133.2,125.9v-1.1h0.9v1.1H133.2z"/>
	<path fill="#BED731" d="M140.5,121.6c-0.1-0.5-0.3-0.8-0.7-1.1c-0.3-0.3-0.7-0.4-1.2-0.4c-0.4,0-0.7,0.1-0.9,0.2
		c-0.3,0.2-0.5,0.4-0.6,0.6s-0.3,0.5-0.4,0.9s-0.1,0.6-0.1,1c0,0.3,0,0.6,0.1,1c0.1,0.3,0.2,0.6,0.4,0.8c0.2,0.2,0.4,0.4,0.6,0.6
		c0.3,0.1,0.6,0.2,1,0.2c0.5,0,1-0.1,1.3-0.4s0.5-0.7,0.6-1.2h0.8c-0.1,0.3-0.2,0.7-0.3,0.9s-0.3,0.5-0.5,0.7s-0.5,0.4-0.8,0.5
		s-0.7,0.2-1,0.2c-0.5,0-0.9-0.1-1.3-0.3c-0.4-0.2-0.7-0.4-0.9-0.7c-0.2-0.3-0.4-0.6-0.5-1c-0.1-0.4-0.2-0.8-0.2-1.3
		c0-0.4,0.1-0.8,0.2-1.2c0.1-0.4,0.3-0.7,0.5-1.1c0.2-0.3,0.5-0.5,0.9-0.7c0.4-0.2,0.8-0.3,1.2-0.3c0.7,0,1.3,0.2,1.7,0.5
		s0.7,0.9,0.8,1.6C141.3,121.6,140.5,121.6,140.5,121.6z"/>
	<path fill="#BED731" d="M145.3,126.1c-0.4,0-0.8-0.1-1.1-0.2s-0.7-0.3-0.9-0.6c-0.3-0.3-0.5-0.6-0.6-1c-0.2-0.4-0.2-0.9-0.2-1.4
		c0-0.5,0.1-0.9,0.2-1.3c0.1-0.4,0.3-0.7,0.5-1s0.5-0.5,0.9-0.7c0.4-0.2,0.8-0.3,1.3-0.3c0.5,0,0.9,0.1,1.3,0.3
		c0.4,0.2,0.7,0.4,0.9,0.7s0.4,0.6,0.5,1c0.1,0.4,0.2,0.8,0.2,1.3c0,0.5-0.1,0.9-0.2,1.3c-0.1,0.4-0.3,0.7-0.6,1
		c-0.3,0.3-0.6,0.5-0.9,0.7C146.1,126,145.7,126.1,145.3,126.1z M147.4,122.8c0-0.4,0-0.7-0.1-1c-0.1-0.3-0.2-0.6-0.4-0.8
		c-0.2-0.2-0.4-0.4-0.6-0.6c-0.3-0.1-0.6-0.2-1-0.2c-0.4,0-0.7,0.1-1,0.2c-0.3,0.1-0.5,0.3-0.7,0.6s-0.3,0.5-0.4,0.8s-0.1,0.6-0.1,1
		c0,0.4,0,0.7,0.1,1.1c0.1,0.3,0.2,0.6,0.4,0.8s0.4,0.4,0.7,0.5c0.3,0.1,0.6,0.2,0.9,0.2c0.4,0,0.7-0.1,1-0.2
		c0.3-0.1,0.5-0.3,0.7-0.6s0.3-0.5,0.4-0.8C147.4,123.4,147.4,123.1,147.4,122.8z"/>
	<path fill="#BED731" d="M150.1,125.9h-0.7v-6.2h0.7v0.9h0c0.2-0.4,0.4-0.6,0.8-0.8c0.3-0.2,0.7-0.3,1.1-0.3c0.3,0,0.5,0,0.7,0.1
		s0.4,0.2,0.5,0.3s0.3,0.2,0.3,0.4c0.1,0.1,0.2,0.3,0.2,0.5c0.2-0.4,0.5-0.7,0.8-0.9c0.3-0.2,0.7-0.3,1.2-0.3c0.4,0,0.8,0.1,1,0.2
		s0.4,0.3,0.6,0.6c0.1,0.2,0.2,0.5,0.3,0.8c0,0.3,0.1,0.6,0.1,0.9v3.9h-0.7v-4.3c0-0.4-0.1-0.8-0.3-1.1c-0.2-0.3-0.5-0.4-1.1-0.4
		c-0.3,0-0.5,0.1-0.8,0.2c-0.2,0.1-0.5,0.3-0.6,0.5c-0.1,0.1-0.1,0.2-0.2,0.4c-0.1,0.1-0.1,0.3-0.1,0.4c0,0.2-0.1,0.3-0.1,0.5
		c0,0.2,0,0.3,0,0.4v3.3h-0.7v-4.3c0-0.4-0.1-0.8-0.3-1.1c-0.2-0.3-0.5-0.4-1.1-0.4c-0.3,0-0.5,0.1-0.8,0.2
		c-0.2,0.1-0.5,0.3-0.6,0.5c-0.1,0.1-0.1,0.2-0.2,0.4c-0.1,0.1-0.1,0.3-0.1,0.4c0,0.2-0.1,0.3-0.1,0.5c0,0.2,0,0.3,0,0.4
		L150.1,125.9L150.1,125.9z"/>
</g>
<g>
	<g>
		<path fill="#BED731" d="M160.4,14c11.3,0,17,8.6,17,17.3s-5.7,17.2-17,17.2H148V14H160.4z M160.4,43.5c8,0,12-6.1,12-12.2
			c0-6.1-4-12.3-12-12.3H153v24.5H160.4z"/>
		<path fill="#BED731" d="M194.4,14c4.3,0,7.1,2.5,8.4,5.7c1.4,3.4,0.9,7.4-2.5,9.8c3.9,1.7,5.4,5.3,5.4,8.6c0,5.2-3.4,10.4-10,10.4
			h-15.6V14H194.4z M185,27.7h9.3c5.4,0,5.5-9,0.1-9H185L185,27.7L185,27.7z M185,43.6h10.7c3.4,0,5-2.8,5-5.5c0-2.7-1.7-5.5-5-5.5
			H185V43.6z"/>
		<path fill="#BED731" d="M207.4,14h23.4l1.7,3.2L213,44h19.2v4.4H208l-2-2.8l19.9-27.2h-18.5V14z"/>
	</g>
	<g>
		<path fill="#BED731" d="M147.3,51.3h7.5v2.2h-2.6v13.3h-2.4V53.5h-2.6L147.3,51.3L147.3,51.3z"/>
		<path fill="#BED731" d="M158.4,57.8h3.3V60h-3.3v4.5h4.2v2.2H156V51.3h6.7v2.2h-4.2V57.8z"/>
		<path fill="#BED731" d="M171.2,61v2.1c0,2.5-1.2,3.9-3.6,3.9s-3.6-1.4-3.6-3.9V55c0-2.5,1.2-3.9,3.6-3.9s3.6,1.4,3.6,3.9v1.5h-2.3
			v-1.7c0-1.1-0.5-1.5-1.3-1.5c-0.8,0-1.3,0.4-1.3,1.5v8.4c0,1.1,0.5,1.5,1.3,1.5c0.8,0,1.3-0.4,1.3-1.5V61L171.2,61L171.2,61z"/>
		<path fill="#BED731" d="M175.1,66.8h-2.4V51.3h2.4v6.7h2.8v-6.7h2.5v15.5h-2.5v-6.7h-2.8V66.8z"/>
		<path fill="#BED731" d="M184.3,55.5v11.2h-2.2V51.3h3.1l2.5,9.3v-9.3h2.2v15.5h-2.5L184.3,55.5z"/>
		<path fill="#BED731" d="M191.4,55c0-2.5,1.3-3.9,3.7-3.9s3.7,1.4,3.7,3.9v8.1c0,2.5-1.3,3.9-3.7,3.9c-2.4,0-3.7-1.4-3.7-3.9V55z
			 M193.9,63.2c0,1.1,0.5,1.5,1.3,1.5c0.8,0,1.3-0.4,1.3-1.5v-8.4c0-1.1-0.5-1.5-1.3-1.5c-0.8,0-1.3,0.4-1.3,1.5V63.2z"/>
		<path fill="#BED731" d="M200.4,51.3h2.4v13.3h4v2.2h-6.5L200.4,51.3L200.4,51.3z"/>
		<path fill="#BED731" d="M207.7,55c0-2.5,1.3-3.9,3.7-3.9s3.7,1.4,3.7,3.9v8.1c0,2.5-1.3,3.9-3.7,3.9c-2.4,0-3.7-1.4-3.7-3.9V55z
			 M210.2,63.2c0,1.1,0.5,1.5,1.3,1.5s1.3-0.4,1.3-1.5v-8.4c0-1.1-0.5-1.5-1.3-1.5s-1.3,0.4-1.3,1.5V63.2z"/>
		<path fill="#BED731" d="M220.4,58.1h3.4v4.9c0,2.5-1.2,3.9-3.6,3.9s-3.6-1.4-3.6-3.9V55c0-2.5,1.2-3.9,3.6-3.9s3.6,1.4,3.6,3.9
			v1.5h-2.3v-1.7c0-1.1-0.5-1.5-1.3-1.5s-1.3,0.4-1.3,1.5v8.4c0,1.1,0.5,1.5,1.3,1.5s1.3-0.4,1.3-1.5v-2.9h-1.1V58.1z"/>
		<path fill="#BED731" d="M227.3,61.6l-3.1-10.4h2.6l1.9,7.1l1.9-7.1h2.3l-3.1,10.4v5.1h-2.4L227.3,61.6L227.3,61.6z"/>
	</g>
</g>
<g>
	<rect x="18.4" y="26.4" fill="#BED731" width="2.2" height="2.2"/>
	<path fill="#BED731" d="M22.8,24.2H25h2.2h2.2h2.2h2.2v-2.2v-2.2v-2.2v-2.2v-2.2v-2.2V8.9h-2.2h-2.2h-2.2H25h-2.2h-2.2h-2.2v2.2
		v2.2v2.2v2.2v2.2v2.2v2.2h2.2L22.8,24.2L22.8,24.2z M20.6,19.9v-2.2v-2.2v-2.2v-2.2h2.2H25h2.2h2.2h2.2v2.2v2.2v2.2v2.2v2.2h-2.2
		h-2.2H25h-2.2h-2.2C20.6,22.1,20.6,19.9,20.6,19.9z"/>
	<polygon fill="#BED731" points="20.6,33 18.4,33 18.4,35.2 20.6,35.2 22.8,35.2 22.8,33 	"/>
	<polygon fill="#BED731" points="20.6,41.8 20.6,43.9 20.6,46.1 22.8,46.1 25,46.1 27.2,46.1 27.2,43.9 25,43.9 22.8,43.9 
		22.8,41.8 22.8,39.6 20.6,39.6 	"/>
	<polygon fill="#BED731" points="27.2,19.9 29.4,19.9 29.4,17.7 29.4,15.5 29.4,13.3 27.2,13.3 25,13.3 22.8,13.3 22.8,15.5 
		22.8,17.7 22.8,19.9 25,19.9 	"/>
	<polygon fill="#BED731" points="27.2,28.6 29.4,28.6 29.4,30.8 29.4,33 31.6,33 33.8,33 33.8,35.2 35.9,35.2 35.9,37.4 33.8,37.4 
		33.8,39.6 35.9,39.6 35.9,41.8 38.1,41.8 38.1,39.6 38.1,37.4 40.3,37.4 40.3,35.2 42.5,35.2 44.7,35.2 46.9,35.2 46.9,33 44.7,33 
		42.5,33 40.3,33 40.3,30.8 38.1,30.8 35.9,30.8 35.9,28.6 33.8,28.6 33.8,30.8 31.6,30.8 31.6,28.6 33.8,28.6 33.8,26.4 31.6,26.4 
		29.4,26.4 27.2,26.4 25,26.4 22.8,26.4 22.8,28.6 20.6,28.6 20.6,30.8 22.8,30.8 25,30.8 25,28.6 	"/>
	<polygon fill="#BED731" points="25,52.7 22.8,52.7 22.8,54.9 22.8,57.1 22.8,59.3 25,59.3 27.2,59.3 29.4,59.3 29.4,57.1 
		29.4,54.9 29.4,52.7 27.2,52.7 	"/>
	<path fill="#BED731" d="M29.4,48.3h-2.2H25h-2.2h-2.2h-2.2v2.2v2.2v2.2v2.2v2.2v2.2v2.2h2.2h2.2H25h2.2h2.2h2.2h2.2v-2.2v-2.2v-2.2
		v-2.2v-2.2v-2.2v-2.2h-2.2L29.4,48.3L29.4,48.3z M31.6,52.7v2.2v2.2v2.2v2.2h-2.2h-2.2H25h-2.2h-2.2v-2.2v-2.2v-2.2v-2.2v-2.2h2.2
		H25h2.2h2.2h2.2L31.6,52.7L31.6,52.7z"/>
	<polygon fill="#BED731" points="33.8,41.8 33.8,39.6 31.6,39.6 31.6,37.4 33.8,37.4 33.8,35.2 31.6,35.2 29.4,35.2 27.2,35.2 
		27.2,33 27.2,30.8 25,30.8 25,33 25,35.2 22.8,35.2 22.8,37.4 22.8,39.6 25,39.6 25,41.8 27.2,41.8 29.4,41.8 29.4,43.9 31.6,43.9 
		31.6,41.8 	"/>
	<polygon fill="#BED731" points="40.3,46.1 42.5,46.1 42.5,43.9 40.3,43.9 38.1,43.9 35.9,43.9 35.9,41.8 33.8,41.8 33.8,43.9 
		31.6,43.9 31.6,46.1 33.8,46.1 35.9,46.1 35.9,48.3 38.1,48.3 38.1,46.1 	"/>
	<rect x="40.3" y="39.6" fill="#BED731" width="2.2" height="2.2"/>
	<rect x="42.5" y="8.9" fill="#BED731" width="2.2" height="2.2"/>
	<polygon fill="#BED731" points="44.7,30.8 46.9,30.8 46.9,28.6 44.7,28.6 42.5,28.6 40.3,28.6 40.3,30.8 42.5,30.8 	"/>
	<path fill="#BED731" d="M44.7,50.5h2.2v-2.2h-2.2h-2.2h-2.2h-2.2v2.2h-2.2v2.2v2.2v2.2v2.2h2.2v2.2h-2.2v2.2h2.2h2.2v-2.2h2.2v-2.2
		h-2.2v-2.2h2.2v-2.2h2.2v-2.2C44.7,52.7,44.7,50.5,44.7,50.5z M40.3,52.7v-2.2h2.2v2.2H40.3z"/>
	<polygon fill="#BED731" points="46.9,13.3 46.9,11.1 44.7,11.1 44.7,13.3 44.7,15.5 42.5,15.5 40.3,15.5 40.3,17.7 38.1,17.7 
		38.1,15.5 40.3,15.5 40.3,13.3 40.3,11.1 40.3,8.9 38.1,8.9 38.1,11.1 38.1,13.3 35.9,13.3 35.9,15.5 35.9,17.7 35.9,19.9 
		35.9,22.1 35.9,24.2 35.9,26.4 38.1,26.4 40.3,26.4 42.5,26.4 42.5,24.2 42.5,22.1 40.3,22.1 40.3,24.2 38.1,24.2 38.1,22.1 
		40.3,22.1 40.3,19.9 42.5,19.9 42.5,17.7 44.7,17.7 46.9,17.7 46.9,15.5 	"/>
	<rect x="44.7" y="22.1" fill="#BED731" width="2.2" height="2.2"/>
	<rect x="46.9" y="8.9" fill="#BED731" width="2.2" height="2.2"/>
	<rect x="46.9" y="24.2" fill="#BED731" width="2.2" height="2.2"/>
	<polygon fill="#BED731" points="49.1,15.5 51.3,15.5 51.3,13.3 53.5,13.3 53.5,15.5 55.6,15.5 55.6,13.3 55.6,11.1 55.6,8.9 
		53.5,8.9 53.5,11.1 51.3,11.1 49.1,11.1 49.1,13.3 	"/>
	<polygon fill="#BED731" points="49.1,24.2 51.3,24.2 51.3,22.1 53.5,22.1 53.5,24.2 55.6,24.2 55.6,22.1 55.6,19.9 55.6,17.7 
		53.5,17.7 53.5,19.9 51.3,19.9 49.1,19.9 49.1,17.7 46.9,17.7 46.9,19.9 46.9,22.1 49.1,22.1 	"/>
	<rect x="49.1" y="33" fill="#BED731" width="2.2" height="2.2"/>
	<polygon fill="#BED731" points="51.3,41.8 51.3,43.9 53.5,43.9 53.5,41.8 53.5,39.6 51.3,39.6 51.3,37.4 49.1,37.4 46.9,37.4 
		44.7,37.4 44.7,39.6 46.9,39.6 46.9,41.8 44.7,41.8 44.7,43.9 44.7,46.1 46.9,46.1 46.9,43.9 49.1,43.9 49.1,41.8 	"/>
	<rect x="49.1" y="43.9" fill="#BED731" width="2.2" height="2.2"/>
	<rect x="49.1" y="50.5" fill="#BED731" width="2.2" height="2.2"/>
	<rect x="49.1" y="61.5" fill="#BED731" width="2.2" height="2.2"/>
	<polygon fill="#BED731" points="51.3,26.4 49.1,26.4 49.1,28.6 51.3,28.6 53.5,28.6 53.5,26.4 	"/>
	<rect x="51.3" y="30.8" fill="#BED731" width="2.2" height="2.2"/>
	<rect x="53.5" y="33" fill="#BED731" width="2.2" height="2.2"/>
	<polygon fill="#BED731" points="57.8,30.8 57.8,28.6 55.6,28.6 53.5,28.6 53.5,30.8 55.6,30.8 	"/>
	<rect x="57.8" y="48.3" fill="#BED731" width="2.2" height="2.2"/>
	<polygon fill="#BED731" points="60,30.8 62.2,30.8 62.2,28.6 64.4,28.6 66.6,28.6 68.8,28.6 68.8,26.4 66.6,26.4 64.4,26.4 
		62.2,26.4 60,26.4 57.8,26.4 57.8,28.6 60,28.6 	"/>
	<rect x="60" y="37.4" fill="#BED731" width="2.2" height="2.2"/>
	<polygon fill="#BED731" points="64.4,33 66.6,33 66.6,30.8 64.4,30.8 62.2,30.8 62.2,33 	"/>
	<rect x="62.2" y="35.2" fill="#BED731" width="2.2" height="2.2"/>
	<polygon fill="#BED731" points="64.4,13.3 62.2,13.3 62.2,15.5 62.2,17.7 62.2,19.9 64.4,19.9 66.6,19.9 68.8,19.9 68.8,17.7 
		68.8,15.5 68.8,13.3 66.6,13.3 	"/>
	<polygon fill="#BED731" points="64.4,39.6 64.4,41.8 64.4,43.9 66.6,43.9 66.6,41.8 66.6,39.6 66.6,37.4 64.4,37.4 	"/>
	<path fill="#BED731" d="M64.4,46.1v-2.2h-2.2v-2.2H60v-2.2h-2.2v-2.2H60v-2.2h-2.2h-2.2v2.2v2.2v2.2h2.2v2.2h-2.2h-2.2v2.2h-2.2
		v2.2h2.2v2.2v2.2h-2.2v2.2h2.2v2.2h2.2h2.2H60v-2.2h2.2v2.2h2.2v-2.2h2.2v2.2v2.2h2.2v-2.2H71v2.2v2.2h-2.2h-2.2v-2.2h-2.2h-2.2
		v-2.2H60v2.2h-2.2h-2.2h-2.2v-2.2h-2.2v-2.2h-2.2h-2.2h-2.2v2.2h2.2v2.2h-2.2v2.2v2.2h2.2v-2.2h2.2v-2.2h2.2v2.2h2.2h2.2v2.2h2.2
		H60h2.2h2.2h2.2h2.2H71h2.2v-2.2v-2.2v-2.2v-2.2v-2.2H71v2.2h-2.2v-2.2h-2.2v-2.2h2.2H71h2.2v-2.2H71h-2.2v-2.2v-2.2h-2.2v2.2
		L64.4,46.1L64.4,46.1z M60,52.7h-2.2h-2.2v-2.2v-2.2v-2.2h2.2H60h2.2v2.2v2.2v2.2H60z"/>
	<polygon fill="#BED731" points="71,28.6 68.8,28.6 68.8,30.8 68.8,33 71,33 71,35.2 68.8,35.2 66.6,35.2 66.6,37.4 68.8,37.4 
		68.8,39.6 68.8,41.8 71,41.8 71,43.9 73.2,43.9 73.2,41.8 73.2,39.6 71,39.6 71,37.4 73.2,37.4 73.2,35.2 73.2,33 73.2,30.8 
		71,30.8 	"/>
	<path fill="#BED731" d="M71,8.9h-2.2h-2.2h-2.2h-2.2H60h-2.2v2.2v2.2v2.2v2.2v2.2v2.2v2.2H60h2.2h2.2h2.2h2.2H71h2.2v-2.2v-2.2
		v-2.2v-2.2v-2.2v-2.2V8.9H71z M71,13.3v2.2v2.2v2.2v2.2h-2.2h-2.2h-2.2h-2.2H60v-2.2v-2.2v-2.2v-2.2v-2.2h2.2h2.2h2.2h2.2H71
		L71,13.3L71,13.3z"/>
</g>
</svg>
