<?xml version="1.0" encoding="utf-8"?>
<!-- Generator: Adobe Illustrator 17.0.2, SVG Export Plug-In . SVG Version: 6.00 Build 0)  -->
<!DOCTYPE svg PUBLIC "-//W3C//DTD SVG 1.1//EN" "http://www.w3.org/Graphics/SVG/1.1/DTD/svg11.dtd">
<svg version="1.1" id="Layer_1" xmlns="http://www.w3.org/2000/svg" xmlns:xlink="http://www.w3.org/1999/xlink" x="0px" y="0px"
	 width="252px" height="144px" viewBox="0 0 252 144" enable-background="new 0 0 252 144" xml:space="preserve">
<rect y="-164" fill="#BED731" width="252" height="144"/>
<g>
	<g>
		<path d="M90.198-150.251c13.74,0,20.64,10.5,20.64,21s-6.9,20.939-20.64,20.939H75.139v-41.938H90.198z M90.198-114.372
			c9.72,0,14.64-7.44,14.64-14.879c0-7.44-4.92-14.939-14.64-14.939h-9v29.819H90.198z"/>
		<path d="M131.592-150.251c5.28,0,8.64,3,10.2,6.9c1.68,4.14,1.14,8.939-3.061,11.939c4.8,2.04,6.54,6.48,6.54,10.439
			c0,6.3-4.14,12.66-12.18,12.66h-18.959v-41.938H131.592z M120.132-133.571h11.339c6.601,0,6.72-10.92,0.12-10.92h-11.459V-133.571
			z M120.132-114.192h12.959c4.08,0,6.12-3.42,6.12-6.72s-2.04-6.66-6.12-6.66h-12.959V-114.192z"/>
		<path d="M147.428-150.251h28.439l2.04,3.84l-23.76,32.699h23.399v5.4h-29.459l-2.46-3.36l24.239-33.059h-22.439V-150.251z"/>
	</g>
	<g>
		<path d="M74.335-104.898h9.172v2.698h-3.103v16.187h-2.967V-102.2h-3.103V-104.898z"/>
		<path d="M87.77-96.939h4.074v2.698H87.77v5.53h5.126v2.698h-8.093v-18.884h8.093v2.698H87.77V-96.939z"/>
		<path d="M103.337-93.055v2.509c0,3.021-1.511,4.748-4.424,4.748s-4.424-1.727-4.424-4.748v-9.82c0-3.021,1.511-4.748,4.424-4.748
			s4.424,1.727,4.424,4.748v1.834h-2.806v-2.023c0-1.349-0.594-1.861-1.538-1.861c-0.944,0-1.538,0.513-1.538,1.861v10.198
			c0,1.349,0.594,1.834,1.538,1.834c0.944,0,1.538-0.486,1.538-1.834v-2.698H103.337z"/>
		<path d="M108.113-86.014h-2.967v-18.884h2.967v8.093h3.373v-8.093h3.021v18.884h-3.021v-8.093h-3.373V-86.014z"/>
		<path d="M119.31-99.691v13.678h-2.671v-18.884h3.723l3.049,11.304v-11.304h2.644v18.884h-3.048L119.31-99.691z"/>
		<path d="M127.943-100.366c0-3.021,1.592-4.748,4.506-4.748c2.913,0,4.505,1.727,4.505,4.748v9.82c0,3.021-1.592,4.748-4.505,4.748
			c-2.914,0-4.506-1.727-4.506-4.748V-100.366z M130.911-90.357c0,1.349,0.594,1.861,1.538,1.861s1.537-0.513,1.537-1.861v-10.198
			c0-1.349-0.593-1.861-1.537-1.861s-1.538,0.513-1.538,1.861V-90.357z"/>
		<path d="M138.871-104.898h2.968v16.187h4.883v2.698h-7.851V-104.898z"/>
		<path d="M147.773-100.366c0-3.021,1.592-4.748,4.506-4.748c2.913,0,4.505,1.727,4.505,4.748v9.82c0,3.021-1.592,4.748-4.505,4.748
			c-2.914,0-4.506-1.727-4.506-4.748V-100.366z M150.741-90.357c0,1.349,0.594,1.861,1.538,1.861s1.537-0.513,1.537-1.861v-10.198
			c0-1.349-0.593-1.861-1.537-1.861s-1.538,0.513-1.538,1.861V-90.357z"/>
		<path d="M163.152-96.535h4.154v5.989c0,3.021-1.511,4.748-4.424,4.748c-2.914,0-4.425-1.727-4.425-4.748v-9.82
			c0-3.021,1.511-4.748,4.425-4.748c2.913,0,4.424,1.727,4.424,4.748v1.834h-2.806v-2.023c0-1.349-0.593-1.861-1.537-1.861
			s-1.538,0.513-1.538,1.861v10.198c0,1.349,0.594,1.834,1.538,1.834s1.537-0.486,1.537-1.834v-3.48h-1.349V-96.535z"/>
		<path d="M171.597-92.272l-3.75-12.625h3.103l2.267,8.606l2.266-8.606h2.833l-3.75,12.625v6.259h-2.968V-92.272z"/>
	</g>
</g>
<g>
	<polygon points="74.406,-54.186 125.662,-31.985 176.915,-54.185 176.915,-73.019 125.662,-50.82 74.406,-73.019 	"/>
</g>
<rect width="252" height="144"/>
<g>
	<path fill="#BED731" d="M21.978,74.298c1.055,0,1.727,0.6,2.039,1.38c0.336,0.827,0.228,1.787-0.611,2.387
		c0.959,0.407,1.307,1.295,1.307,2.087c0,1.259-0.828,2.53-2.435,2.53h-3.79v-8.384H21.978z M19.687,77.633h2.267
		c1.319,0,1.343-2.184,0.024-2.184h-2.291V77.633z M19.687,81.506h2.591c0.815,0,1.223-0.684,1.223-1.343
		c0-0.66-0.408-1.331-1.223-1.331h-2.591V81.506z"/>
	<path fill="#BED731" d="M26.982,78.424h1.415c1.02,0,1.523-0.731,1.523-1.463c0-0.72-0.503-1.451-1.523-1.451h-1.859v7.172h-1.199
		v-8.396h3.058c1.823,0,2.734,1.344,2.734,2.675c0,1.188-0.731,2.314-2.171,2.566l2.651,3.154h-1.571L26.982,79V78.424z"/>
	<path fill="#BED731" d="M33.006,81.471h3.898v1.211h-5.121v-8.384h5.109v1.212h-3.886v2.362h3.802v1.224h-3.802V81.471z"/>
	<path fill="#BED731" d="M37.447,82.682v-8.407l0.936,0.012l4.09,5.913v-5.913h1.199v8.396h-0.959l-4.054-5.865v5.865H37.447z"/>
	<path fill="#BED731" d="M47.897,74.298c2.747,0,4.125,2.1,4.125,4.198s-1.379,4.186-4.125,4.186h-3.01v-8.384H47.897z
		 M47.897,81.471c1.943,0,2.926-1.487,2.926-2.975s-0.983-2.986-2.926-2.986h-1.799v5.961H47.897z"/>
	<path fill="#BED731" d="M57.052,80.211h-3.011c-0.324,0.768-0.744,1.775-1.007,2.471h-1.307l3.37-8.503h0.887l3.371,8.503H58.06
		L57.052,80.211z M54.498,79.071h2.087l-1.032-2.962L54.498,79.071z"/>
	<path fill="#BED731" d="M59.743,82.682v-8.407l0.936,0.012l4.09,5.913v-5.913h1.199v8.396h-0.959l-4.054-5.865v5.865H59.743z"/>
	<path fill="#BED731" d="M74.513,74.298c1.055,0,1.727,0.6,2.039,1.38c0.336,0.827,0.228,1.787-0.611,2.387
		c0.959,0.407,1.307,1.295,1.307,2.087c0,1.259-0.828,2.53-2.435,2.53h-3.79v-8.384H74.513z M72.222,77.633h2.267
		c1.319,0,1.343-2.184,0.024-2.184h-2.291V77.633z M72.222,81.506h2.591c0.815,0,1.223-0.684,1.223-1.343
		c0-0.66-0.408-1.331-1.223-1.331h-2.591V81.506z"/>
	<path fill="#BED731" d="M78.894,75.449c0.768-0.779,1.847-1.271,3.022-1.271c1.188,0,2.255,0.491,3.034,1.271
		c0.756,0.78,1.248,1.848,1.248,3.035c0,1.187-0.492,2.254-1.248,3.034c-0.779,0.791-1.847,1.271-3.034,1.271
		c-1.175,0-2.255-0.48-3.022-1.271c-0.755-0.78-1.247-1.848-1.247-3.034C77.646,77.297,78.138,76.229,78.894,75.449z M84.087,76.313
		c-0.563-0.564-1.343-0.912-2.171-0.912s-1.595,0.348-2.147,0.912c-0.551,0.552-0.899,1.319-0.899,2.171s0.348,1.619,0.899,2.17
		c0.552,0.564,1.319,0.912,2.147,0.912s1.607-0.348,2.171-0.912c0.54-0.551,0.888-1.307,0.888-2.17
		C84.975,77.62,84.626,76.865,84.087,76.313z"/>
	<path fill="#BED731" d="M87.462,74.298l2.291,3.683l2.291-3.683h1.439l-3.118,4.966v3.418h-1.223v-3.418l-3.106-4.966H87.462z"/>
	<path fill="#BED731" d="M94.902,81.471h3.946v1.211H93.69v-8.384h1.211V81.471z"/>
	<path fill="#BED731" d="M100.542,81.471h3.898v1.211h-5.121v-8.384h5.109v1.212h-3.886v2.362h3.802v1.224h-3.802V81.471z"/>
	<path fill="#BED731" d="M19.651,97.082h-1.211v-8.384h5.001v1.212h-3.79v2.362h3.358v1.224h-3.358V97.082z"/>
	<path fill="#BED731" d="M24.906,89.85c0.768-0.779,1.847-1.271,3.022-1.271c1.188,0,2.255,0.491,3.034,1.271
		c0.756,0.78,1.248,1.848,1.248,3.035c0,1.187-0.492,2.254-1.248,3.034c-0.779,0.791-1.847,1.271-3.034,1.271
		c-1.175,0-2.255-0.48-3.022-1.271c-0.755-0.78-1.247-1.848-1.247-3.034C23.659,91.697,24.151,90.63,24.906,89.85z M30.1,90.714
		c-0.563-0.564-1.343-0.912-2.171-0.912s-1.595,0.348-2.147,0.912c-0.551,0.552-0.899,1.319-0.899,2.171s0.348,1.619,0.899,2.17
		c0.552,0.564,1.319,0.912,2.147,0.912s1.607-0.348,2.171-0.912c0.54-0.551,0.888-1.307,0.888-2.17
		C30.987,92.021,30.639,91.266,30.1,90.714z"/>
	<path fill="#BED731" d="M33.127,94.563v-5.865h1.224v5.877c0,0.924,0.995,1.38,1.883,1.38c0.875,0,1.871-0.468,1.871-1.392v-5.865
		h1.223v5.877c0,1.703-1.655,2.591-3.094,2.591C34.758,97.166,33.127,96.278,33.127,94.563z"/>
	<path fill="#BED731" d="M40.423,97.082v-8.407l0.936,0.012l4.09,5.913v-5.913h1.199v8.396h-0.959l-4.054-5.865v5.865H40.423z"/>
	<path fill="#BED731" d="M50.873,88.698c2.747,0,4.125,2.1,4.125,4.198s-1.379,4.186-4.125,4.186h-3.01v-8.384H50.873z
		 M50.873,95.871c1.943,0,2.926-1.487,2.926-2.975s-0.983-2.986-2.926-2.986h-1.799v5.961H50.873z"/>
	<path fill="#BED731" d="M56.838,95.871h3.898v1.211h-5.121v-8.384h5.109v1.212h-3.886v2.362h3.802v1.224h-3.802V95.871z"/>
	<path fill="#BED731" d="M62.934,92.824h1.415c1.02,0,1.523-0.731,1.523-1.463c0-0.72-0.503-1.451-1.523-1.451H62.49v7.172h-1.199
		v-8.396h3.058c1.823,0,2.734,1.344,2.734,2.675c0,1.188-0.731,2.314-2.171,2.566l2.651,3.154h-1.571L62.934,93.4V92.824z"/>
	<path fill="#BED731" d="M72.905,89.85c0.768-0.779,1.847-1.271,3.022-1.271c1.188,0,2.255,0.491,3.034,1.271
		c0.756,0.78,1.248,1.848,1.248,3.035c0,1.187-0.492,2.254-1.248,3.034c-0.779,0.791-1.847,1.271-3.034,1.271
		c-1.175,0-2.255-0.48-3.022-1.271c-0.755-0.78-1.247-1.848-1.247-3.034C71.658,91.697,72.15,90.63,72.905,89.85z M78.099,90.714
		c-0.563-0.564-1.343-0.912-2.171-0.912s-1.595,0.348-2.147,0.912c-0.551,0.552-0.899,1.319-0.899,2.171s0.348,1.619,0.899,2.17
		c0.552,0.564,1.319,0.912,2.147,0.912s1.607-0.348,2.171-0.912c0.54-0.551,0.888-1.307,0.888-2.17
		C78.986,92.021,78.638,91.266,78.099,90.714z"/>
	<path fill="#BED731" d="M82.134,97.082h-1.211v-8.384h5.001v1.212h-3.79v2.362h3.358v1.224h-3.358V97.082z"/>
	<path fill="#BED731" d="M93.604,88.698c2.747,0,4.125,2.1,4.125,4.198s-1.379,4.186-4.125,4.186h-3.01v-8.384H93.604z
		 M93.604,95.871c1.943,0,2.926-1.487,2.926-2.975s-0.983-2.986-2.926-2.986h-1.799v5.961H93.604z"/>
	<path fill="#BED731" d="M101.884,88.698c1.055,0,1.727,0.6,2.039,1.38c0.336,0.827,0.228,1.787-0.611,2.387
		c0.959,0.407,1.307,1.295,1.307,2.087c0,1.259-0.828,2.53-2.435,2.53h-3.79v-8.384H101.884z M99.593,92.033h2.267
		c1.319,0,1.343-2.184,0.024-2.184h-2.291V92.033z M99.593,95.906h2.591c0.815,0,1.223-0.684,1.223-1.343
		c0-0.66-0.408-1.331-1.223-1.331h-2.591V95.906z"/>
	<path fill="#BED731" d="M105.054,88.698h5.685l0.408,0.768l-4.749,6.537h4.677v1.079h-5.889l-0.492-0.672l4.845-6.608h-4.485
		V88.698z"/>
	<path fill="#BED731" d="M117.964,97.118V89.91h-2.542v-1.224h6.285v1.224h-2.531v7.208H117.964z"/>
	<path fill="#BED731" d="M123.437,95.871h3.897v1.211h-5.121v-8.384h5.109v1.212h-3.886v2.362h3.802v1.224h-3.802V95.871z"/>
	<path fill="#BED731" d="M128.921,89.898c0.731-0.756,1.763-1.248,2.902-1.248c1.919,0,3.43,1.199,3.91,3.095h-1.199
		c-0.444-1.26-1.476-1.896-2.711-1.896c-0.804,0-1.535,0.349-2.062,0.9c-0.528,0.551-0.864,1.295-0.864,2.158
		c0,0.84,0.336,1.583,0.864,2.135c0.527,0.552,1.259,0.899,2.062,0.899c1.271,0,2.351-0.731,2.782-2.003h1.188
		c-0.479,1.907-2.015,3.202-3.97,3.202c-1.14,0-2.171-0.479-2.902-1.247c-0.72-0.768-1.199-1.823-1.199-2.986
		C127.722,91.721,128.201,90.666,128.921,89.898z"/>
	<path fill="#BED731" d="M137.597,92.236h3.55v-3.538h1.224v8.384h-1.224v-3.646h-3.55v3.646h-1.212v-8.384h1.212V92.236z"/>
	<path fill="#BED731" d="M143.152,97.082v-8.407l0.936,0.012l4.09,5.913v-5.913h1.199v8.396h-0.959l-4.054-5.865v5.865H143.152z"/>
	<path fill="#BED731" d="M151.12,89.85c0.768-0.779,1.847-1.271,3.022-1.271c1.187,0,2.254,0.491,3.034,1.271
		c0.755,0.78,1.247,1.848,1.247,3.035c0,1.187-0.492,2.254-1.247,3.034c-0.78,0.791-1.848,1.271-3.034,1.271
		c-1.176,0-2.255-0.48-3.022-1.271c-0.756-0.78-1.248-1.848-1.248-3.034C149.872,91.697,150.364,90.63,151.12,89.85z
		 M156.312,90.714c-0.563-0.564-1.343-0.912-2.17-0.912c-0.828,0-1.596,0.348-2.147,0.912c-0.552,0.552-0.899,1.319-0.899,2.171
		s0.348,1.619,0.899,2.17c0.552,0.564,1.319,0.912,2.147,0.912c0.827,0,1.606-0.348,2.17-0.912c0.54-0.551,0.888-1.307,0.888-2.17
		C157.2,92.021,156.853,91.266,156.312,90.714z"/>
	<path fill="#BED731" d="M160.456,95.871h3.946v1.211h-5.157v-8.384h1.211V95.871z"/>
	<path fill="#BED731" d="M165.448,89.85c0.768-0.779,1.847-1.271,3.022-1.271c1.187,0,2.254,0.491,3.034,1.271
		c0.755,0.78,1.247,1.848,1.247,3.035c0,1.187-0.492,2.254-1.247,3.034c-0.78,0.791-1.848,1.271-3.034,1.271
		c-1.176,0-2.255-0.48-3.022-1.271c-0.756-0.78-1.248-1.848-1.248-3.034C164.2,91.697,164.692,90.63,165.448,89.85z M170.641,90.714
		c-0.563-0.564-1.343-0.912-2.17-0.912c-0.828,0-1.596,0.348-2.147,0.912c-0.552,0.552-0.899,1.319-0.899,2.171
		s0.348,1.619,0.899,2.17c0.552,0.564,1.319,0.912,2.147,0.912c0.827,0,1.606-0.348,2.17-0.912c0.54-0.551,0.888-1.307,0.888-2.17
		C171.528,92.021,171.181,91.266,170.641,90.714z"/>
	<path fill="#BED731" d="M180.182,91.697c-0.336-1.355-1.631-1.848-2.698-1.848c-1.644,0-2.915,1.283-2.915,3.047
		c0,1.774,1.271,3.082,2.915,3.082c1.031,0,2.135-0.479,2.638-1.703h-3.105v-1.211h4.521c-0.061,0.707-0.12,1.175-0.229,1.451
		v-0.012c-0.575,1.606-2.303,2.638-3.825,2.638c-2.352,0-4.126-1.774-4.126-4.245c0-2.482,1.811-4.258,4.126-4.258
		c1.606,0,3.55,0.827,3.993,3.059H180.182z"/>
	<path fill="#BED731" d="M182.716,88.698l2.291,3.683l2.291-3.683h1.439l-3.119,4.966v3.418h-1.223v-3.418l-3.106-4.966H182.716z"/>
	<path fill="#BED731" d="M27.319,102.845l-0.328,1.529h-2.584l-1.506,7.107h-1.816l1.506-7.107h-2.596l0.328-1.529H27.319z"/>
	<path fill="#BED731" d="M26.85,106.634v-1.057h0.876v1.057H26.85z M26.85,111.481v-1.056h0.876v1.056H26.85z"/>
	<path fill="#BED731" d="M35.622,102.613c-0.576,0.832-1.026,1.722-1.35,2.67c-0.324,0.948-0.486,1.931-0.486,2.946
		c0,1,0.168,1.968,0.504,2.904c0.336,0.936,0.78,1.815,1.332,2.64h-0.612c-0.328-0.456-0.62-0.898-0.876-1.326
		s-0.472-0.864-0.648-1.308c-0.176-0.444-0.308-0.908-0.396-1.393c-0.088-0.483-0.132-1.01-0.132-1.577
		c0-0.553,0.046-1.07,0.138-1.555c0.092-0.483,0.226-0.949,0.402-1.397c0.176-0.448,0.39-0.887,0.642-1.314
		c0.252-0.428,0.542-0.857,0.87-1.29H35.622z"/>
	<path fill="#BED731" d="M41.538,105.098c-0.088-0.433-0.264-0.778-0.528-1.038c-0.264-0.26-0.624-0.39-1.08-0.39
		c-0.521,0-0.93,0.124-1.23,0.371c-0.3,0.248-0.53,0.562-0.69,0.942s-0.268,0.794-0.324,1.242c-0.056,0.448-0.1,0.872-0.132,1.271
		c0.12-0.159,0.246-0.319,0.378-0.479c0.132-0.16,0.282-0.302,0.45-0.426s0.364-0.225,0.588-0.301
		c0.224-0.075,0.492-0.113,0.804-0.113c0.856,0,1.518,0.242,1.986,0.726c0.468,0.484,0.702,1.15,0.702,1.998
		c0,0.856-0.236,1.528-0.708,2.016c-0.472,0.488-1.14,0.732-2.004,0.732c-0.424,0-0.816-0.07-1.176-0.21
		c-0.36-0.14-0.672-0.37-0.936-0.69c-0.264-0.319-0.472-0.737-0.624-1.254c-0.152-0.516-0.228-1.146-0.228-1.89
		c0-0.504,0.043-1.026,0.132-1.566c0.088-0.54,0.246-1.033,0.474-1.481s0.54-0.816,0.936-1.104s0.906-0.432,1.53-0.432
		c0.672,0,1.232,0.176,1.68,0.528c0.448,0.352,0.712,0.868,0.792,1.548H41.538z M39.75,106.825c-0.296,0-0.562,0.057-0.798,0.168
		c-0.236,0.112-0.437,0.265-0.6,0.456c-0.164,0.192-0.29,0.414-0.378,0.666c-0.088,0.252-0.132,0.522-0.132,0.811
		c0,0.239,0.034,0.481,0.102,0.726s0.18,0.466,0.336,0.666c0.156,0.2,0.354,0.364,0.594,0.492c0.24,0.128,0.536,0.191,0.888,0.191
		c0.36,0,0.662-0.062,0.906-0.186s0.442-0.288,0.594-0.492c0.152-0.204,0.262-0.432,0.33-0.684s0.102-0.506,0.102-0.762
		c0-0.656-0.158-1.162-0.474-1.519C40.903,107.004,40.414,106.825,39.75,106.825z"/>
	<path fill="#BED731" d="M44.153,109.285c0.08,0.576,0.31,1.007,0.69,1.29c0.38,0.284,0.846,0.426,1.398,0.426
		c0.312,0,0.594-0.056,0.846-0.168c0.252-0.111,0.466-0.266,0.642-0.462c0.176-0.195,0.31-0.424,0.402-0.684
		c0.092-0.26,0.138-0.542,0.138-0.846c0-0.312-0.05-0.601-0.15-0.864s-0.24-0.492-0.42-0.685c-0.18-0.191-0.4-0.34-0.66-0.443
		c-0.26-0.104-0.55-0.156-0.87-0.156c-0.384,0-0.728,0.07-1.032,0.21c-0.304,0.141-0.572,0.362-0.804,0.666l-0.636-0.084l0.684-4.38
		h4.2v0.648h-3.552l-0.528,2.844c0.168-0.104,0.322-0.192,0.462-0.265c0.14-0.071,0.282-0.13,0.426-0.174s0.294-0.073,0.45-0.09
		c0.156-0.016,0.33-0.023,0.522-0.023c0.384,0,0.74,0.063,1.068,0.191s0.612,0.312,0.852,0.552c0.24,0.24,0.426,0.534,0.558,0.883
		c0.132,0.348,0.198,0.737,0.198,1.17c0,0.448-0.074,0.846-0.222,1.193c-0.148,0.349-0.346,0.643-0.594,0.882
		c-0.248,0.24-0.534,0.423-0.858,0.547c-0.324,0.123-0.658,0.186-1.002,0.186c-0.4,0-0.774-0.04-1.122-0.12
		s-0.654-0.214-0.918-0.401c-0.264-0.188-0.478-0.433-0.642-0.732s-0.262-0.67-0.294-1.11H44.153z"/>
	<path fill="#BED731" d="M53.261,105.193h-2.184v-0.504c0.32-0.024,0.61-0.056,0.87-0.096c0.26-0.04,0.488-0.116,0.684-0.229
		c0.196-0.111,0.36-0.273,0.492-0.485c0.132-0.212,0.23-0.498,0.294-0.858h0.612v8.46h-0.768V105.193z"/>
	<path fill="#BED731" d="M56.981,113.773c0.576-0.832,1.026-1.722,1.35-2.67c0.324-0.948,0.486-1.93,0.486-2.946
		c0-1-0.168-1.968-0.504-2.903c-0.336-0.937-0.78-1.816-1.332-2.641h0.612c0.328,0.456,0.62,0.898,0.876,1.326
		c0.256,0.428,0.47,0.864,0.642,1.308c0.172,0.444,0.304,0.908,0.396,1.393c0.092,0.484,0.138,1.01,0.138,1.578
		c0,0.552-0.046,1.069-0.138,1.554c-0.092,0.484-0.227,0.95-0.402,1.398c-0.176,0.447-0.392,0.886-0.648,1.313
		s-0.544,0.858-0.864,1.29H56.981z"/>
	<path fill="#BED731" d="M63.821,107.989v0.744h-3.036v-0.744H63.821z"/>
	<path fill="#BED731" d="M66.953,106.777c0.36,0,0.688-0.021,0.984-0.065c0.295-0.044,0.55-0.128,0.762-0.253
		c0.212-0.123,0.378-0.289,0.498-0.497s0.18-0.477,0.18-0.805c0-0.264-0.048-0.489-0.144-0.678c-0.096-0.188-0.226-0.342-0.39-0.462
		s-0.356-0.208-0.576-0.264c-0.22-0.057-0.45-0.084-0.69-0.084c-0.272,0-0.518,0.044-0.738,0.132c-0.22,0.088-0.41,0.214-0.57,0.378
		c-0.16,0.164-0.284,0.355-0.372,0.576c-0.088,0.22-0.132,0.462-0.132,0.726h-0.768c0-0.384,0.066-0.729,0.198-1.038
		c0.132-0.308,0.338-0.594,0.618-0.858c0.264-0.239,0.562-0.394,0.894-0.462c0.332-0.067,0.674-0.102,1.026-0.102
		c0.336,0,0.65,0.042,0.942,0.126s0.546,0.212,0.762,0.384c0.216,0.172,0.388,0.391,0.516,0.654s0.192,0.572,0.192,0.924
		c0,0.44-0.098,0.82-0.294,1.14c-0.196,0.32-0.498,0.568-0.906,0.744c0.304,0.097,0.554,0.223,0.75,0.378
		c0.196,0.156,0.35,0.328,0.462,0.517c0.112,0.188,0.188,0.386,0.228,0.594s0.06,0.408,0.06,0.6c0,0.353-0.06,0.681-0.18,0.984
		c-0.12,0.304-0.296,0.572-0.528,0.804c-0.232,0.232-0.518,0.418-0.858,0.559c-0.34,0.14-0.726,0.214-1.158,0.222
		c-0.488,0-0.912-0.044-1.272-0.132s-0.66-0.234-0.9-0.438c-0.24-0.204-0.428-0.472-0.564-0.804
		c-0.136-0.332-0.228-0.746-0.276-1.242h0.768c0,0.648,0.194,1.139,0.582,1.471c0.388,0.332,0.894,0.497,1.518,0.497
		c0.304,0,0.588-0.052,0.852-0.155c0.264-0.104,0.49-0.244,0.678-0.42c0.188-0.176,0.332-0.38,0.432-0.612s0.146-0.472,0.138-0.72
		c-0.016-0.344-0.096-0.63-0.24-0.858c-0.144-0.228-0.338-0.408-0.582-0.54c-0.244-0.132-0.53-0.22-0.858-0.264
		s-0.676-0.054-1.044-0.03V106.777z"/>
	<path fill="#BED731" d="M75.269,109.394h-3.864v-0.66l3.936-5.628h0.696v5.64h1.176v0.648h-1.176v2.088h-0.768V109.394z
		 M72.161,108.745h3.108v-4.487L72.161,108.745z"/>
	<path fill="#BED731" d="M82.889,105.098c-0.088-0.433-0.264-0.778-0.528-1.038c-0.264-0.26-0.624-0.39-1.08-0.39
		c-0.521,0-0.93,0.124-1.23,0.371c-0.3,0.248-0.53,0.562-0.69,0.942s-0.268,0.794-0.324,1.242c-0.056,0.448-0.1,0.872-0.132,1.271
		c0.12-0.159,0.246-0.319,0.378-0.479c0.132-0.16,0.282-0.302,0.45-0.426s0.364-0.225,0.588-0.301
		c0.224-0.075,0.492-0.113,0.804-0.113c0.856,0,1.518,0.242,1.986,0.726c0.468,0.484,0.702,1.15,0.702,1.998
		c0,0.856-0.236,1.528-0.708,2.016c-0.472,0.488-1.14,0.732-2.004,0.732c-0.424,0-0.816-0.07-1.176-0.21
		c-0.36-0.14-0.672-0.37-0.936-0.69c-0.264-0.319-0.472-0.737-0.624-1.254c-0.152-0.516-0.228-1.146-0.228-1.89
		c0-0.504,0.043-1.026,0.132-1.566c0.088-0.54,0.246-1.033,0.474-1.481s0.54-0.816,0.936-1.104s0.906-0.432,1.53-0.432
		c0.672,0,1.232,0.176,1.68,0.528c0.448,0.352,0.712,0.868,0.792,1.548H82.889z M81.101,106.825c-0.296,0-0.562,0.057-0.798,0.168
		c-0.236,0.112-0.437,0.265-0.6,0.456c-0.164,0.192-0.29,0.414-0.378,0.666c-0.088,0.252-0.132,0.522-0.132,0.811
		c0,0.239,0.034,0.481,0.102,0.726s0.18,0.466,0.336,0.666c0.156,0.2,0.354,0.364,0.594,0.492c0.24,0.128,0.536,0.191,0.888,0.191
		c0.36,0,0.662-0.062,0.906-0.186s0.442-0.288,0.594-0.492c0.152-0.204,0.262-0.432,0.33-0.684s0.102-0.506,0.102-0.762
		c0-0.656-0.158-1.162-0.474-1.519C82.255,107.004,81.765,106.825,81.101,106.825z"/>
	<path fill="#BED731" d="M87.833,107.989v0.744h-3.036v-0.744H87.833z"/>
	<path fill="#BED731" d="M89.729,109.621c0.088,0.456,0.266,0.801,0.534,1.032c0.268,0.232,0.638,0.348,1.11,0.348
		c0.504,0,0.906-0.123,1.206-0.371c0.3-0.248,0.532-0.561,0.696-0.937s0.276-0.782,0.336-1.218c0.06-0.437,0.098-0.846,0.114-1.23
		l-0.024-0.023c-0.256,0.432-0.574,0.76-0.954,0.983c-0.38,0.225-0.822,0.336-1.326,0.336c-0.4,0-0.76-0.063-1.08-0.191
		s-0.594-0.312-0.822-0.552c-0.228-0.24-0.404-0.528-0.528-0.864c-0.125-0.336-0.186-0.708-0.186-1.116
		c0-0.399,0.056-0.77,0.168-1.11c0.112-0.34,0.28-0.636,0.504-0.888c0.224-0.252,0.506-0.448,0.846-0.588
		c0.34-0.14,0.742-0.21,1.206-0.21c0.568,0,1.042,0.112,1.422,0.336c0.38,0.224,0.684,0.528,0.912,0.912s0.39,0.836,0.486,1.355
		c0.096,0.521,0.144,1.076,0.144,1.668c0,0.721-0.076,1.351-0.228,1.891c-0.152,0.54-0.366,0.994-0.642,1.362
		c-0.276,0.367-0.602,0.644-0.978,0.827c-0.376,0.185-0.788,0.276-1.236,0.276c-0.328,0-0.636-0.04-0.924-0.12
		s-0.54-0.204-0.756-0.372s-0.392-0.38-0.528-0.636c-0.136-0.256-0.22-0.556-0.252-0.9H89.729z M91.529,103.67
		c-0.648,0.016-1.136,0.216-1.464,0.6s-0.492,0.908-0.492,1.572c0,0.647,0.17,1.151,0.51,1.512c0.34,0.36,0.822,0.54,1.446,0.54
		c0.296,0,0.562-0.056,0.798-0.168c0.236-0.112,0.436-0.264,0.6-0.456s0.288-0.414,0.372-0.666s0.126-0.522,0.126-0.811
		c0-0.623-0.168-1.13-0.504-1.518S92.121,103.686,91.529,103.67z"/>
	<path fill="#BED731" d="M95.693,103.105h5.388v0.72c-0.608,0.688-1.124,1.395-1.548,2.118c-0.424,0.725-0.772,1.428-1.044,2.112
		c-0.272,0.684-0.474,1.322-0.606,1.914s-0.21,1.096-0.234,1.512h-0.84c0.04-0.607,0.162-1.254,0.366-1.938
		c0.204-0.684,0.458-1.361,0.762-2.033c0.304-0.672,0.648-1.322,1.032-1.95c0.384-0.628,0.78-1.19,1.188-1.687h-4.464V103.105z"/>
	<path fill="#BED731" d="M106.901,105.098c-0.088-0.433-0.264-0.778-0.528-1.038c-0.264-0.26-0.624-0.39-1.08-0.39
		c-0.521,0-0.93,0.124-1.23,0.371c-0.3,0.248-0.53,0.562-0.69,0.942s-0.268,0.794-0.324,1.242c-0.056,0.448-0.1,0.872-0.132,1.271
		c0.12-0.159,0.246-0.319,0.378-0.479c0.132-0.16,0.282-0.302,0.45-0.426s0.364-0.225,0.588-0.301
		c0.224-0.075,0.492-0.113,0.804-0.113c0.856,0,1.518,0.242,1.986,0.726c0.468,0.484,0.702,1.15,0.702,1.998
		c0,0.856-0.236,1.528-0.708,2.016c-0.472,0.488-1.14,0.732-2.004,0.732c-0.424,0-0.816-0.07-1.176-0.21
		c-0.36-0.14-0.672-0.37-0.936-0.69c-0.264-0.319-0.472-0.737-0.624-1.254c-0.152-0.516-0.228-1.146-0.228-1.89
		c0-0.504,0.043-1.026,0.132-1.566c0.088-0.54,0.246-1.033,0.474-1.481s0.54-0.816,0.936-1.104s0.906-0.432,1.53-0.432
		c0.672,0,1.232,0.176,1.68,0.528c0.448,0.352,0.712,0.868,0.792,1.548H106.901z M105.113,106.825c-0.296,0-0.562,0.057-0.798,0.168
		c-0.236,0.112-0.437,0.265-0.6,0.456c-0.164,0.192-0.29,0.414-0.378,0.666c-0.088,0.252-0.132,0.522-0.132,0.811
		c0,0.239,0.034,0.481,0.102,0.726s0.18,0.466,0.336,0.666c0.156,0.2,0.354,0.364,0.594,0.492c0.24,0.128,0.536,0.191,0.888,0.191
		c0.36,0,0.662-0.062,0.906-0.186s0.442-0.288,0.594-0.492c0.152-0.204,0.262-0.432,0.33-0.684s0.102-0.506,0.102-0.762
		c0-0.656-0.158-1.162-0.474-1.519C106.267,107.004,105.777,106.825,105.113,106.825z"/>
	<path fill="#BED731" d="M111.665,103.021c0.416,0,0.776,0.062,1.08,0.186c0.304,0.125,0.562,0.294,0.774,0.511
		c0.212,0.216,0.384,0.468,0.516,0.756s0.234,0.594,0.306,0.918c0.072,0.324,0.12,0.658,0.144,1.002
		c0.024,0.344,0.036,0.68,0.036,1.008c0,0.561-0.04,1.097-0.12,1.608s-0.226,0.964-0.438,1.355c-0.212,0.393-0.502,0.704-0.87,0.937
		c-0.368,0.231-0.844,0.348-1.428,0.348s-1.062-0.116-1.434-0.348c-0.372-0.232-0.664-0.546-0.876-0.942
		c-0.212-0.396-0.358-0.855-0.438-1.38c-0.08-0.523-0.12-1.078-0.12-1.662c0-0.536,0.036-1.06,0.108-1.572
		c0.072-0.512,0.21-0.97,0.414-1.374c0.204-0.403,0.494-0.729,0.87-0.978S111.057,103.021,111.665,103.021z M113.753,107.317
		c0-0.456-0.026-0.901-0.078-1.338c-0.052-0.436-0.154-0.826-0.306-1.17c-0.152-0.344-0.366-0.62-0.642-0.828
		s-0.638-0.312-1.086-0.312c-0.424,0-0.77,0.105-1.038,0.317s-0.478,0.494-0.63,0.846c-0.152,0.353-0.258,0.753-0.318,1.2
		c-0.06,0.448-0.09,0.904-0.09,1.368c0,0.544,0.034,1.038,0.102,1.482c0.068,0.443,0.182,0.821,0.342,1.134
		c0.16,0.312,0.374,0.554,0.642,0.726c0.268,0.173,0.606,0.258,1.014,0.258c0.456,0,0.822-0.111,1.098-0.336
		c0.276-0.224,0.486-0.512,0.63-0.863c0.144-0.353,0.24-0.748,0.288-1.188C113.729,108.174,113.753,107.741,113.753,107.317z"/>
	<path fill="#BED731" d="M27.102,118.774h-4.57l-0.387,1.834h4.195l-0.322,1.5h-4.195l-0.469,2.221h4.781l-0.328,1.553h-6.545
		l1.834-8.637h6.334L27.102,118.774z"/>
	<path fill="#BED731" d="M27.523,121.034v-1.057h0.876v1.057H27.523z M27.523,125.882v-1.056h0.876v1.056H27.523z"/>
	<path fill="#BED731" d="M34.639,125.882h-0.72v-8.64h0.72v3.42c0.232-0.384,0.55-0.674,0.954-0.87
		c0.404-0.196,0.826-0.294,1.266-0.294c0.472,0,0.882,0.09,1.23,0.27c0.348,0.181,0.636,0.42,0.864,0.721
		c0.228,0.3,0.398,0.649,0.51,1.05c0.112,0.399,0.168,0.815,0.168,1.248c0,0.456-0.052,0.884-0.156,1.284
		c-0.104,0.399-0.27,0.745-0.498,1.037c-0.228,0.293-0.518,0.522-0.87,0.69c-0.353,0.168-0.78,0.252-1.284,0.252
		c-0.2,0-0.404-0.028-0.612-0.084c-0.208-0.056-0.41-0.136-0.606-0.24c-0.196-0.104-0.376-0.233-0.54-0.39
		c-0.164-0.156-0.298-0.338-0.402-0.546h-0.024V125.882z M34.639,122.75c0,0.376,0.046,0.726,0.138,1.05
		c0.092,0.324,0.226,0.604,0.402,0.84c0.176,0.236,0.396,0.422,0.66,0.559c0.264,0.136,0.564,0.203,0.9,0.203
		c0.304,0,0.584-0.054,0.84-0.161c0.256-0.108,0.48-0.267,0.672-0.475c0.192-0.208,0.342-0.462,0.45-0.762s0.162-0.646,0.162-1.038
		c0.016-0.392-0.016-0.758-0.096-1.098s-0.208-0.639-0.384-0.895c-0.176-0.256-0.402-0.458-0.678-0.605
		c-0.276-0.148-0.598-0.223-0.966-0.223c-0.328,0-0.622,0.07-0.882,0.21c-0.26,0.141-0.48,0.328-0.66,0.564
		c-0.18,0.236-0.318,0.512-0.414,0.828C34.687,122.063,34.639,122.397,34.639,122.75z"/>
	<path fill="#BED731" d="M41.923,125.882h-0.72v-6.216h0.72v1.164h0.024c0.2-0.496,0.458-0.842,0.774-1.038s0.734-0.294,1.254-0.294
		v0.78c-0.408-0.009-0.744,0.056-1.008,0.191c-0.264,0.137-0.474,0.32-0.63,0.552c-0.156,0.232-0.264,0.507-0.324,0.822
		c-0.06,0.316-0.09,0.646-0.09,0.99V125.882z"/>
	<path fill="#BED731" d="M45.607,122.941c0,0.337,0.044,0.654,0.132,0.954c0.088,0.301,0.218,0.561,0.39,0.78
		c0.172,0.22,0.39,0.396,0.654,0.528c0.264,0.132,0.568,0.197,0.912,0.197c0.472,0,0.876-0.123,1.212-0.371s0.56-0.601,0.672-1.057
		h0.804c-0.088,0.296-0.204,0.57-0.348,0.822s-0.324,0.472-0.54,0.66c-0.216,0.188-0.472,0.334-0.768,0.438
		c-0.296,0.104-0.64,0.156-1.032,0.156c-0.496,0-0.924-0.084-1.284-0.252c-0.36-0.168-0.656-0.397-0.888-0.69
		c-0.232-0.292-0.404-0.636-0.516-1.031c-0.112-0.396-0.168-0.822-0.168-1.278s0.066-0.884,0.198-1.284
		c0.132-0.399,0.32-0.75,0.564-1.05c0.244-0.3,0.542-0.536,0.894-0.708s0.752-0.258,1.2-0.258c0.856,0,1.528,0.294,2.016,0.882
		c0.488,0.588,0.728,1.442,0.72,2.562H45.607z M49.663,122.342c0-0.304-0.042-0.59-0.126-0.858
		c-0.084-0.268-0.208-0.499-0.372-0.695c-0.164-0.196-0.37-0.353-0.618-0.468c-0.248-0.116-0.532-0.175-0.852-0.175
		s-0.602,0.061-0.846,0.181s-0.452,0.28-0.624,0.479c-0.172,0.2-0.31,0.433-0.414,0.696c-0.104,0.264-0.172,0.544-0.204,0.84H49.663
		z"/>
	<path fill="#BED731" d="M52.555,125.882h-0.72v-6.216h0.72v0.864c0.288-0.305,0.586-0.553,0.894-0.744
		c0.308-0.192,0.678-0.288,1.11-0.288c0.384,0,0.74,0.065,1.068,0.198c0.328,0.132,0.604,0.361,0.828,0.689
		c0.152,0.225,0.242,0.454,0.27,0.69c0.028,0.235,0.042,0.481,0.042,0.737v4.068h-0.72v-4.056c0-0.561-0.125-0.98-0.372-1.261
		c-0.248-0.279-0.66-0.42-1.236-0.42c-0.224,0-0.428,0.034-0.612,0.103c-0.184,0.067-0.35,0.158-0.498,0.27
		c-0.148,0.112-0.274,0.24-0.378,0.384c-0.104,0.145-0.184,0.297-0.24,0.456c-0.072,0.2-0.116,0.393-0.132,0.576
		c-0.016,0.185-0.024,0.384-0.024,0.601V125.882z"/>
	<path fill="#BED731" d="M63.307,117.242h0.72v8.64h-0.72v-1.092h-0.024c-0.104,0.208-0.238,0.39-0.402,0.546
		s-0.344,0.286-0.54,0.39c-0.196,0.104-0.398,0.185-0.606,0.24s-0.412,0.084-0.612,0.084c-0.504,0-0.932-0.084-1.284-0.252
		s-0.642-0.397-0.87-0.69c-0.228-0.292-0.395-0.638-0.498-1.037c-0.104-0.4-0.156-0.828-0.156-1.284
		c0-0.433,0.056-0.849,0.168-1.248c0.112-0.4,0.282-0.75,0.51-1.05c0.228-0.301,0.516-0.54,0.864-0.721
		c0.348-0.18,0.758-0.27,1.23-0.27c0.44,0,0.862,0.098,1.266,0.294s0.722,0.486,0.954,0.87V117.242z M63.307,122.75
		c0-0.353-0.048-0.687-0.144-1.002c-0.096-0.316-0.234-0.592-0.414-0.828s-0.4-0.424-0.66-0.564c-0.26-0.14-0.554-0.21-0.882-0.21
		c-0.376,0-0.7,0.074-0.972,0.223c-0.272,0.147-0.496,0.35-0.672,0.605s-0.304,0.555-0.384,0.895
		c-0.08,0.34-0.112,0.706-0.096,1.098c0,0.392,0.054,0.738,0.162,1.038s0.258,0.554,0.45,0.762c0.192,0.208,0.416,0.366,0.672,0.475
		c0.256,0.107,0.536,0.161,0.84,0.161c0.336,0,0.636-0.067,0.9-0.203c0.264-0.137,0.484-0.322,0.66-0.559
		c0.176-0.235,0.31-0.516,0.402-0.84S63.307,123.126,63.307,122.75z"/>
	<path fill="#BED731" d="M68.695,122.258c0.136-0.016,0.298-0.04,0.486-0.072c0.188-0.031,0.342-0.075,0.462-0.132
		c0.12-0.056,0.194-0.149,0.222-0.282c0.028-0.132,0.042-0.254,0.042-0.365c0-0.368-0.118-0.67-0.354-0.906
		c-0.236-0.236-0.634-0.354-1.194-0.354c-0.248,0-0.476,0.022-0.684,0.066c-0.208,0.044-0.39,0.12-0.546,0.228
		c-0.156,0.108-0.284,0.252-0.384,0.433c-0.1,0.18-0.166,0.406-0.198,0.678h-0.732c0.024-0.368,0.108-0.682,0.252-0.942
		c0.144-0.26,0.33-0.472,0.558-0.636s0.492-0.284,0.792-0.359c0.3-0.076,0.618-0.114,0.954-0.114c0.312,0,0.606,0.034,0.882,0.102
		c0.276,0.068,0.516,0.177,0.72,0.324c0.204,0.148,0.364,0.346,0.48,0.594c0.116,0.248,0.174,0.553,0.174,0.912v3.384
		c0,0.28,0.05,0.458,0.15,0.534s0.302,0.059,0.606-0.054v0.563c-0.056,0.017-0.138,0.04-0.246,0.072s-0.214,0.048-0.318,0.048
		c-0.112,0-0.22-0.012-0.324-0.036c-0.12-0.016-0.216-0.054-0.288-0.113c-0.072-0.061-0.13-0.132-0.174-0.216
		s-0.074-0.177-0.09-0.276s-0.024-0.206-0.024-0.318c-0.304,0.336-0.652,0.593-1.044,0.769s-0.816,0.264-1.272,0.264
		c-0.272,0-0.534-0.036-0.786-0.108c-0.252-0.071-0.474-0.184-0.666-0.336c-0.192-0.151-0.344-0.338-0.456-0.558
		c-0.112-0.22-0.168-0.481-0.168-0.786c0-1.056,0.724-1.68,2.172-1.872L68.695,122.258z M69.907,122.618
		c-0.304,0.128-0.612,0.212-0.924,0.252s-0.624,0.071-0.936,0.096c-0.552,0.04-0.982,0.164-1.29,0.372
		c-0.308,0.208-0.462,0.524-0.462,0.948c0,0.191,0.038,0.357,0.114,0.498c0.076,0.14,0.176,0.256,0.3,0.348s0.268,0.16,0.432,0.204
		s0.33,0.065,0.498,0.065c0.288,0,0.568-0.035,0.84-0.107s0.514-0.182,0.726-0.33s0.382-0.336,0.51-0.564
		c0.127-0.228,0.192-0.498,0.192-0.81V122.618z"/>
	<path fill="#BED731" d="M73.231,125.882h-0.72v-6.216h0.72v0.864c0.288-0.305,0.586-0.553,0.894-0.744
		c0.308-0.192,0.678-0.288,1.11-0.288c0.384,0,0.74,0.065,1.068,0.198c0.328,0.132,0.604,0.361,0.828,0.689
		c0.152,0.225,0.242,0.454,0.27,0.69c0.028,0.235,0.042,0.481,0.042,0.737v4.068h-0.72v-4.056c0-0.561-0.125-0.98-0.372-1.261
		c-0.248-0.279-0.66-0.42-1.236-0.42c-0.224,0-0.428,0.034-0.612,0.103c-0.184,0.067-0.35,0.158-0.498,0.27
		c-0.148,0.112-0.274,0.24-0.378,0.384c-0.104,0.145-0.184,0.297-0.24,0.456c-0.072,0.2-0.116,0.393-0.132,0.576
		c-0.016,0.185-0.024,0.384-0.024,0.601V125.882z"/>
	<path fill="#BED731" d="M87.235,123.878c-0.192,0.352-0.428,0.666-0.708,0.942c-0.28,0.275-0.59,0.51-0.93,0.701
		c-0.34,0.192-0.702,0.339-1.086,0.438c-0.384,0.1-0.772,0.149-1.164,0.149c-0.64,0-1.238-0.119-1.794-0.359
		s-1.038-0.568-1.446-0.984c-0.408-0.416-0.728-0.901-0.96-1.458c-0.232-0.556-0.348-1.149-0.348-1.782
		c0-0.624,0.12-1.21,0.36-1.758c0.24-0.548,0.566-1.025,0.978-1.434s0.89-0.73,1.434-0.966c0.544-0.236,1.12-0.354,1.728-0.354
		c0.576,0,1.116,0.095,1.62,0.282c0.504,0.188,0.942,0.45,1.314,0.786s0.666,0.736,0.882,1.2c0.216,0.464,0.324,0.972,0.324,1.523
		c0,0.473-0.086,0.92-0.258,1.344c-0.172,0.425-0.392,0.797-0.66,1.116c-0.268,0.32-0.568,0.574-0.9,0.763
		c-0.332,0.188-0.658,0.281-0.978,0.281c-0.208,0-0.414-0.05-0.618-0.149c-0.204-0.101-0.342-0.259-0.414-0.475
		c-0.184,0.185-0.404,0.33-0.66,0.438c-0.256,0.107-0.512,0.162-0.768,0.162c-0.256,0-0.488-0.048-0.696-0.145
		c-0.208-0.096-0.384-0.226-0.528-0.39s-0.254-0.354-0.33-0.57c-0.076-0.216-0.114-0.447-0.114-0.696
		c0-0.399,0.072-0.813,0.216-1.241s0.346-0.82,0.606-1.177c0.26-0.355,0.572-0.647,0.936-0.876c0.364-0.228,0.77-0.342,1.218-0.342
		c0.28,0,0.544,0.068,0.792,0.204c0.248,0.137,0.432,0.332,0.552,0.588l0.18-0.552h0.804l-1.212,3.624
		c-0.048,0.136-0.086,0.262-0.114,0.378c-0.028,0.116-0.038,0.218-0.03,0.306c0.008,0.089,0.038,0.158,0.09,0.21
		c0.052,0.053,0.138,0.078,0.258,0.078c0.248,0,0.488-0.092,0.72-0.275c0.232-0.185,0.436-0.418,0.612-0.702
		c0.176-0.284,0.316-0.598,0.42-0.942c0.104-0.344,0.156-0.676,0.156-0.996c0-0.487-0.092-0.928-0.276-1.319
		c-0.184-0.393-0.432-0.725-0.744-0.996c-0.312-0.272-0.672-0.48-1.08-0.624c-0.408-0.145-0.84-0.216-1.296-0.216
		c-0.552,0-1.062,0.105-1.53,0.317c-0.468,0.212-0.87,0.5-1.206,0.864s-0.598,0.788-0.786,1.271
		c-0.188,0.484-0.282,0.998-0.282,1.542c0,0.545,0.098,1.053,0.294,1.524c0.196,0.473,0.466,0.884,0.81,1.236
		c0.344,0.352,0.748,0.63,1.212,0.834c0.464,0.204,0.968,0.306,1.512,0.306c0.312,0,0.618-0.036,0.918-0.108
		c0.3-0.071,0.588-0.178,0.864-0.317s0.532-0.312,0.768-0.517c0.236-0.203,0.446-0.434,0.63-0.689H87.235z M82.363,123.53
		c0.272,0,0.528-0.112,0.768-0.337c0.24-0.224,0.45-0.493,0.63-0.81c0.18-0.315,0.322-0.652,0.426-1.008
		c0.104-0.356,0.156-0.67,0.156-0.942c0-0.231-0.076-0.436-0.228-0.611c-0.152-0.177-0.352-0.265-0.6-0.265
		c-0.32,0-0.608,0.099-0.864,0.294c-0.256,0.196-0.474,0.44-0.654,0.732c-0.18,0.292-0.32,0.604-0.42,0.936s-0.15,0.635-0.15,0.906
		c0,0.288,0.08,0.544,0.24,0.768C81.827,123.418,82.059,123.53,82.363,123.53z"/>
	<path fill="#BED731" d="M93.583,117.242h0.72v8.64h-0.72v-1.092h-0.024c-0.104,0.208-0.238,0.39-0.402,0.546
		s-0.344,0.286-0.54,0.39c-0.196,0.104-0.398,0.185-0.606,0.24s-0.412,0.084-0.612,0.084c-0.504,0-0.932-0.084-1.284-0.252
		s-0.642-0.397-0.87-0.69c-0.228-0.292-0.395-0.638-0.498-1.037c-0.104-0.4-0.156-0.828-0.156-1.284
		c0-0.433,0.056-0.849,0.168-1.248c0.112-0.4,0.282-0.75,0.51-1.05c0.228-0.301,0.516-0.54,0.864-0.721
		c0.348-0.18,0.758-0.27,1.23-0.27c0.44,0,0.862,0.098,1.266,0.294s0.722,0.486,0.954,0.87V117.242z M93.583,122.75
		c0-0.353-0.048-0.687-0.144-1.002c-0.096-0.316-0.234-0.592-0.414-0.828s-0.4-0.424-0.66-0.564c-0.26-0.14-0.554-0.21-0.882-0.21
		c-0.376,0-0.7,0.074-0.972,0.223c-0.272,0.147-0.496,0.35-0.672,0.605s-0.304,0.555-0.384,0.895
		c-0.08,0.34-0.112,0.706-0.096,1.098c0,0.392,0.054,0.738,0.162,1.038s0.258,0.554,0.45,0.762c0.192,0.208,0.416,0.366,0.672,0.475
		c0.256,0.107,0.536,0.161,0.84,0.161c0.336,0,0.636-0.067,0.9-0.203c0.264-0.137,0.484-0.322,0.66-0.559
		c0.176-0.235,0.31-0.516,0.402-0.84S93.583,123.126,93.583,122.75z"/>
	<path fill="#BED731" d="M96.919,125.882h-0.72v-8.64h0.72v3.42c0.232-0.384,0.55-0.674,0.954-0.87
		c0.404-0.196,0.826-0.294,1.266-0.294c0.472,0,0.882,0.09,1.23,0.27c0.348,0.181,0.636,0.42,0.864,0.721
		c0.228,0.3,0.398,0.649,0.51,1.05c0.112,0.399,0.168,0.815,0.168,1.248c0,0.456-0.052,0.884-0.156,1.284
		c-0.104,0.399-0.27,0.745-0.498,1.037c-0.228,0.293-0.518,0.522-0.87,0.69c-0.353,0.168-0.78,0.252-1.284,0.252
		c-0.2,0-0.404-0.028-0.612-0.084c-0.208-0.056-0.41-0.136-0.606-0.24c-0.196-0.104-0.376-0.233-0.54-0.39
		c-0.164-0.156-0.298-0.338-0.402-0.546h-0.024V125.882z M96.919,122.75c0,0.376,0.046,0.726,0.138,1.05
		c0.092,0.324,0.226,0.604,0.402,0.84c0.176,0.236,0.396,0.422,0.66,0.559c0.264,0.136,0.564,0.203,0.9,0.203
		c0.304,0,0.584-0.054,0.84-0.161c0.256-0.108,0.48-0.267,0.672-0.475c0.192-0.208,0.342-0.462,0.45-0.762s0.162-0.646,0.162-1.038
		c0.016-0.392-0.016-0.758-0.096-1.098s-0.208-0.639-0.384-0.895c-0.176-0.256-0.402-0.458-0.678-0.605
		c-0.276-0.148-0.598-0.223-0.966-0.223c-0.328,0-0.622,0.07-0.882,0.21c-0.26,0.141-0.48,0.328-0.66,0.564
		c-0.18,0.236-0.318,0.512-0.414,0.828C96.967,122.063,96.919,122.397,96.919,122.75z"/>
	<path fill="#BED731" d="M102.979,125.882v-0.636l4.128-4.98h-3.852v-0.6h4.776v0.636l-4.128,4.98h4.284v0.6H102.979z"/>
	<path fill="#BED731" d="M111.63,125.906c-0.088,0.016-0.204,0.044-0.348,0.084c-0.144,0.039-0.304,0.06-0.48,0.06
		c-0.36,0-0.634-0.09-0.822-0.27c-0.188-0.181-0.282-0.502-0.282-0.967v-4.548h-0.876v-0.6h0.876v-1.729h0.72v1.729h1.164v0.6
		h-1.164v4.26c0,0.152,0.004,0.284,0.012,0.396c0.008,0.112,0.032,0.204,0.072,0.276c0.04,0.071,0.102,0.124,0.186,0.155
		c0.084,0.032,0.202,0.048,0.354,0.048c0.096,0,0.194-0.008,0.294-0.023s0.198-0.036,0.294-0.061V125.906z"/>
	<path fill="#BED731" d="M113.227,122.941c0,0.337,0.044,0.654,0.132,0.954c0.088,0.301,0.218,0.561,0.39,0.78
		c0.172,0.22,0.39,0.396,0.654,0.528c0.264,0.132,0.568,0.197,0.912,0.197c0.472,0,0.876-0.123,1.212-0.371s0.56-0.601,0.672-1.057
		h0.804c-0.088,0.296-0.204,0.57-0.348,0.822s-0.324,0.472-0.54,0.66c-0.216,0.188-0.472,0.334-0.768,0.438
		c-0.296,0.104-0.64,0.156-1.032,0.156c-0.496,0-0.924-0.084-1.284-0.252c-0.36-0.168-0.656-0.397-0.888-0.69
		c-0.232-0.292-0.404-0.636-0.516-1.031c-0.112-0.396-0.168-0.822-0.168-1.278s0.066-0.884,0.198-1.284
		c0.132-0.399,0.32-0.75,0.564-1.05c0.244-0.3,0.542-0.536,0.894-0.708s0.752-0.258,1.2-0.258c0.856,0,1.528,0.294,2.016,0.882
		c0.488,0.588,0.728,1.442,0.72,2.562H113.227z M117.283,122.342c0-0.304-0.042-0.59-0.126-0.858
		c-0.084-0.268-0.208-0.499-0.372-0.695c-0.164-0.196-0.37-0.353-0.618-0.468c-0.248-0.116-0.532-0.175-0.852-0.175
		s-0.602,0.061-0.846,0.181s-0.452,0.28-0.624,0.479c-0.172,0.2-0.31,0.433-0.414,0.696c-0.104,0.264-0.172,0.544-0.204,0.84
		H117.283z"/>
	<path fill="#BED731" d="M123.859,121.622c-0.128-0.464-0.348-0.826-0.66-1.086s-0.708-0.391-1.188-0.391
		c-0.368,0-0.684,0.076-0.948,0.229c-0.264,0.152-0.48,0.354-0.648,0.605c-0.168,0.252-0.292,0.536-0.372,0.853
		c-0.08,0.316-0.12,0.634-0.12,0.954c0,0.328,0.038,0.647,0.114,0.96c0.076,0.312,0.198,0.592,0.366,0.84s0.384,0.446,0.648,0.594
		c0.264,0.148,0.584,0.222,0.96,0.222c0.536,0,0.966-0.147,1.29-0.443c0.324-0.296,0.53-0.704,0.618-1.225h0.768
		c-0.064,0.345-0.167,0.658-0.306,0.942c-0.14,0.284-0.32,0.528-0.54,0.732c-0.22,0.204-0.482,0.361-0.786,0.474
		s-0.652,0.168-1.044,0.168c-0.496,0-0.924-0.084-1.284-0.252c-0.36-0.168-0.656-0.397-0.888-0.69
		c-0.232-0.292-0.404-0.638-0.516-1.037c-0.112-0.4-0.168-0.828-0.168-1.284c0-0.433,0.062-0.847,0.186-1.242
		c0.124-0.396,0.306-0.746,0.546-1.05c0.24-0.305,0.538-0.546,0.894-0.727c0.356-0.18,0.766-0.27,1.23-0.27
		c0.72,0,1.302,0.172,1.746,0.516s0.722,0.88,0.834,1.608H123.859z"/>
	<path fill="#BED731" d="M126.126,125.882v-8.64h0.72v3.288c0.288-0.305,0.586-0.553,0.894-0.744
		c0.309-0.192,0.679-0.288,1.11-0.288c0.384,0,0.74,0.065,1.068,0.198c0.328,0.132,0.604,0.361,0.828,0.689
		c0.151,0.225,0.241,0.454,0.27,0.69c0.028,0.235,0.042,0.481,0.042,0.737v4.068h-0.72v-4.056c0-0.561-0.124-0.98-0.372-1.261
		c-0.248-0.279-0.66-0.42-1.236-0.42c-0.224,0-0.428,0.034-0.611,0.103c-0.185,0.067-0.351,0.158-0.498,0.27
		c-0.148,0.112-0.274,0.24-0.379,0.384c-0.104,0.145-0.184,0.297-0.239,0.456c-0.072,0.2-0.116,0.393-0.132,0.576
		c-0.016,0.185-0.024,0.384-0.024,0.601v3.348H126.126z"/>
	<path fill="#BED731" d="M133.158,125.882v-1.056h0.876v1.056H133.158z"/>
	<path fill="#BED731" d="M140.538,121.622c-0.128-0.464-0.348-0.826-0.659-1.086c-0.312-0.26-0.708-0.391-1.188-0.391
		c-0.368,0-0.684,0.076-0.948,0.229c-0.264,0.152-0.479,0.354-0.647,0.605s-0.292,0.536-0.372,0.853s-0.12,0.634-0.12,0.954
		c0,0.328,0.038,0.647,0.114,0.96c0.075,0.312,0.197,0.592,0.365,0.84c0.169,0.248,0.385,0.446,0.648,0.594
		c0.264,0.148,0.584,0.222,0.96,0.222c0.536,0,0.966-0.147,1.29-0.443s0.53-0.704,0.618-1.225h0.768
		c-0.063,0.345-0.166,0.658-0.306,0.942s-0.32,0.528-0.54,0.732s-0.482,0.361-0.786,0.474s-0.652,0.168-1.044,0.168
		c-0.496,0-0.924-0.084-1.284-0.252c-0.359-0.168-0.656-0.397-0.888-0.69c-0.232-0.292-0.404-0.638-0.516-1.037
		c-0.112-0.4-0.168-0.828-0.168-1.284c0-0.433,0.062-0.847,0.186-1.242c0.124-0.396,0.306-0.746,0.546-1.05
		c0.24-0.305,0.538-0.546,0.895-0.727c0.355-0.18,0.766-0.27,1.229-0.27c0.72,0,1.302,0.172,1.746,0.516s0.722,0.88,0.834,1.608
		H140.538z"/>
	<path fill="#BED731" d="M145.278,126.05c-0.4-0.008-0.774-0.08-1.122-0.216s-0.652-0.34-0.912-0.612
		c-0.26-0.271-0.466-0.612-0.618-1.02c-0.151-0.408-0.228-0.884-0.228-1.429c0-0.456,0.06-0.882,0.18-1.277
		c0.12-0.396,0.3-0.742,0.54-1.038s0.54-0.53,0.9-0.702c0.359-0.172,0.78-0.258,1.26-0.258c0.488,0,0.912,0.086,1.272,0.258
		c0.359,0.172,0.659,0.404,0.899,0.696s0.418,0.638,0.534,1.038c0.116,0.399,0.174,0.827,0.174,1.283
		c0,0.496-0.068,0.944-0.204,1.345c-0.136,0.399-0.33,0.744-0.582,1.031c-0.252,0.288-0.556,0.511-0.912,0.666
		C146.104,125.972,145.71,126.05,145.278,126.05z M147.391,122.773c0-0.367-0.04-0.712-0.12-1.031
		c-0.08-0.32-0.204-0.599-0.372-0.834c-0.168-0.236-0.384-0.422-0.648-0.559c-0.264-0.136-0.588-0.204-0.972-0.204
		c-0.376,0-0.698,0.074-0.966,0.223c-0.269,0.147-0.486,0.344-0.654,0.588s-0.292,0.523-0.372,0.84s-0.12,0.642-0.12,0.978
		c0,0.385,0.046,0.738,0.139,1.062c0.092,0.324,0.226,0.602,0.401,0.834s0.396,0.412,0.66,0.54c0.265,0.128,0.568,0.191,0.912,0.191
		c0.376,0,0.698-0.073,0.966-0.222c0.269-0.147,0.486-0.346,0.654-0.594s0.292-0.528,0.372-0.84
		C147.351,123.434,147.391,123.109,147.391,122.773z"/>
	<path fill="#BED731" d="M150.103,125.882h-0.721v-6.216h0.721v0.936h0.023c0.185-0.359,0.448-0.634,0.792-0.821
		c0.344-0.188,0.721-0.282,1.128-0.282c0.288,0,0.532,0.032,0.732,0.096c0.2,0.064,0.37,0.15,0.51,0.258
		c0.14,0.108,0.256,0.234,0.349,0.378c0.092,0.145,0.169,0.301,0.233,0.469c0.208-0.408,0.486-0.71,0.834-0.906
		c0.349-0.196,0.746-0.294,1.194-0.294c0.424,0,0.762,0.07,1.014,0.21s0.446,0.324,0.582,0.552c0.136,0.229,0.226,0.49,0.271,0.786
		c0.044,0.296,0.065,0.6,0.065,0.912v3.924h-0.72v-4.296c0-0.448-0.094-0.8-0.282-1.056c-0.188-0.257-0.538-0.385-1.05-0.385
		c-0.264,0-0.519,0.059-0.762,0.175c-0.244,0.115-0.458,0.294-0.643,0.533c-0.08,0.104-0.146,0.227-0.198,0.366
		c-0.052,0.141-0.094,0.286-0.126,0.438c-0.031,0.151-0.054,0.304-0.065,0.456c-0.012,0.151-0.019,0.292-0.019,0.42v3.348h-0.72
		v-4.296c0-0.448-0.094-0.8-0.282-1.056c-0.188-0.257-0.538-0.385-1.05-0.385c-0.264,0-0.518,0.059-0.762,0.175
		c-0.244,0.115-0.458,0.294-0.642,0.533c-0.08,0.104-0.146,0.227-0.198,0.366c-0.053,0.141-0.095,0.286-0.126,0.438
		c-0.032,0.151-0.055,0.304-0.066,0.456c-0.012,0.151-0.018,0.292-0.018,0.42V125.882z"/>
</g>
<g>
	<g>
		<path fill="#BED731" d="M189.927,13.978c6.691,0,10.052,5.113,10.052,10.227c0,5.114-3.36,10.198-10.052,10.198h-7.334V13.978
			H189.927z M189.927,31.451c4.733,0,7.13-3.623,7.13-7.247c0-3.623-2.396-7.275-7.13-7.275h-4.383v14.522H189.927z"/>
		<path fill="#BED731" d="M210.087,13.978c2.571,0,4.208,1.461,4.968,3.36c0.818,2.016,0.555,4.354-1.49,5.814
			c2.337,0.993,3.185,3.156,3.185,5.084c0,3.068-2.016,6.166-5.932,6.166h-9.233V13.978H210.087z M204.506,22.101h5.522
			c3.215,0,3.272-5.318,0.059-5.318h-5.581V22.101z M204.506,31.539h6.312c1.987,0,2.98-1.666,2.98-3.273
			c0-1.606-0.993-3.243-2.98-3.243h-6.312V31.539z"/>
		<path fill="#BED731" d="M217.799,13.978h13.851l0.993,1.87l-11.571,15.925h11.396v2.63H218.12l-1.198-1.637l11.806-16.101h-10.929
			V13.978z"/>
	</g>
	<g>
		<path fill="#BED731" d="M182.201,36.065h4.467v1.313h-1.511v7.883h-1.445v-7.883h-1.511V36.065z"/>
		<path fill="#BED731" d="M188.744,39.94h1.983v1.314h-1.983v2.693h2.496v1.313h-3.941v-9.196h3.941v1.313h-2.496V39.94z"/>
		<path fill="#BED731" d="M196.326,41.833v1.222c0,1.472-0.736,2.312-2.155,2.312s-2.154-0.841-2.154-2.312v-4.782
			c0-1.472,0.735-2.312,2.154-2.312s2.155,0.841,2.155,2.312v0.894h-1.366v-0.985c0-0.657-0.289-0.907-0.749-0.907
			s-0.749,0.25-0.749,0.907v4.966c0,0.657,0.289,0.894,0.749,0.894s0.749-0.236,0.749-0.894v-1.313H196.326z"/>
		<path fill="#BED731" d="M198.651,45.262h-1.445v-9.196h1.445v3.941h1.643v-3.941h1.471v9.196h-1.471V41.32h-1.643V45.262z"/>
		<path fill="#BED731" d="M204.104,38.601v6.661h-1.301v-9.196h1.812l1.484,5.505v-5.505h1.288v9.196h-1.484L204.104,38.601z"/>
		<path fill="#BED731" d="M208.31,38.272c0-1.472,0.775-2.312,2.194-2.312s2.193,0.841,2.193,2.312v4.782
			c0,1.472-0.774,2.312-2.193,2.312s-2.194-0.841-2.194-2.312V38.272z M209.755,43.146c0,0.657,0.289,0.906,0.749,0.906
			s0.749-0.249,0.749-0.906v-4.966c0-0.657-0.289-0.907-0.749-0.907s-0.749,0.25-0.749,0.907V43.146z"/>
		<path fill="#BED731" d="M213.631,36.065h1.445v7.883h2.378v1.313h-3.823V36.065z"/>
		<path fill="#BED731" d="M217.967,38.272c0-1.472,0.775-2.312,2.194-2.312s2.193,0.841,2.193,2.312v4.782
			c0,1.472-0.774,2.312-2.193,2.312s-2.194-0.841-2.194-2.312V38.272z M219.412,43.146c0,0.657,0.289,0.906,0.749,0.906
			s0.749-0.249,0.749-0.906v-4.966c0-0.657-0.289-0.907-0.749-0.907s-0.749,0.25-0.749,0.907V43.146z"/>
		<path fill="#BED731" d="M225.457,40.138h2.023v2.917c0,1.472-0.736,2.312-2.155,2.312s-2.154-0.841-2.154-2.312v-4.782
			c0-1.472,0.735-2.312,2.154-2.312s2.155,0.841,2.155,2.312v0.894h-1.366v-0.985c0-0.657-0.289-0.907-0.749-0.907
			s-0.749,0.25-0.749,0.907v4.966c0,0.657,0.289,0.894,0.749,0.894s0.749-0.236,0.749-0.894v-1.694h-0.657V40.138z"/>
		<path fill="#BED731" d="M229.569,42.214l-1.826-6.148h1.511l1.104,4.19l1.104-4.19h1.38l-1.826,6.148v3.048h-1.445V42.214z"/>
	</g>
</g>
<g>
	<rect x="18.434" y="26.438" fill="#BED731" width="2.189" height="2.189"/>
	<path fill="#BED731" d="M22.811,24.249H25h2.189h2.189h2.189h2.189V22.06v-2.189v-2.189v-2.189v-2.189v-2.189V8.927h-2.189h-2.189
		h-2.189H25h-2.189h-2.189h-2.189v2.189v2.189v2.189v2.189v2.189v2.189v2.189h2.189H22.811z M20.622,19.871v-2.189v-2.189v-2.189
		v-2.189h2.189H25h2.189h2.189h2.189v2.189v2.189v2.189v2.189v2.189h-2.189h-2.189H25h-2.189h-2.189V19.871z"/>
	<polygon fill="#BED731" points="20.622,33.004 18.434,33.004 18.434,35.193 20.622,35.193 22.811,35.193 22.811,33.004 	"/>
	<polygon fill="#BED731" points="20.622,41.759 20.622,43.948 20.622,46.137 22.811,46.137 25,46.137 27.189,46.137 27.189,43.948 
		25,43.948 22.811,43.948 22.811,41.759 22.811,39.57 20.622,39.57 	"/>
	<polygon fill="#BED731" points="27.189,19.871 29.378,19.871 29.378,17.682 29.378,15.494 29.378,13.305 27.189,13.305 25,13.305 
		22.811,13.305 22.811,15.494 22.811,17.682 22.811,19.871 25,19.871 	"/>
	<polygon fill="#BED731" points="27.189,28.626 29.378,28.626 29.378,30.815 29.378,33.004 31.566,33.004 33.755,33.004 
		33.755,35.193 35.944,35.193 35.944,37.382 33.755,37.382 33.755,39.57 35.944,39.57 35.944,41.759 38.133,41.759 38.133,39.57 
		38.133,37.382 40.322,37.382 40.322,35.193 42.51,35.193 44.699,35.193 46.888,35.193 46.888,33.004 44.699,33.004 42.51,33.004 
		40.322,33.004 40.322,30.815 38.133,30.815 35.944,30.815 35.944,28.626 33.755,28.626 33.755,30.815 31.566,30.815 31.566,28.626 
		33.755,28.626 33.755,26.438 31.566,26.438 29.378,26.438 27.189,26.438 25,26.438 22.811,26.438 22.811,28.626 20.622,28.626 
		20.622,30.815 22.811,30.815 25,30.815 25,28.626 	"/>
	<polygon fill="#BED731" points="25,52.703 22.811,52.703 22.811,54.892 22.811,57.081 22.811,59.27 25,59.27 27.189,59.27 
		29.378,59.27 29.378,57.081 29.378,54.892 29.378,52.703 27.189,52.703 	"/>
	<path fill="#BED731" d="M29.378,48.326h-2.189H25h-2.189h-2.189h-2.189v2.189v2.189v2.189v2.189v2.189v2.189v2.189h2.189h2.189H25
		h2.189h2.189h2.189h2.189v-2.189V59.27v-2.189v-2.189v-2.189v-2.189v-2.189h-2.189H29.378z M31.566,52.703v2.189v2.189v2.189v2.189
		h-2.189h-2.189H25h-2.189h-2.189V59.27v-2.189v-2.189v-2.189v-2.189h2.189H25h2.189h2.189h2.189V52.703z"/>
	<polygon fill="#BED731" points="33.755,41.759 33.755,39.57 31.566,39.57 31.566,37.382 33.755,37.382 33.755,35.193 
		31.566,35.193 29.378,35.193 27.189,35.193 27.189,33.004 27.189,30.815 25,30.815 25,33.004 25,35.193 22.811,35.193 
		22.811,37.382 22.811,39.57 25,39.57 25,41.759 27.189,41.759 29.378,41.759 29.378,43.948 31.566,43.948 31.566,41.759 	"/>
	<polygon fill="#BED731" points="40.322,46.137 42.51,46.137 42.51,43.948 40.322,43.948 38.133,43.948 35.944,43.948 
		35.944,41.759 33.755,41.759 33.755,43.948 31.566,43.948 31.566,46.137 33.755,46.137 35.944,46.137 35.944,48.326 38.133,48.326 
		38.133,46.137 	"/>
	<rect x="40.322" y="39.57" fill="#BED731" width="2.189" height="2.189"/>
	<rect x="42.51" y="8.927" fill="#BED731" width="2.189" height="2.189"/>
	<polygon fill="#BED731" points="44.699,30.815 46.888,30.815 46.888,28.626 44.699,28.626 42.51,28.626 40.322,28.626 
		40.322,30.815 42.51,30.815 	"/>
	<path fill="#BED731" d="M44.699,50.514h2.189v-2.189h-2.189H42.51h-2.189h-2.189v2.189h-2.189v2.189v2.189v2.189v2.189h2.189v2.189
		h-2.189v2.189h2.189h2.189v-2.189h2.189V59.27h-2.189v-2.189h2.189v-2.189h2.189v-2.189V50.514z M40.322,52.703v-2.189h2.189v2.189
		H40.322z"/>
	<polygon fill="#BED731" points="46.888,13.305 46.888,11.116 44.699,11.116 44.699,13.305 44.699,15.494 42.51,15.494 
		40.322,15.494 40.322,17.682 38.133,17.682 38.133,15.494 40.322,15.494 40.322,13.305 40.322,11.116 40.322,8.927 38.133,8.927 
		38.133,11.116 38.133,13.305 35.944,13.305 35.944,15.494 35.944,17.682 35.944,19.871 35.944,22.06 35.944,24.249 35.944,26.438 
		38.133,26.438 40.322,26.438 42.51,26.438 42.51,24.249 42.51,22.06 40.322,22.06 40.322,24.249 38.133,24.249 38.133,22.06 
		40.322,22.06 40.322,19.871 42.51,19.871 42.51,17.682 44.699,17.682 46.888,17.682 46.888,15.494 	"/>
	<rect x="44.699" y="22.06" fill="#BED731" width="2.189" height="2.189"/>
	<rect x="46.888" y="8.927" fill="#BED731" width="2.189" height="2.189"/>
	<rect x="46.888" y="24.249" fill="#BED731" width="2.189" height="2.189"/>
	<polygon fill="#BED731" points="49.077,15.494 51.266,15.494 51.266,13.305 53.454,13.305 53.454,15.494 55.643,15.494 
		55.643,13.305 55.643,11.116 55.643,8.927 53.454,8.927 53.454,11.116 51.266,11.116 49.077,11.116 49.077,13.305 	"/>
	<polygon fill="#BED731" points="49.077,24.249 51.266,24.249 51.266,22.06 53.454,22.06 53.454,24.249 55.643,24.249 55.643,22.06 
		55.643,19.871 55.643,17.682 53.454,17.682 53.454,19.871 51.266,19.871 49.077,19.871 49.077,17.682 46.888,17.682 46.888,19.871 
		46.888,22.06 49.077,22.06 	"/>
	<rect x="49.077" y="33.004" fill="#BED731" width="2.189" height="2.189"/>
	<polygon fill="#BED731" points="51.266,41.759 51.266,43.948 53.454,43.948 53.454,41.759 53.454,39.57 51.266,39.57 
		51.266,37.382 49.077,37.382 46.888,37.382 44.699,37.382 44.699,39.57 46.888,39.57 46.888,41.759 44.699,41.759 44.699,43.948 
		44.699,46.137 46.888,46.137 46.888,43.948 49.077,43.948 49.077,41.759 	"/>
	<rect x="49.077" y="43.948" fill="#BED731" width="2.189" height="2.189"/>
	<rect x="49.077" y="50.514" fill="#BED731" width="2.189" height="2.189"/>
	<rect x="49.077" y="61.458" fill="#BED731" width="2.189" height="2.189"/>
	<polygon fill="#BED731" points="51.266,26.438 49.077,26.438 49.077,28.626 51.266,28.626 53.454,28.626 53.454,26.438 	"/>
	<rect x="51.266" y="30.815" fill="#BED731" width="2.189" height="2.189"/>
	<rect x="53.454" y="33.004" fill="#BED731" width="2.189" height="2.189"/>
	<polygon fill="#BED731" points="57.832,30.815 57.832,28.626 55.643,28.626 53.454,28.626 53.454,30.815 55.643,30.815 	"/>
	<rect x="57.832" y="48.326" fill="#BED731" width="2.189" height="2.189"/>
	<polygon fill="#BED731" points="60.021,30.815 62.21,30.815 62.21,28.626 64.398,28.626 66.587,28.626 68.776,28.626 
		68.776,26.438 66.587,26.438 64.398,26.438 62.21,26.438 60.021,26.438 57.832,26.438 57.832,28.626 60.021,28.626 	"/>
	<rect x="60.021" y="37.382" fill="#BED731" width="2.189" height="2.189"/>
	<polygon fill="#BED731" points="64.398,33.004 66.587,33.004 66.587,30.815 64.398,30.815 62.21,30.815 62.21,33.004 	"/>
	<rect x="62.21" y="35.193" fill="#BED731" width="2.189" height="2.189"/>
	<polygon fill="#BED731" points="64.398,13.305 62.21,13.305 62.21,15.494 62.21,17.682 62.21,19.871 64.398,19.871 66.587,19.871 
		68.776,19.871 68.776,17.682 68.776,15.494 68.776,13.305 66.587,13.305 	"/>
	<polygon fill="#BED731" points="64.398,39.57 64.398,41.759 64.398,43.948 66.587,43.948 66.587,41.759 66.587,39.57 
		66.587,37.382 64.398,37.382 	"/>
	<path fill="#BED731" d="M64.398,46.137v-2.189H62.21v-2.189h-2.189V39.57h-2.189v-2.189h2.189v-2.189h-2.189h-2.189v2.189v2.189
		v2.189h2.189v2.189h-2.189h-2.189v2.189h-2.189v2.189h2.189v2.189v2.189h-2.189v2.189h2.189v2.189h2.189h2.189h2.189v-2.189h2.189
		v2.189h2.189v-2.189h2.189v2.189v2.189h2.189v-2.189h2.189v2.189v2.189h-2.189h-2.189V59.27h-2.189H62.21v-2.189h-2.189v2.189
		h-2.189h-2.189h-2.189v-2.189h-2.189v-2.189h-2.189h-2.189h-2.189v2.189h2.189v2.189h-2.189v2.189v2.189h2.189v-2.189h2.189V59.27
		h2.189v2.189h2.189h2.189v2.189h2.189h2.189h2.189h2.189h2.189h2.189h2.189h2.189v-2.189V59.27v-2.189v-2.189v-2.189h-2.189v2.189
		h-2.189v-2.189h-2.189v-2.189h2.189h2.189h2.189v-2.189h-2.189h-2.189v-2.189v-2.189h-2.189v2.189H64.398z M60.021,52.703h-2.189
		h-2.189v-2.189v-2.189v-2.189h2.189h2.189h2.189v2.189v2.189v2.189H60.021z"/>
	<polygon fill="#BED731" points="70.965,28.626 68.776,28.626 68.776,30.815 68.776,33.004 70.965,33.004 70.965,35.193 
		68.776,35.193 66.587,35.193 66.587,37.382 68.776,37.382 68.776,39.57 68.776,41.759 70.965,41.759 70.965,43.948 73.154,43.948 
		73.154,41.759 73.154,39.57 70.965,39.57 70.965,37.382 73.154,37.382 73.154,35.193 73.154,33.004 73.154,30.815 70.965,30.815 	
		"/>
	<path fill="#BED731" d="M70.965,8.927h-2.189h-2.189h-2.189H62.21h-2.189h-2.189v2.189v2.189v2.189v2.189v2.189v2.189v2.189h2.189
		h2.189h2.189h2.189h2.189h2.189h2.189V22.06v-2.189v-2.189v-2.189v-2.189v-2.189V8.927H70.965z M70.965,13.305v2.189v2.189v2.189
		v2.189h-2.189h-2.189h-2.189H62.21h-2.189v-2.189v-2.189v-2.189v-2.189v-2.189h2.189h2.189h2.189h2.189h2.189V13.305z"/>
</g>
<g>
</g>
<g>
</g>
<g>
</g>
<g>
</g>
<g>
</g>
<g>
</g>
</svg>
