<?xml version="1.0" encoding="utf-8"?>
<!-- Generator: Adobe Illustrator 17.1.0, SVG Export Plug-In . SVG Version: 6.00 Build 0)  -->
<!DOCTYPE svg PUBLIC "-//W3C//DTD SVG 1.1//EN" "http://www.w3.org/Graphics/SVG/1.1/DTD/svg11.dtd">
<svg version="1.1" id="Layer_1" xmlns="http://www.w3.org/2000/svg" xmlns:xlink="http://www.w3.org/1999/xlink" x="0px" y="0px"
	 viewBox="0 0 252 144" enable-background="new 0 0 252 144" xml:space="preserve">
<g>
	<rect x="-1" width="252" height="144"/>
	<g>
		<line fill="none" x1="8.8" y1="0" x2="8.8" y2="18.4"/>
		<line fill="none" x1="18.5" y1="9.2" x2="-1" y2="9.2"/>
		<rect x="-1" y="0" fill="#212121" width="19.5" height="18.4"/>
		<polygon points="-1,18.4 8.8,9.2 -1,9.2 		"/>
		<polygon points="8.8,9.2 18.5,0 8.8,0 		"/>
		<polygon fill="#1C1C1C" points="8.8,9.2 -1,18.4 8.8,18.4 		"/>
		<polygon fill="#1C1C1C" points="18.5,0 8.8,9.2 18.5,9.2 		"/>
	</g>
	<g>
		<line fill="none" x1="47.9" y1="53.8" x2="47.9" y2="72.1"/>
		<line fill="none" x1="57.6" y1="62.9" x2="38.1" y2="62.9"/>
		<rect x="38.1" y="53.8" fill="#212121" width="19.5" height="18.4"/>
		<polygon points="38.1,72.1 47.9,62.9 38.1,62.9 		"/>
		<polygon points="47.9,62.9 57.6,53.8 47.9,53.8 		"/>
		<polygon fill="#1C1C1C" points="47.9,62.9 38.1,72.1 47.9,72.1 		"/>
		<polygon fill="#1C1C1C" points="57.6,53.8 47.9,62.9 57.6,62.9 		"/>
	</g>
	<g>
		<line fill="none" x1="28.3" y1="53.8" x2="28.3" y2="72.1"/>
		<line fill="none" x1="38.1" y1="62.9" x2="18.5" y2="62.9"/>
		<rect x="18.5" y="53.8" fill="#212121" width="19.5" height="18.4"/>
		<polygon points="18.5,72.1 28.3,62.9 18.5,62.9 		"/>
		<polygon points="28.3,62.9 38.1,53.8 28.3,53.8 		"/>
		<polygon fill="#1C1C1C" points="28.3,62.9 18.5,72.1 28.3,72.1 		"/>
		<polygon fill="#1C1C1C" points="38.1,53.8 28.3,62.9 38.1,62.9 		"/>
	</g>
	<g>
		<line fill="none" x1="8.8" y1="53.8" x2="8.8" y2="72.1"/>
		<line fill="none" x1="18.5" y1="62.9" x2="-1" y2="62.9"/>
		<rect x="-1" y="53.8" fill="#212121" width="19.5" height="18.4"/>
		<polygon points="-1,72.1 8.8,62.9 -1,62.9 		"/>
		<polygon points="8.8,62.9 18.5,53.8 8.8,53.8 		"/>
		<polygon fill="#1C1C1C" points="8.8,62.9 -1,72.1 8.8,72.1 		"/>
		<polygon fill="#1C1C1C" points="18.5,53.8 8.8,62.9 18.5,62.9 		"/>
	</g>
	<g>
		<line fill="none" x1="47.9" y1="36.8" x2="47.9" y2="55.1"/>
		<line fill="none" x1="57.6" y1="45.9" x2="38.1" y2="45.9"/>
		<rect x="38.1" y="36.8" fill="#212121" width="19.5" height="18.4"/>
		<polygon points="38.1,55.1 47.9,45.9 38.1,45.9 		"/>
		<polygon points="47.9,45.9 57.6,36.8 47.9,36.8 		"/>
		<polygon fill="#1C1C1C" points="47.9,45.9 38.1,55.1 47.9,55.1 		"/>
		<polygon fill="#1C1C1C" points="57.6,36.8 47.9,45.9 57.6,45.9 		"/>
	</g>
	<g>
		<line fill="none" x1="28.3" y1="36.8" x2="28.3" y2="55.1"/>
		<line fill="none" x1="38.1" y1="45.9" x2="18.5" y2="45.9"/>
		<rect x="18.5" y="36.8" fill="#212121" width="19.5" height="18.4"/>
		<polygon points="18.5,55.1 28.3,45.9 18.5,45.9 		"/>
		<polygon points="28.3,45.9 38.1,36.8 28.3,36.8 		"/>
		<polygon fill="#1C1C1C" points="28.3,45.9 18.5,55.1 28.3,55.1 		"/>
		<polygon fill="#1C1C1C" points="38.1,36.8 28.3,45.9 38.1,45.9 		"/>
	</g>
	<g>
		<line fill="none" x1="8.8" y1="36.8" x2="8.8" y2="55.1"/>
		<line fill="none" x1="18.5" y1="45.9" x2="-1" y2="45.9"/>
		<rect x="-1" y="36.8" fill="#212121" width="19.5" height="18.4"/>
		<polygon points="-1,55.1 8.8,45.9 -1,45.9 		"/>
		<polygon points="8.8,45.9 18.5,36.8 8.8,36.8 		"/>
		<polygon fill="#1C1C1C" points="8.8,45.9 -1,55.1 8.8,55.1 		"/>
		<polygon fill="#1C1C1C" points="18.5,36.8 8.8,45.9 18.5,45.9 		"/>
	</g>
	<g>
		<line fill="none" x1="47.9" y1="18.4" x2="47.9" y2="36.8"/>
		<line fill="none" x1="57.6" y1="27.6" x2="38.1" y2="27.6"/>
		<rect x="38.1" y="18.4" fill="#212121" width="19.5" height="18.4"/>
		<polygon points="38.1,36.8 47.9,27.6 38.1,27.6 		"/>
		<polygon points="47.9,27.6 57.6,18.4 47.9,18.4 		"/>
		<polygon fill="#1C1C1C" points="47.9,27.6 38.1,36.8 47.9,36.8 		"/>
		<polygon fill="#1C1C1C" points="57.6,18.4 47.9,27.6 57.6,27.6 		"/>
	</g>
	<g>
		<line fill="none" x1="28.3" y1="18.4" x2="28.3" y2="36.8"/>
		<line fill="none" x1="38.1" y1="27.6" x2="18.5" y2="27.6"/>
		<rect x="18.5" y="18.4" fill="#212121" width="19.5" height="18.4"/>
		<polygon points="18.5,36.8 28.3,27.6 18.5,27.6 		"/>
		<polygon points="28.3,27.6 38.1,18.4 28.3,18.4 		"/>
		<polygon fill="#1C1C1C" points="28.3,27.6 18.5,36.8 28.3,36.8 		"/>
		<polygon fill="#1C1C1C" points="38.1,18.4 28.3,27.6 38.1,27.6 		"/>
	</g>
	<g>
		<line fill="none" x1="8.8" y1="18.4" x2="8.8" y2="36.8"/>
		<line fill="none" x1="18.5" y1="27.6" x2="-1" y2="27.6"/>
		<rect x="-1" y="18.4" fill="#212121" width="19.5" height="18.4"/>
		<polygon points="-1,36.8 8.8,27.6 -1,27.6 		"/>
		<polygon points="8.8,27.6 18.5,18.4 8.8,18.4 		"/>
		<polygon fill="#1C1C1C" points="8.8,27.6 -1,36.8 8.8,36.8 		"/>
		<polygon fill="#1C1C1C" points="18.5,18.4 8.8,27.6 18.5,27.6 		"/>
	</g>
	<g>
		<line fill="none" x1="47.9" y1="0" x2="47.9" y2="18.4"/>
		<line fill="none" x1="57.6" y1="9.2" x2="38.1" y2="9.2"/>
		<rect x="38.1" y="0" fill="#212121" width="19.5" height="18.4"/>
		<polygon points="38.1,18.4 47.9,9.2 38.1,9.2 		"/>
		<polygon points="47.9,9.2 57.6,0 47.9,0 		"/>
		<polygon fill="#1C1C1C" points="47.9,9.2 38.1,18.4 47.9,18.4 		"/>
		<polygon fill="#1C1C1C" points="57.6,0 47.9,9.2 57.6,9.2 		"/>
	</g>
	<g>
		<line fill="none" x1="28.3" y1="0" x2="28.3" y2="18.4"/>
		<line fill="none" x1="38.1" y1="9.2" x2="18.5" y2="9.2"/>
		<rect x="18.5" y="0" fill="#212121" width="19.5" height="18.4"/>
		<polygon points="18.5,18.4 28.3,9.2 18.5,9.2 		"/>
		<polygon points="28.3,9.2 38.1,0 28.3,0 		"/>
		<polygon fill="#1C1C1C" points="28.3,9.2 18.5,18.4 28.3,18.4 		"/>
		<polygon fill="#1C1C1C" points="38.1,0 28.3,9.2 38.1,9.2 		"/>
	</g>
	<g>
		<line fill="none" x1="66.3" y1="-0.2" x2="66.3" y2="18.2"/>
		<line fill="none" x1="76.1" y1="9" x2="56.5" y2="9"/>
		<rect x="56.5" y="-0.2" fill="#212121" width="19.5" height="18.4"/>
		<polygon points="56.5,18.2 66.3,9 56.5,9 		"/>
		<polygon points="66.3,9 76.1,-0.2 66.3,-0.2 		"/>
		<polygon fill="#1C1C1C" points="66.3,9 56.5,18.2 66.3,18.2 		"/>
		<polygon fill="#1C1C1C" points="76.1,-0.2 66.3,9 76.1,9 		"/>
	</g>
	<g>
		<line fill="none" x1="105.4" y1="53.5" x2="105.4" y2="71.9"/>
		<line fill="none" x1="115.2" y1="62.7" x2="95.6" y2="62.7"/>
		<rect x="95.6" y="53.5" fill="#212121" width="19.5" height="18.4"/>
		<polygon points="95.6,71.9 105.4,62.7 95.6,62.7 		"/>
		<polygon points="105.4,62.7 115.2,53.5 105.4,53.5 		"/>
		<polygon fill="#1C1C1C" points="105.4,62.7 95.6,71.9 105.4,71.9 		"/>
		<polygon fill="#1C1C1C" points="115.2,53.5 105.4,62.7 115.2,62.7 		"/>
	</g>
	<g>
		<line fill="none" x1="85.8" y1="53.5" x2="85.8" y2="71.9"/>
		<line fill="none" x1="95.6" y1="62.7" x2="76.1" y2="62.7"/>
		<rect x="76.1" y="53.5" fill="#212121" width="19.5" height="18.4"/>
		<polygon points="76.1,71.9 85.8,62.7 76.1,62.7 		"/>
		<polygon points="85.8,62.7 95.6,53.5 85.8,53.5 		"/>
		<polygon fill="#1C1C1C" points="85.8,62.7 76.1,71.9 85.8,71.9 		"/>
		<polygon fill="#1C1C1C" points="95.6,53.5 85.8,62.7 95.6,62.7 		"/>
	</g>
	<g>
		<line fill="none" x1="66.3" y1="53.5" x2="66.3" y2="71.9"/>
		<line fill="none" x1="76.1" y1="62.7" x2="56.5" y2="62.7"/>
		<rect x="56.5" y="53.5" fill="#212121" width="19.5" height="18.4"/>
		<polygon points="56.5,71.9 66.3,62.7 56.5,62.7 		"/>
		<polygon points="66.3,62.7 76.1,53.5 66.3,53.5 		"/>
		<polygon fill="#1C1C1C" points="66.3,62.7 56.5,71.9 66.3,71.9 		"/>
		<polygon fill="#1C1C1C" points="76.1,53.5 66.3,62.7 76.1,62.7 		"/>
	</g>
	<g>
		<line fill="none" x1="105.4" y1="36.5" x2="105.4" y2="54.9"/>
		<line fill="none" x1="115.2" y1="45.7" x2="95.6" y2="45.7"/>
		<rect x="95.6" y="36.5" fill="#212121" width="19.5" height="18.4"/>
		<polygon points="95.6,54.9 105.4,45.7 95.6,45.7 		"/>
		<polygon points="105.4,45.7 115.2,36.5 105.4,36.5 		"/>
		<polygon fill="#1C1C1C" points="105.4,45.7 95.6,54.9 105.4,54.9 		"/>
		<polygon fill="#1C1C1C" points="115.2,36.5 105.4,45.7 115.2,45.7 		"/>
	</g>
	<g>
		<line fill="none" x1="85.8" y1="36.5" x2="85.8" y2="54.9"/>
		<line fill="none" x1="95.6" y1="45.7" x2="76.1" y2="45.7"/>
		<rect x="76.1" y="36.5" fill="#212121" width="19.5" height="18.4"/>
		<polygon points="76.1,54.9 85.8,45.7 76.1,45.7 		"/>
		<polygon points="85.8,45.7 95.6,36.5 85.8,36.5 		"/>
		<polygon fill="#1C1C1C" points="85.8,45.7 76.1,54.9 85.8,54.9 		"/>
		<polygon fill="#1C1C1C" points="95.6,36.5 85.8,45.7 95.6,45.7 		"/>
	</g>
	<g>
		<line fill="none" x1="66.3" y1="36.5" x2="66.3" y2="54.9"/>
		<line fill="none" x1="76.1" y1="45.7" x2="56.5" y2="45.7"/>
		<rect x="56.5" y="36.5" fill="#212121" width="19.5" height="18.4"/>
		<polygon points="56.5,54.9 66.3,45.7 56.5,45.7 		"/>
		<polygon points="66.3,45.7 76.1,36.5 66.3,36.5 		"/>
		<polygon fill="#1C1C1C" points="66.3,45.7 56.5,54.9 66.3,54.9 		"/>
		<polygon fill="#1C1C1C" points="76.1,36.5 66.3,45.7 76.1,45.7 		"/>
	</g>
	<g>
		<line fill="none" x1="105.4" y1="18.2" x2="105.4" y2="36.5"/>
		<line fill="none" x1="115.2" y1="27.3" x2="95.6" y2="27.3"/>
		<rect x="95.6" y="18.2" fill="#212121" width="19.5" height="18.4"/>
		<polygon points="95.6,36.5 105.4,27.3 95.6,27.3 		"/>
		<polygon points="105.4,27.3 115.2,18.2 105.4,18.2 		"/>
		<polygon fill="#1C1C1C" points="105.4,27.3 95.6,36.5 105.4,36.5 		"/>
		<polygon fill="#1C1C1C" points="115.2,18.2 105.4,27.3 115.2,27.3 		"/>
	</g>
	<g>
		<line fill="none" x1="85.8" y1="18.2" x2="85.8" y2="36.5"/>
		<line fill="none" x1="95.6" y1="27.3" x2="76.1" y2="27.3"/>
		<rect x="76.1" y="18.2" fill="#212121" width="19.5" height="18.4"/>
		<polygon points="76.1,36.5 85.8,27.3 76.1,27.3 		"/>
		<polygon points="85.8,27.3 95.6,18.2 85.8,18.2 		"/>
		<polygon fill="#1C1C1C" points="85.8,27.3 76.1,36.5 85.8,36.5 		"/>
		<polygon fill="#1C1C1C" points="95.6,18.2 85.8,27.3 95.6,27.3 		"/>
	</g>
	<g>
		<line fill="none" x1="66.3" y1="18.2" x2="66.3" y2="36.5"/>
		<line fill="none" x1="76.1" y1="27.3" x2="56.5" y2="27.3"/>
		<rect x="56.5" y="18.2" fill="#212121" width="19.5" height="18.4"/>
		<polygon points="56.5,36.5 66.3,27.3 56.5,27.3 		"/>
		<polygon points="66.3,27.3 76.1,18.2 66.3,18.2 		"/>
		<polygon fill="#1C1C1C" points="66.3,27.3 56.5,36.5 66.3,36.5 		"/>
		<polygon fill="#1C1C1C" points="76.1,18.2 66.3,27.3 76.1,27.3 		"/>
	</g>
	<g>
		<line fill="none" x1="105.4" y1="-0.2" x2="105.4" y2="18.2"/>
		<line fill="none" x1="115.2" y1="9" x2="95.6" y2="9"/>
		<rect x="95.6" y="-0.2" fill="#212121" width="19.5" height="18.4"/>
		<polygon points="95.6,18.2 105.4,9 95.6,9 		"/>
		<polygon points="105.4,9 115.2,-0.2 105.4,-0.2 		"/>
		<polygon fill="#1C1C1C" points="105.4,9 95.6,18.2 105.4,18.2 		"/>
		<polygon fill="#1C1C1C" points="115.2,-0.2 105.4,9 115.2,9 		"/>
	</g>
	<g>
		<line fill="none" x1="85.8" y1="-0.2" x2="85.8" y2="18.2"/>
		<line fill="none" x1="95.6" y1="9" x2="76.1" y2="9"/>
		<rect x="76.1" y="-0.2" fill="#212121" width="19.5" height="18.4"/>
		<polygon points="76.1,18.2 85.8,9 76.1,9 		"/>
		<polygon points="85.8,9 95.6,-0.2 85.8,-0.2 		"/>
		<polygon fill="#1C1C1C" points="85.8,9 76.1,18.2 85.8,18.2 		"/>
		<polygon fill="#1C1C1C" points="95.6,-0.2 85.8,9 95.6,9 		"/>
	</g>
	<g>
		<line fill="none" x1="123.9" y1="-0.2" x2="123.9" y2="18.2"/>
		<line fill="none" x1="133.7" y1="9" x2="114.1" y2="9"/>
		<rect x="114.1" y="-0.2" fill="#212121" width="19.5" height="18.4"/>
		<polygon points="114.1,18.2 123.9,9 114.1,9 		"/>
		<polygon points="123.9,9 133.7,-0.2 123.9,-0.2 		"/>
		<polygon fill="#1C1C1C" points="123.9,9 114.1,18.2 123.9,18.2 		"/>
		<polygon fill="#1C1C1C" points="133.7,-0.2 123.9,9 133.7,9 		"/>
	</g>
	<g>
		<line fill="none" x1="163" y1="53.5" x2="163" y2="71.9"/>
		<line fill="none" x1="172.8" y1="62.7" x2="153.2" y2="62.7"/>
		<rect x="153.2" y="53.5" fill="#212121" width="19.5" height="18.4"/>
		<polygon points="153.2,71.9 163,62.7 153.2,62.7 		"/>
		<polygon points="163,62.7 172.8,53.5 163,53.5 		"/>
		<polygon fill="#1C1C1C" points="163,62.7 153.2,71.9 163,71.9 		"/>
		<polygon fill="#1C1C1C" points="172.8,53.5 163,62.7 172.8,62.7 		"/>
	</g>
	<g>
		<line fill="none" x1="143.4" y1="53.5" x2="143.4" y2="71.9"/>
		<line fill="none" x1="153.2" y1="62.7" x2="133.7" y2="62.7"/>
		<rect x="133.7" y="53.5" fill="#212121" width="19.5" height="18.4"/>
		<polygon points="133.7,71.9 143.4,62.7 133.7,62.7 		"/>
		<polygon points="143.4,62.7 153.2,53.5 143.4,53.5 		"/>
		<polygon fill="#1C1C1C" points="143.4,62.7 133.7,71.9 143.4,71.9 		"/>
		<polygon fill="#1C1C1C" points="153.2,53.5 143.4,62.7 153.2,62.7 		"/>
	</g>
	<g>
		<line fill="none" x1="123.9" y1="53.5" x2="123.9" y2="71.9"/>
		<line fill="none" x1="133.7" y1="62.7" x2="114.1" y2="62.7"/>
		<rect x="114.1" y="53.5" fill="#212121" width="19.5" height="18.4"/>
		<polygon points="114.1,71.9 123.9,62.7 114.1,62.7 		"/>
		<polygon points="123.9,62.7 133.7,53.5 123.9,53.5 		"/>
		<polygon fill="#1C1C1C" points="123.9,62.7 114.1,71.9 123.9,71.9 		"/>
		<polygon fill="#1C1C1C" points="133.7,53.5 123.9,62.7 133.7,62.7 		"/>
	</g>
	<g>
		<line fill="none" x1="163" y1="36.5" x2="163" y2="54.9"/>
		<line fill="none" x1="172.8" y1="45.7" x2="153.2" y2="45.7"/>
		<rect x="153.2" y="36.5" fill="#212121" width="19.5" height="18.4"/>
		<polygon points="153.2,54.9 163,45.7 153.2,45.7 		"/>
		<polygon points="163,45.7 172.8,36.5 163,36.5 		"/>
		<polygon fill="#1C1C1C" points="163,45.7 153.2,54.9 163,54.9 		"/>
		<polygon fill="#1C1C1C" points="172.8,36.5 163,45.7 172.8,45.7 		"/>
	</g>
	<g>
		<line fill="none" x1="143.4" y1="36.5" x2="143.4" y2="54.9"/>
		<line fill="none" x1="153.2" y1="45.7" x2="133.7" y2="45.7"/>
		<rect x="133.7" y="36.5" fill="#212121" width="19.5" height="18.4"/>
		<polygon points="133.7,54.9 143.4,45.7 133.7,45.7 		"/>
		<polygon points="143.4,45.7 153.2,36.5 143.4,36.5 		"/>
		<polygon fill="#1C1C1C" points="143.4,45.7 133.7,54.9 143.4,54.9 		"/>
		<polygon fill="#1C1C1C" points="153.2,36.5 143.4,45.7 153.2,45.7 		"/>
	</g>
	<g>
		<line fill="none" x1="123.9" y1="36.5" x2="123.9" y2="54.9"/>
		<line fill="none" x1="133.7" y1="45.7" x2="114.1" y2="45.7"/>
		<rect x="114.1" y="36.5" fill="#212121" width="19.5" height="18.4"/>
		<polygon points="114.1,54.9 123.9,45.7 114.1,45.7 		"/>
		<polygon points="123.9,45.7 133.7,36.5 123.9,36.5 		"/>
		<polygon fill="#1C1C1C" points="123.9,45.7 114.1,54.9 123.9,54.9 		"/>
		<polygon fill="#1C1C1C" points="133.7,36.5 123.9,45.7 133.7,45.7 		"/>
	</g>
	<g>
		<line fill="none" x1="163" y1="18.2" x2="163" y2="36.5"/>
		<line fill="none" x1="172.8" y1="27.3" x2="153.2" y2="27.3"/>
		<rect x="153.2" y="18.2" fill="#212121" width="19.5" height="18.4"/>
		<polygon points="153.2,36.5 163,27.3 153.2,27.3 		"/>
		<polygon points="163,27.3 172.8,18.2 163,18.2 		"/>
		<polygon fill="#1C1C1C" points="163,27.3 153.2,36.5 163,36.5 		"/>
		<polygon fill="#1C1C1C" points="172.8,18.2 163,27.3 172.8,27.3 		"/>
	</g>
	<g>
		<line fill="none" x1="143.4" y1="18.2" x2="143.4" y2="36.5"/>
		<line fill="none" x1="153.2" y1="27.3" x2="133.7" y2="27.3"/>
		<rect x="133.7" y="18.2" fill="#212121" width="19.5" height="18.4"/>
		<polygon points="133.7,36.5 143.4,27.3 133.7,27.3 		"/>
		<polygon points="143.4,27.3 153.2,18.2 143.4,18.2 		"/>
		<polygon fill="#1C1C1C" points="143.4,27.3 133.7,36.5 143.4,36.5 		"/>
		<polygon fill="#1C1C1C" points="153.2,18.2 143.4,27.3 153.2,27.3 		"/>
	</g>
	<g>
		<line fill="none" x1="123.9" y1="18.2" x2="123.9" y2="36.5"/>
		<line fill="none" x1="133.7" y1="27.3" x2="114.1" y2="27.3"/>
		<rect x="114.1" y="18.2" fill="#212121" width="19.5" height="18.4"/>
		<polygon points="114.1,36.5 123.9,27.3 114.1,27.3 		"/>
		<polygon points="123.9,27.3 133.7,18.2 123.9,18.2 		"/>
		<polygon fill="#1C1C1C" points="123.9,27.3 114.1,36.5 123.9,36.5 		"/>
		<polygon fill="#1C1C1C" points="133.7,18.2 123.9,27.3 133.7,27.3 		"/>
	</g>
	<g>
		<line fill="none" x1="163" y1="-0.2" x2="163" y2="18.2"/>
		<line fill="none" x1="172.8" y1="9" x2="153.2" y2="9"/>
		<rect x="153.2" y="-0.2" fill="#212121" width="19.5" height="18.4"/>
		<polygon points="153.2,18.2 163,9 153.2,9 		"/>
		<polygon points="163,9 172.8,-0.2 163,-0.2 		"/>
		<polygon fill="#1C1C1C" points="163,9 153.2,18.2 163,18.2 		"/>
		<polygon fill="#1C1C1C" points="172.8,-0.2 163,9 172.8,9 		"/>
	</g>
	<g>
		<line fill="none" x1="143.4" y1="-0.2" x2="143.4" y2="18.2"/>
		<line fill="none" x1="153.2" y1="9" x2="133.7" y2="9"/>
		<rect x="133.7" y="-0.2" fill="#212121" width="19.5" height="18.4"/>
		<polygon points="133.7,18.2 143.4,9 133.7,9 		"/>
		<polygon points="143.4,9 153.2,-0.2 143.4,-0.2 		"/>
		<polygon fill="#1C1C1C" points="143.4,9 133.7,18.2 143.4,18.2 		"/>
		<polygon fill="#1C1C1C" points="153.2,-0.2 143.4,9 153.2,9 		"/>
	</g>
	<g>
		<line fill="none" x1="182.5" y1="-0.2" x2="182.5" y2="18.2"/>
		<line fill="none" x1="192.3" y1="9" x2="172.8" y2="9"/>
		<rect x="172.8" y="-0.2" fill="#212121" width="19.5" height="18.4"/>
		<polygon points="172.8,18.2 182.5,9 172.8,9 		"/>
		<polygon points="182.5,9 192.3,-0.2 182.5,-0.2 		"/>
		<polygon fill="#1C1C1C" points="182.5,9 172.8,18.2 182.5,18.2 		"/>
		<polygon fill="#1C1C1C" points="192.3,-0.2 182.5,9 192.3,9 		"/>
	</g>
	<g>
		<line fill="none" x1="221.6" y1="53.5" x2="221.6" y2="71.9"/>
		<line fill="none" x1="231.4" y1="62.7" x2="211.8" y2="62.7"/>
		<rect x="211.8" y="53.5" fill="#212121" width="19.5" height="18.4"/>
		<polygon points="211.8,71.9 221.6,62.7 211.8,62.7 		"/>
		<polygon points="221.6,62.7 231.4,53.5 221.6,53.5 		"/>
		<polygon fill="#1C1C1C" points="221.6,62.7 211.8,71.9 221.6,71.9 		"/>
		<polygon fill="#1C1C1C" points="231.4,53.5 221.6,62.7 231.4,62.7 		"/>
	</g>
	<g>
		<line fill="none" x1="202.1" y1="53.5" x2="202.1" y2="71.9"/>
		<line fill="none" x1="211.8" y1="62.7" x2="192.3" y2="62.7"/>
		<rect x="192.3" y="53.5" fill="#212121" width="19.5" height="18.4"/>
		<polygon points="192.3,71.9 202.1,62.7 192.3,62.7 		"/>
		<polygon points="202.1,62.7 211.8,53.5 202.1,53.5 		"/>
		<polygon fill="#1C1C1C" points="202.1,62.7 192.3,71.9 202.1,71.9 		"/>
		<polygon fill="#1C1C1C" points="211.8,53.5 202.1,62.7 211.8,62.7 		"/>
	</g>
	<g>
		<line fill="none" x1="182.5" y1="53.5" x2="182.5" y2="71.9"/>
		<line fill="none" x1="192.3" y1="62.7" x2="172.8" y2="62.7"/>
		<rect x="172.8" y="53.5" fill="#212121" width="19.5" height="18.4"/>
		<polygon points="172.8,71.9 182.5,62.7 172.8,62.7 		"/>
		<polygon points="182.5,62.7 192.3,53.5 182.5,53.5 		"/>
		<polygon fill="#1C1C1C" points="182.5,62.7 172.8,71.9 182.5,71.9 		"/>
		<polygon fill="#1C1C1C" points="192.3,53.5 182.5,62.7 192.3,62.7 		"/>
	</g>
	<g>
		<line fill="none" x1="221.6" y1="36.5" x2="221.6" y2="54.9"/>
		<line fill="none" x1="231.4" y1="45.7" x2="211.8" y2="45.7"/>
		<rect x="211.8" y="36.5" fill="#212121" width="19.5" height="18.4"/>
		<polygon points="211.8,54.9 221.6,45.7 211.8,45.7 		"/>
		<polygon points="221.6,45.7 231.4,36.5 221.6,36.5 		"/>
		<polygon fill="#1C1C1C" points="221.6,45.7 211.8,54.9 221.6,54.9 		"/>
		<polygon fill="#1C1C1C" points="231.4,36.5 221.6,45.7 231.4,45.7 		"/>
	</g>
	<g>
		<line fill="none" x1="202.1" y1="36.5" x2="202.1" y2="54.9"/>
		<line fill="none" x1="211.8" y1="45.7" x2="192.3" y2="45.7"/>
		<rect x="192.3" y="36.5" fill="#212121" width="19.5" height="18.4"/>
		<polygon points="192.3,54.9 202.1,45.7 192.3,45.7 		"/>
		<polygon points="202.1,45.7 211.8,36.5 202.1,36.5 		"/>
		<polygon fill="#1C1C1C" points="202.1,45.7 192.3,54.9 202.1,54.9 		"/>
		<polygon fill="#1C1C1C" points="211.8,36.5 202.1,45.7 211.8,45.7 		"/>
	</g>
	<g>
		<line fill="none" x1="182.5" y1="36.5" x2="182.5" y2="54.9"/>
		<line fill="none" x1="192.3" y1="45.7" x2="172.8" y2="45.7"/>
		<rect x="172.8" y="36.5" fill="#212121" width="19.5" height="18.4"/>
		<polygon points="172.8,54.9 182.5,45.7 172.8,45.7 		"/>
		<polygon points="182.5,45.7 192.3,36.5 182.5,36.5 		"/>
		<polygon fill="#1C1C1C" points="182.5,45.7 172.8,54.9 182.5,54.9 		"/>
		<polygon fill="#1C1C1C" points="192.3,36.5 182.5,45.7 192.3,45.7 		"/>
	</g>
	<g>
		<line fill="none" x1="221.6" y1="18.2" x2="221.6" y2="36.5"/>
		<line fill="none" x1="231.4" y1="27.3" x2="211.8" y2="27.3"/>
		<rect x="211.8" y="18.2" fill="#212121" width="19.5" height="18.4"/>
		<polygon points="211.8,36.5 221.6,27.3 211.8,27.3 		"/>
		<polygon points="221.6,27.3 231.4,18.2 221.6,18.2 		"/>
		<polygon fill="#1C1C1C" points="221.6,27.3 211.8,36.5 221.6,36.5 		"/>
		<polygon fill="#1C1C1C" points="231.4,18.2 221.6,27.3 231.4,27.3 		"/>
	</g>
	<g>
		<line fill="none" x1="202.1" y1="18.2" x2="202.1" y2="36.5"/>
		<line fill="none" x1="211.8" y1="27.3" x2="192.3" y2="27.3"/>
		<rect x="192.3" y="18.2" fill="#212121" width="19.5" height="18.4"/>
		<polygon points="192.3,36.5 202.1,27.3 192.3,27.3 		"/>
		<polygon points="202.1,27.3 211.8,18.2 202.1,18.2 		"/>
		<polygon fill="#1C1C1C" points="202.1,27.3 192.3,36.5 202.1,36.5 		"/>
		<polygon fill="#1C1C1C" points="211.8,18.2 202.1,27.3 211.8,27.3 		"/>
	</g>
	<g>
		<line fill="none" x1="182.5" y1="18.2" x2="182.5" y2="36.5"/>
		<line fill="none" x1="192.3" y1="27.3" x2="172.8" y2="27.3"/>
		<rect x="172.8" y="18.2" fill="#212121" width="19.5" height="18.4"/>
		<polygon points="172.8,36.5 182.5,27.3 172.8,27.3 		"/>
		<polygon points="182.5,27.3 192.3,18.2 182.5,18.2 		"/>
		<polygon fill="#1C1C1C" points="182.5,27.3 172.8,36.5 182.5,36.5 		"/>
		<polygon fill="#1C1C1C" points="192.3,18.2 182.5,27.3 192.3,27.3 		"/>
	</g>
	<g>
		<line fill="none" x1="221.6" y1="-0.2" x2="221.6" y2="18.2"/>
		<line fill="none" x1="231.4" y1="9" x2="211.8" y2="9"/>
		<rect x="211.8" y="-0.2" fill="#212121" width="19.5" height="18.4"/>
		<polygon points="211.8,18.2 221.6,9 211.8,9 		"/>
		<polygon points="221.6,9 231.4,-0.2 221.6,-0.2 		"/>
		<polygon fill="#1C1C1C" points="221.6,9 211.8,18.2 221.6,18.2 		"/>
		<polygon fill="#1C1C1C" points="231.4,-0.2 221.6,9 231.4,9 		"/>
	</g>
	<g>
		<line fill="none" x1="202.1" y1="-0.2" x2="202.1" y2="18.2"/>
		<line fill="none" x1="211.8" y1="9" x2="192.3" y2="9"/>
		<rect x="192.3" y="-0.2" fill="#212121" width="19.5" height="18.4"/>
		<polygon points="192.3,18.2 202.1,9 192.3,9 		"/>
		<polygon points="202.1,9 211.8,-0.2 202.1,-0.2 		"/>
		<polygon fill="#1C1C1C" points="202.1,9 192.3,18.2 202.1,18.2 		"/>
		<polygon fill="#1C1C1C" points="211.8,-0.2 202.1,9 211.8,9 		"/>
	</g>
	<g>
		<line fill="none" x1="241.2" y1="-0.2" x2="241.2" y2="18.2"/>
		<line fill="none" x1="250.9" y1="9" x2="231.4" y2="9"/>
		<rect x="231.4" y="-0.2" fill="#212121" width="19.5" height="18.4"/>
		<polygon points="231.4,18.2 241.2,9 231.4,9 		"/>
		<polygon points="241.2,9 250.9,-0.2 241.2,-0.2 		"/>
		<polygon fill="#1C1C1C" points="241.2,9 231.4,18.2 241.2,18.2 		"/>
		<polygon fill="#1C1C1C" points="250.9,-0.2 241.2,9 250.9,9 		"/>
	</g>
	<g>
		<line fill="none" x1="241.2" y1="53.5" x2="241.2" y2="71.9"/>
		<line fill="none" x1="250.9" y1="62.7" x2="231.4" y2="62.7"/>
		<rect x="231.4" y="53.5" fill="#212121" width="19.5" height="18.4"/>
		<polygon points="231.4,71.9 241.2,62.7 231.4,62.7 		"/>
		<polygon points="241.2,62.7 250.9,53.5 241.2,53.5 		"/>
		<polygon fill="#1C1C1C" points="241.2,62.7 231.4,71.9 241.2,71.9 		"/>
		<polygon fill="#1C1C1C" points="250.9,53.5 241.2,62.7 250.9,62.7 		"/>
	</g>
	<g>
		<line fill="none" x1="241.2" y1="36.5" x2="241.2" y2="54.9"/>
		<line fill="none" x1="250.9" y1="45.7" x2="231.4" y2="45.7"/>
		<rect x="231.4" y="36.5" fill="#212121" width="19.5" height="18.4"/>
		<polygon points="231.4,54.9 241.2,45.7 231.4,45.7 		"/>
		<polygon points="241.2,45.7 250.9,36.5 241.2,36.5 		"/>
		<polygon fill="#1C1C1C" points="241.2,45.7 231.4,54.9 241.2,54.9 		"/>
		<polygon fill="#1C1C1C" points="250.9,36.5 241.2,45.7 250.9,45.7 		"/>
	</g>
	<g>
		<line fill="none" x1="241.2" y1="18.2" x2="241.2" y2="36.5"/>
		<line fill="none" x1="250.9" y1="27.3" x2="231.4" y2="27.3"/>
		<rect x="231.4" y="18.2" fill="#212121" width="19.5" height="18.4"/>
		<polygon points="231.4,36.5 241.2,27.3 231.4,27.3 		"/>
		<polygon points="241.2,27.3 250.9,18.2 241.2,18.2 		"/>
		<polygon fill="#1C1C1C" points="241.2,27.3 231.4,36.5 241.2,36.5 		"/>
		<polygon fill="#1C1C1C" points="250.9,18.2 241.2,27.3 250.9,27.3 		"/>
	</g>
	<g>
		<line fill="none" x1="8.8" y1="72.1" x2="8.8" y2="90.5"/>
		<line fill="none" x1="18.6" y1="81.3" x2="-0.9" y2="81.3"/>
		<rect x="-0.9" y="72.1" fill="#212121" width="19.5" height="18.4"/>
		<polygon points="-0.9,90.5 8.8,81.3 -0.9,81.3 		"/>
		<polygon points="8.8,81.3 18.6,72.1 8.8,72.1 		"/>
		<polygon fill="#1C1C1C" points="8.8,81.3 -0.9,90.5 8.8,90.5 		"/>
		<polygon fill="#1C1C1C" points="18.6,72.1 8.8,81.3 18.6,81.3 		"/>
	</g>
	<g>
		<line fill="none" x1="47.9" y1="125.8" x2="47.9" y2="144.2"/>
		<line fill="none" x1="57.7" y1="135" x2="38.2" y2="135"/>
		<rect x="38.2" y="125.8" fill="#212121" width="19.5" height="18.4"/>
		<polygon points="38.2,144.2 47.9,135 38.2,135 		"/>
		<polygon points="47.9,135 57.7,125.8 47.9,125.8 		"/>
		<polygon fill="#1C1C1C" points="47.9,135 38.2,144.2 47.9,144.2 		"/>
		<polygon fill="#1C1C1C" points="57.7,125.8 47.9,135 57.7,135 		"/>
	</g>
	<g>
		<line fill="none" x1="28.4" y1="125.8" x2="28.4" y2="144.2"/>
		<line fill="none" x1="38.2" y1="135" x2="18.6" y2="135"/>
		<rect x="18.6" y="125.8" fill="#212121" width="19.5" height="18.4"/>
		<polygon points="18.6,144.2 28.4,135 18.6,135 		"/>
		<polygon points="28.4,135 38.2,125.8 28.4,125.8 		"/>
		<polygon fill="#1C1C1C" points="28.4,135 18.6,144.2 28.4,144.2 		"/>
		<polygon fill="#1C1C1C" points="38.2,125.8 28.4,135 38.2,135 		"/>
	</g>
	<g>
		<line fill="none" x1="8.8" y1="125.8" x2="8.8" y2="144.2"/>
		<line fill="none" x1="18.6" y1="135" x2="-0.9" y2="135"/>
		<rect x="-0.9" y="125.8" fill="#212121" width="19.5" height="18.4"/>
		<polygon points="-0.9,144.2 8.8,135 -0.9,135 		"/>
		<polygon points="8.8,135 18.6,125.8 8.8,125.8 		"/>
		<polygon fill="#1C1C1C" points="8.8,135 -0.9,144.2 8.8,144.2 		"/>
		<polygon fill="#1C1C1C" points="18.6,125.8 8.8,135 18.6,135 		"/>
	</g>
	<g>
		<line fill="none" x1="47.9" y1="108.8" x2="47.9" y2="127.2"/>
		<line fill="none" x1="57.7" y1="118" x2="38.2" y2="118"/>
		<rect x="38.2" y="108.8" fill="#212121" width="19.5" height="18.4"/>
		<polygon points="38.2,127.2 47.9,118 38.2,118 		"/>
		<polygon points="47.9,118 57.7,108.8 47.9,108.8 		"/>
		<polygon fill="#1C1C1C" points="47.9,118 38.2,127.2 47.9,127.2 		"/>
		<polygon fill="#1C1C1C" points="57.7,108.8 47.9,118 57.7,118 		"/>
	</g>
	<g>
		<line fill="none" x1="28.4" y1="108.8" x2="28.4" y2="127.2"/>
		<line fill="none" x1="38.2" y1="118" x2="18.6" y2="118"/>
		<rect x="18.6" y="108.8" fill="#212121" width="19.5" height="18.4"/>
		<polygon points="18.6,127.2 28.4,118 18.6,118 		"/>
		<polygon points="28.4,118 38.2,108.8 28.4,108.8 		"/>
		<polygon fill="#1C1C1C" points="28.4,118 18.6,127.2 28.4,127.2 		"/>
		<polygon fill="#1C1C1C" points="38.2,108.8 28.4,118 38.2,118 		"/>
	</g>
	<g>
		<line fill="none" x1="8.8" y1="108.8" x2="8.8" y2="127.2"/>
		<line fill="none" x1="18.6" y1="118" x2="-0.9" y2="118"/>
		<rect x="-0.9" y="108.8" fill="#212121" width="19.5" height="18.4"/>
		<polygon points="-0.9,127.2 8.8,118 -0.9,118 		"/>
		<polygon points="8.8,118 18.6,108.8 8.8,108.8 		"/>
		<polygon fill="#1C1C1C" points="8.8,118 -0.9,127.2 8.8,127.2 		"/>
		<polygon fill="#1C1C1C" points="18.6,108.8 8.8,118 18.6,118 		"/>
	</g>
	<g>
		<line fill="none" x1="47.9" y1="90.5" x2="47.9" y2="108.8"/>
		<line fill="none" x1="57.7" y1="99.7" x2="38.2" y2="99.7"/>
		<rect x="38.2" y="90.5" fill="#212121" width="19.5" height="18.4"/>
		<polygon points="38.2,108.8 47.9,99.7 38.2,99.7 		"/>
		<polygon points="47.9,99.7 57.7,90.5 47.9,90.5 		"/>
		<polygon fill="#1C1C1C" points="47.9,99.7 38.2,108.8 47.9,108.8 		"/>
		<polygon fill="#1C1C1C" points="57.7,90.5 47.9,99.7 57.7,99.7 		"/>
	</g>
	<g>
		<line fill="none" x1="28.4" y1="90.5" x2="28.4" y2="108.8"/>
		<line fill="none" x1="38.2" y1="99.7" x2="18.6" y2="99.7"/>
		<rect x="18.6" y="90.5" fill="#212121" width="19.5" height="18.4"/>
		<polygon points="18.6,108.8 28.4,99.7 18.6,99.7 		"/>
		<polygon points="28.4,99.7 38.2,90.5 28.4,90.5 		"/>
		<polygon fill="#1C1C1C" points="28.4,99.7 18.6,108.8 28.4,108.8 		"/>
		<polygon fill="#1C1C1C" points="38.2,90.5 28.4,99.7 38.2,99.7 		"/>
	</g>
	<g>
		<line fill="none" x1="8.8" y1="90.5" x2="8.8" y2="108.8"/>
		<line fill="none" x1="18.6" y1="99.7" x2="-0.9" y2="99.7"/>
		<rect x="-0.9" y="90.5" fill="#212121" width="19.5" height="18.4"/>
		<polygon points="-0.9,108.8 8.8,99.7 -0.9,99.7 		"/>
		<polygon points="8.8,99.7 18.6,90.5 8.8,90.5 		"/>
		<polygon fill="#1C1C1C" points="8.8,99.7 -0.9,108.8 8.8,108.8 		"/>
		<polygon fill="#1C1C1C" points="18.6,90.5 8.8,99.7 18.6,99.7 		"/>
	</g>
	<g>
		<line fill="none" x1="47.9" y1="72.1" x2="47.9" y2="90.5"/>
		<line fill="none" x1="57.7" y1="81.3" x2="38.2" y2="81.3"/>
		<rect x="38.2" y="72.1" fill="#212121" width="19.5" height="18.4"/>
		<polygon points="38.2,90.5 47.9,81.3 38.2,81.3 		"/>
		<polygon points="47.9,81.3 57.7,72.1 47.9,72.1 		"/>
		<polygon fill="#1C1C1C" points="47.9,81.3 38.2,90.5 47.9,90.5 		"/>
		<polygon fill="#1C1C1C" points="57.7,72.1 47.9,81.3 57.7,81.3 		"/>
	</g>
	<g>
		<line fill="none" x1="28.4" y1="72.1" x2="28.4" y2="90.5"/>
		<line fill="none" x1="38.2" y1="81.3" x2="18.6" y2="81.3"/>
		<rect x="18.6" y="72.1" fill="#212121" width="19.5" height="18.4"/>
		<polygon points="18.6,90.5 28.4,81.3 18.6,81.3 		"/>
		<polygon points="28.4,81.3 38.2,72.1 28.4,72.1 		"/>
		<polygon fill="#1C1C1C" points="28.4,81.3 18.6,90.5 28.4,90.5 		"/>
		<polygon fill="#1C1C1C" points="38.2,72.1 28.4,81.3 38.2,81.3 		"/>
	</g>
	<g>
		<line fill="none" x1="66.3" y1="71.9" x2="66.3" y2="90.2"/>
		<line fill="none" x1="76.1" y1="81.1" x2="56.6" y2="81.1"/>
		<rect x="56.6" y="71.9" fill="#212121" width="19.5" height="18.4"/>
		<polygon points="56.6,90.2 66.3,81.1 56.6,81.1 		"/>
		<polygon points="66.3,81.1 76.1,71.9 66.3,71.9 		"/>
		<polygon fill="#1C1C1C" points="66.3,81.1 56.6,90.2 66.3,90.2 		"/>
		<polygon fill="#1C1C1C" points="76.1,71.9 66.3,81.1 76.1,81.1 		"/>
	</g>
	<g>
		<line fill="none" x1="105.4" y1="125.6" x2="105.4" y2="144"/>
		<line fill="none" x1="115.2" y1="134.8" x2="95.7" y2="134.8"/>
		<rect x="95.7" y="125.6" fill="#212121" width="19.5" height="18.4"/>
		<polygon points="95.7,144 105.4,134.8 95.7,134.8 		"/>
		<polygon points="105.4,134.8 115.2,125.6 105.4,125.6 		"/>
		<polygon fill="#1C1C1C" points="105.4,134.8 95.7,144 105.4,144 		"/>
		<polygon fill="#1C1C1C" points="115.2,125.6 105.4,134.8 115.2,134.8 		"/>
	</g>
	<g>
		<line fill="none" x1="85.9" y1="125.6" x2="85.9" y2="144"/>
		<line fill="none" x1="95.7" y1="134.8" x2="76.1" y2="134.8"/>
		<rect x="76.1" y="125.6" fill="#212121" width="19.5" height="18.4"/>
		<polygon points="76.1,144 85.9,134.8 76.1,134.8 		"/>
		<polygon points="85.9,134.8 95.7,125.6 85.9,125.6 		"/>
		<polygon fill="#1C1C1C" points="85.9,134.8 76.1,144 85.9,144 		"/>
		<polygon fill="#1C1C1C" points="95.7,125.6 85.9,134.8 95.7,134.8 		"/>
	</g>
	<g>
		<line fill="none" x1="66.3" y1="125.6" x2="66.3" y2="144"/>
		<line fill="none" x1="76.1" y1="134.8" x2="56.6" y2="134.8"/>
		<rect x="56.6" y="125.6" fill="#212121" width="19.5" height="18.4"/>
		<polygon points="56.6,144 66.3,134.8 56.6,134.8 		"/>
		<polygon points="66.3,134.8 76.1,125.6 66.3,125.6 		"/>
		<polygon fill="#1C1C1C" points="66.3,134.8 56.6,144 66.3,144 		"/>
		<polygon fill="#1C1C1C" points="76.1,125.6 66.3,134.8 76.1,134.8 		"/>
	</g>
	<g>
		<line fill="none" x1="105.4" y1="108.6" x2="105.4" y2="126.9"/>
		<line fill="none" x1="115.2" y1="117.8" x2="95.7" y2="117.8"/>
		<rect x="95.7" y="108.6" fill="#212121" width="19.5" height="18.4"/>
		<polygon points="95.7,126.9 105.4,117.8 95.7,117.8 		"/>
		<polygon points="105.4,117.8 115.2,108.6 105.4,108.6 		"/>
		<polygon fill="#1C1C1C" points="105.4,117.8 95.7,126.9 105.4,126.9 		"/>
		<polygon fill="#1C1C1C" points="115.2,108.6 105.4,117.8 115.2,117.8 		"/>
	</g>
	<g>
		<line fill="none" x1="85.9" y1="108.6" x2="85.9" y2="126.9"/>
		<line fill="none" x1="95.7" y1="117.8" x2="76.1" y2="117.8"/>
		<rect x="76.1" y="108.6" fill="#212121" width="19.5" height="18.4"/>
		<polygon points="76.1,126.9 85.9,117.8 76.1,117.8 		"/>
		<polygon points="85.9,117.8 95.7,108.6 85.9,108.6 		"/>
		<polygon fill="#1C1C1C" points="85.9,117.8 76.1,126.9 85.9,126.9 		"/>
		<polygon fill="#1C1C1C" points="95.7,108.6 85.9,117.8 95.7,117.8 		"/>
	</g>
	<g>
		<line fill="none" x1="66.3" y1="108.6" x2="66.3" y2="126.9"/>
		<line fill="none" x1="76.1" y1="117.8" x2="56.6" y2="117.8"/>
		<rect x="56.6" y="108.6" fill="#212121" width="19.5" height="18.4"/>
		<polygon points="56.6,126.9 66.3,117.8 56.6,117.8 		"/>
		<polygon points="66.3,117.8 76.1,108.6 66.3,108.6 		"/>
		<polygon fill="#1C1C1C" points="66.3,117.8 56.6,126.9 66.3,126.9 		"/>
		<polygon fill="#1C1C1C" points="76.1,108.6 66.3,117.8 76.1,117.8 		"/>
	</g>
	<g>
		<line fill="none" x1="105.4" y1="90.2" x2="105.4" y2="108.6"/>
		<line fill="none" x1="115.2" y1="99.4" x2="95.7" y2="99.4"/>
		<rect x="95.7" y="90.2" fill="#212121" width="19.5" height="18.4"/>
		<polygon points="95.7,108.6 105.4,99.4 95.7,99.4 		"/>
		<polygon points="105.4,99.4 115.2,90.2 105.4,90.2 		"/>
		<polygon fill="#1C1C1C" points="105.4,99.4 95.7,108.6 105.4,108.6 		"/>
		<polygon fill="#1C1C1C" points="115.2,90.2 105.4,99.4 115.2,99.4 		"/>
	</g>
	<g>
		<line fill="none" x1="85.9" y1="90.2" x2="85.9" y2="108.6"/>
		<line fill="none" x1="95.7" y1="99.4" x2="76.1" y2="99.4"/>
		<rect x="76.1" y="90.2" fill="#212121" width="19.5" height="18.4"/>
		<polygon points="76.1,108.6 85.9,99.4 76.1,99.4 		"/>
		<polygon points="85.9,99.4 95.7,90.2 85.9,90.2 		"/>
		<polygon fill="#1C1C1C" points="85.9,99.4 76.1,108.6 85.9,108.6 		"/>
		<polygon fill="#1C1C1C" points="95.7,90.2 85.9,99.4 95.7,99.4 		"/>
	</g>
	<g>
		<line fill="none" x1="66.3" y1="90.2" x2="66.3" y2="108.6"/>
		<line fill="none" x1="76.1" y1="99.4" x2="56.6" y2="99.4"/>
		<rect x="56.6" y="90.2" fill="#212121" width="19.5" height="18.4"/>
		<polygon points="56.6,108.6 66.3,99.4 56.6,99.4 		"/>
		<polygon points="66.3,99.4 76.1,90.2 66.3,90.2 		"/>
		<polygon fill="#1C1C1C" points="66.3,99.4 56.6,108.6 66.3,108.6 		"/>
		<polygon fill="#1C1C1C" points="76.1,90.2 66.3,99.4 76.1,99.4 		"/>
	</g>
	<g>
		<line fill="none" x1="105.4" y1="71.9" x2="105.4" y2="90.2"/>
		<line fill="none" x1="115.2" y1="81.1" x2="95.7" y2="81.1"/>
		<rect x="95.7" y="71.9" fill="#212121" width="19.5" height="18.4"/>
		<polygon points="95.7,90.2 105.4,81.1 95.7,81.1 		"/>
		<polygon points="105.4,81.1 115.2,71.9 105.4,71.9 		"/>
		<polygon fill="#1C1C1C" points="105.4,81.1 95.7,90.2 105.4,90.2 		"/>
		<polygon fill="#1C1C1C" points="115.2,71.9 105.4,81.1 115.2,81.1 		"/>
	</g>
	<g>
		<line fill="none" x1="85.9" y1="71.9" x2="85.9" y2="90.2"/>
		<line fill="none" x1="95.7" y1="81.1" x2="76.1" y2="81.1"/>
		<rect x="76.1" y="71.9" fill="#212121" width="19.5" height="18.4"/>
		<polygon points="76.1,90.2 85.9,81.1 76.1,81.1 		"/>
		<polygon points="85.9,81.1 95.7,71.9 85.9,71.9 		"/>
		<polygon fill="#1C1C1C" points="85.9,81.1 76.1,90.2 85.9,90.2 		"/>
		<polygon fill="#1C1C1C" points="95.7,71.9 85.9,81.1 95.7,81.1 		"/>
	</g>
	<g>
		<line fill="none" x1="123.9" y1="71.9" x2="123.9" y2="90.2"/>
		<line fill="none" x1="133.7" y1="81.1" x2="114.2" y2="81.1"/>
		<rect x="114.2" y="71.9" fill="#212121" width="19.5" height="18.4"/>
		<polygon points="114.2,90.2 123.9,81.1 114.2,81.1 		"/>
		<polygon points="123.9,81.1 133.7,71.9 123.9,71.9 		"/>
		<polygon fill="#1C1C1C" points="123.9,81.1 114.2,90.2 123.9,90.2 		"/>
		<polygon fill="#1C1C1C" points="133.7,71.9 123.9,81.1 133.7,81.1 		"/>
	</g>
	<g>
		<line fill="none" x1="163" y1="125.6" x2="163" y2="144"/>
		<line fill="none" x1="172.8" y1="134.8" x2="153.3" y2="134.8"/>
		<rect x="153.3" y="125.6" fill="#212121" width="19.5" height="18.4"/>
		<polygon points="153.3,144 163,134.8 153.3,134.8 		"/>
		<polygon points="163,134.8 172.8,125.6 163,125.6 		"/>
		<polygon fill="#1C1C1C" points="163,134.8 153.3,144 163,144 		"/>
		<polygon fill="#1C1C1C" points="172.8,125.6 163,134.8 172.8,134.8 		"/>
	</g>
	<g>
		<line fill="none" x1="143.5" y1="125.6" x2="143.5" y2="144"/>
		<line fill="none" x1="153.3" y1="134.8" x2="133.7" y2="134.8"/>
		<rect x="133.7" y="125.6" fill="#212121" width="19.5" height="18.4"/>
		<polygon points="133.7,144 143.5,134.8 133.7,134.8 		"/>
		<polygon points="143.5,134.8 153.3,125.6 143.5,125.6 		"/>
		<polygon fill="#1C1C1C" points="143.5,134.8 133.7,144 143.5,144 		"/>
		<polygon fill="#1C1C1C" points="153.3,125.6 143.5,134.8 153.3,134.8 		"/>
	</g>
	<g>
		<line fill="none" x1="123.9" y1="125.6" x2="123.9" y2="144"/>
		<line fill="none" x1="133.7" y1="134.8" x2="114.2" y2="134.8"/>
		<rect x="114.2" y="125.6" fill="#212121" width="19.5" height="18.4"/>
		<polygon points="114.2,144 123.9,134.8 114.2,134.8 		"/>
		<polygon points="123.9,134.8 133.7,125.6 123.9,125.6 		"/>
		<polygon fill="#1C1C1C" points="123.9,134.8 114.2,144 123.9,144 		"/>
		<polygon fill="#1C1C1C" points="133.7,125.6 123.9,134.8 133.7,134.8 		"/>
	</g>
	<g>
		<line fill="none" x1="163" y1="108.6" x2="163" y2="126.9"/>
		<line fill="none" x1="172.8" y1="117.8" x2="153.3" y2="117.8"/>
		<rect x="153.3" y="108.6" fill="#212121" width="19.5" height="18.4"/>
		<polygon points="153.3,126.9 163,117.8 153.3,117.8 		"/>
		<polygon points="163,117.8 172.8,108.6 163,108.6 		"/>
		<polygon fill="#1C1C1C" points="163,117.8 153.3,126.9 163,126.9 		"/>
		<polygon fill="#1C1C1C" points="172.8,108.6 163,117.8 172.8,117.8 		"/>
	</g>
	<g>
		<line fill="none" x1="143.5" y1="108.6" x2="143.5" y2="126.9"/>
		<line fill="none" x1="153.3" y1="117.8" x2="133.7" y2="117.8"/>
		<rect x="133.7" y="108.6" fill="#212121" width="19.5" height="18.4"/>
		<polygon points="133.7,126.9 143.5,117.8 133.7,117.8 		"/>
		<polygon points="143.5,117.8 153.3,108.6 143.5,108.6 		"/>
		<polygon fill="#1C1C1C" points="143.5,117.8 133.7,126.9 143.5,126.9 		"/>
		<polygon fill="#1C1C1C" points="153.3,108.6 143.5,117.8 153.3,117.8 		"/>
	</g>
	<g>
		<line fill="none" x1="123.9" y1="108.6" x2="123.9" y2="126.9"/>
		<line fill="none" x1="133.7" y1="117.8" x2="114.2" y2="117.8"/>
		<rect x="114.2" y="108.6" fill="#212121" width="19.5" height="18.4"/>
		<polygon points="114.2,126.9 123.9,117.8 114.2,117.8 		"/>
		<polygon points="123.9,117.8 133.7,108.6 123.9,108.6 		"/>
		<polygon fill="#1C1C1C" points="123.9,117.8 114.2,126.9 123.9,126.9 		"/>
		<polygon fill="#1C1C1C" points="133.7,108.6 123.9,117.8 133.7,117.8 		"/>
	</g>
	<g>
		<line fill="none" x1="163" y1="90.2" x2="163" y2="108.6"/>
		<line fill="none" x1="172.8" y1="99.4" x2="153.3" y2="99.4"/>
		<rect x="153.3" y="90.2" fill="#212121" width="19.5" height="18.4"/>
		<polygon points="153.3,108.6 163,99.4 153.3,99.4 		"/>
		<polygon points="163,99.4 172.8,90.2 163,90.2 		"/>
		<polygon fill="#1C1C1C" points="163,99.4 153.3,108.6 163,108.6 		"/>
		<polygon fill="#1C1C1C" points="172.8,90.2 163,99.4 172.8,99.4 		"/>
	</g>
	<g>
		<line fill="none" x1="143.5" y1="90.2" x2="143.5" y2="108.6"/>
		<line fill="none" x1="153.3" y1="99.4" x2="133.7" y2="99.4"/>
		<rect x="133.7" y="90.2" fill="#212121" width="19.5" height="18.4"/>
		<polygon points="133.7,108.6 143.5,99.4 133.7,99.4 		"/>
		<polygon points="143.5,99.4 153.3,90.2 143.5,90.2 		"/>
		<polygon fill="#1C1C1C" points="143.5,99.4 133.7,108.6 143.5,108.6 		"/>
		<polygon fill="#1C1C1C" points="153.3,90.2 143.5,99.4 153.3,99.4 		"/>
	</g>
	<g>
		<line fill="none" x1="123.9" y1="90.2" x2="123.9" y2="108.6"/>
		<line fill="none" x1="133.7" y1="99.4" x2="114.2" y2="99.4"/>
		<rect x="114.2" y="90.2" fill="#212121" width="19.5" height="18.4"/>
		<polygon points="114.2,108.6 123.9,99.4 114.2,99.4 		"/>
		<polygon points="123.9,99.4 133.7,90.2 123.9,90.2 		"/>
		<polygon fill="#1C1C1C" points="123.9,99.4 114.2,108.6 123.9,108.6 		"/>
		<polygon fill="#1C1C1C" points="133.7,90.2 123.9,99.4 133.7,99.4 		"/>
	</g>
	<g>
		<line fill="none" x1="163" y1="71.9" x2="163" y2="90.2"/>
		<line fill="none" x1="172.8" y1="81.1" x2="153.3" y2="81.1"/>
		<rect x="153.3" y="71.9" fill="#212121" width="19.5" height="18.4"/>
		<polygon points="153.3,90.2 163,81.1 153.3,81.1 		"/>
		<polygon points="163,81.1 172.8,71.9 163,71.9 		"/>
		<polygon fill="#1C1C1C" points="163,81.1 153.3,90.2 163,90.2 		"/>
		<polygon fill="#1C1C1C" points="172.8,71.9 163,81.1 172.8,81.1 		"/>
	</g>
	<g>
		<line fill="none" x1="143.5" y1="71.9" x2="143.5" y2="90.2"/>
		<line fill="none" x1="153.3" y1="81.1" x2="133.7" y2="81.1"/>
		<rect x="133.7" y="71.9" fill="#212121" width="19.5" height="18.4"/>
		<polygon points="133.7,90.2 143.5,81.1 133.7,81.1 		"/>
		<polygon points="143.5,81.1 153.3,71.9 143.5,71.9 		"/>
		<polygon fill="#1C1C1C" points="143.5,81.1 133.7,90.2 143.5,90.2 		"/>
		<polygon fill="#1C1C1C" points="153.3,71.9 143.5,81.1 153.3,81.1 		"/>
	</g>
	<g>
		<line fill="none" x1="182.6" y1="71.9" x2="182.6" y2="90.2"/>
		<line fill="none" x1="192.4" y1="81.1" x2="172.8" y2="81.1"/>
		<rect x="172.8" y="71.9" fill="#212121" width="19.5" height="18.4"/>
		<polygon points="172.8,90.2 182.6,81.1 172.8,81.1 		"/>
		<polygon points="182.6,81.1 192.4,71.9 182.6,71.9 		"/>
		<polygon fill="#1C1C1C" points="182.6,81.1 172.8,90.2 182.6,90.2 		"/>
		<polygon fill="#1C1C1C" points="192.4,71.9 182.6,81.1 192.4,81.1 		"/>
	</g>
	<g>
		<line fill="none" x1="221.7" y1="125.6" x2="221.7" y2="144"/>
		<line fill="none" x1="231.5" y1="134.8" x2="211.9" y2="134.8"/>
		<rect x="211.9" y="125.6" fill="#212121" width="19.5" height="18.4"/>
		<polygon points="211.9,144 221.7,134.8 211.9,134.8 		"/>
		<polygon points="221.7,134.8 231.5,125.6 221.7,125.6 		"/>
		<polygon fill="#1C1C1C" points="221.7,134.8 211.9,144 221.7,144 		"/>
		<polygon fill="#1C1C1C" points="231.5,125.6 221.7,134.8 231.5,134.8 		"/>
	</g>
	<g>
		<line fill="none" x1="202.1" y1="125.6" x2="202.1" y2="144"/>
		<line fill="none" x1="211.9" y1="134.8" x2="192.4" y2="134.8"/>
		<rect x="192.4" y="125.6" fill="#212121" width="19.5" height="18.4"/>
		<polygon points="192.4,144 202.1,134.8 192.4,134.8 		"/>
		<polygon points="202.1,134.8 211.9,125.6 202.1,125.6 		"/>
		<polygon fill="#1C1C1C" points="202.1,134.8 192.4,144 202.1,144 		"/>
		<polygon fill="#1C1C1C" points="211.9,125.6 202.1,134.8 211.9,134.8 		"/>
	</g>
	<g>
		<line fill="none" x1="182.6" y1="125.6" x2="182.6" y2="144"/>
		<line fill="none" x1="192.4" y1="134.8" x2="172.8" y2="134.8"/>
		<rect x="172.8" y="125.6" fill="#212121" width="19.5" height="18.4"/>
		<polygon points="172.8,144 182.6,134.8 172.8,134.8 		"/>
		<polygon points="182.6,134.8 192.4,125.6 182.6,125.6 		"/>
		<polygon fill="#1C1C1C" points="182.6,134.8 172.8,144 182.6,144 		"/>
		<polygon fill="#1C1C1C" points="192.4,125.6 182.6,134.8 192.4,134.8 		"/>
	</g>
	<g>
		<line fill="none" x1="221.7" y1="108.6" x2="221.7" y2="126.9"/>
		<line fill="none" x1="231.5" y1="117.8" x2="211.9" y2="117.8"/>
		<rect x="211.9" y="108.6" fill="#212121" width="19.5" height="18.4"/>
		<polygon points="211.9,126.9 221.7,117.8 211.9,117.8 		"/>
		<polygon points="221.7,117.8 231.5,108.6 221.7,108.6 		"/>
		<polygon fill="#1C1C1C" points="221.7,117.8 211.9,126.9 221.7,126.9 		"/>
		<polygon fill="#1C1C1C" points="231.5,108.6 221.7,117.8 231.5,117.8 		"/>
	</g>
	<g>
		<line fill="none" x1="202.1" y1="108.6" x2="202.1" y2="126.9"/>
		<line fill="none" x1="211.9" y1="117.8" x2="192.4" y2="117.8"/>
		<rect x="192.4" y="108.6" fill="#212121" width="19.5" height="18.4"/>
		<polygon points="192.4,126.9 202.1,117.8 192.4,117.8 		"/>
		<polygon points="202.1,117.8 211.9,108.6 202.1,108.6 		"/>
		<polygon fill="#1C1C1C" points="202.1,117.8 192.4,126.9 202.1,126.9 		"/>
		<polygon fill="#1C1C1C" points="211.9,108.6 202.1,117.8 211.9,117.8 		"/>
	</g>
	<g>
		<line fill="none" x1="182.6" y1="108.6" x2="182.6" y2="126.9"/>
		<line fill="none" x1="192.4" y1="117.8" x2="172.8" y2="117.8"/>
		<rect x="172.8" y="108.6" fill="#212121" width="19.5" height="18.4"/>
		<polygon points="172.8,126.9 182.6,117.8 172.8,117.8 		"/>
		<polygon points="182.6,117.8 192.4,108.6 182.6,108.6 		"/>
		<polygon fill="#1C1C1C" points="182.6,117.8 172.8,126.9 182.6,126.9 		"/>
		<polygon fill="#1C1C1C" points="192.4,108.6 182.6,117.8 192.4,117.8 		"/>
	</g>
	<g>
		<line fill="none" x1="221.7" y1="90.2" x2="221.7" y2="108.6"/>
		<line fill="none" x1="231.5" y1="99.4" x2="211.9" y2="99.4"/>
		<rect x="211.9" y="90.2" fill="#212121" width="19.5" height="18.4"/>
		<polygon points="211.9,108.6 221.7,99.4 211.9,99.4 		"/>
		<polygon points="221.7,99.4 231.5,90.2 221.7,90.2 		"/>
		<polygon fill="#1C1C1C" points="221.7,99.4 211.9,108.6 221.7,108.6 		"/>
		<polygon fill="#1C1C1C" points="231.5,90.2 221.7,99.4 231.5,99.4 		"/>
	</g>
	<g>
		<line fill="none" x1="202.1" y1="90.2" x2="202.1" y2="108.6"/>
		<line fill="none" x1="211.9" y1="99.4" x2="192.4" y2="99.4"/>
		<rect x="192.4" y="90.2" fill="#212121" width="19.5" height="18.4"/>
		<polygon points="192.4,108.6 202.1,99.4 192.4,99.4 		"/>
		<polygon points="202.1,99.4 211.9,90.2 202.1,90.2 		"/>
		<polygon fill="#1C1C1C" points="202.1,99.4 192.4,108.6 202.1,108.6 		"/>
		<polygon fill="#1C1C1C" points="211.9,90.2 202.1,99.4 211.9,99.4 		"/>
	</g>
	<g>
		<line fill="none" x1="182.6" y1="90.2" x2="182.6" y2="108.6"/>
		<line fill="none" x1="192.4" y1="99.4" x2="172.8" y2="99.4"/>
		<rect x="172.8" y="90.2" fill="#212121" width="19.5" height="18.4"/>
		<polygon points="172.8,108.6 182.6,99.4 172.8,99.4 		"/>
		<polygon points="182.6,99.4 192.4,90.2 182.6,90.2 		"/>
		<polygon fill="#1C1C1C" points="182.6,99.4 172.8,108.6 182.6,108.6 		"/>
		<polygon fill="#1C1C1C" points="192.4,90.2 182.6,99.4 192.4,99.4 		"/>
	</g>
	<g>
		<line fill="none" x1="221.7" y1="71.9" x2="221.7" y2="90.2"/>
		<line fill="none" x1="231.5" y1="81.1" x2="211.9" y2="81.1"/>
		<rect x="211.9" y="71.9" fill="#212121" width="19.5" height="18.4"/>
		<polygon points="211.9,90.2 221.7,81.1 211.9,81.1 		"/>
		<polygon points="221.7,81.1 231.5,71.9 221.7,71.9 		"/>
		<polygon fill="#1C1C1C" points="221.7,81.1 211.9,90.2 221.7,90.2 		"/>
		<polygon fill="#1C1C1C" points="231.5,71.9 221.7,81.1 231.5,81.1 		"/>
	</g>
	<g>
		<line fill="none" x1="202.1" y1="71.9" x2="202.1" y2="90.2"/>
		<line fill="none" x1="211.9" y1="81.1" x2="192.4" y2="81.1"/>
		<rect x="192.4" y="71.9" fill="#212121" width="19.5" height="18.4"/>
		<polygon points="192.4,90.2 202.1,81.1 192.4,81.1 		"/>
		<polygon points="202.1,81.1 211.9,71.9 202.1,71.9 		"/>
		<polygon fill="#1C1C1C" points="202.1,81.1 192.4,90.2 202.1,90.2 		"/>
		<polygon fill="#1C1C1C" points="211.9,71.9 202.1,81.1 211.9,81.1 		"/>
	</g>
	<g>
		<line fill="none" x1="241.2" y1="71.9" x2="241.2" y2="90.2"/>
		<line fill="none" x1="251" y1="81.1" x2="231.5" y2="81.1"/>
		<rect x="231.5" y="71.9" fill="#212121" width="19.5" height="18.4"/>
		<polygon points="231.5,90.2 241.2,81.1 231.5,81.1 		"/>
		<polygon points="241.2,81.1 251,71.9 241.2,71.9 		"/>
		<polygon fill="#1C1C1C" points="241.2,81.1 231.5,90.2 241.2,90.2 		"/>
		<polygon fill="#1C1C1C" points="251,71.9 241.2,81.1 251,81.1 		"/>
	</g>
	<g>
		<line fill="none" x1="241.2" y1="125.6" x2="241.2" y2="144"/>
		<line fill="none" x1="251" y1="134.8" x2="231.5" y2="134.8"/>
		<rect x="231.5" y="125.6" fill="#212121" width="19.5" height="18.4"/>
		<polygon points="231.5,144 241.2,134.8 231.5,134.8 		"/>
		<polygon points="241.2,134.8 251,125.6 241.2,125.6 		"/>
		<polygon fill="#1C1C1C" points="241.2,134.8 231.5,144 241.2,144 		"/>
		<polygon fill="#1C1C1C" points="251,125.6 241.2,134.8 251,134.8 		"/>
	</g>
	<g>
		<line fill="none" x1="241.2" y1="108.6" x2="241.2" y2="126.9"/>
		<line fill="none" x1="251" y1="117.8" x2="231.5" y2="117.8"/>
		<rect x="231.5" y="108.6" fill="#212121" width="19.5" height="18.4"/>
		<polygon points="231.5,126.9 241.2,117.8 231.5,117.8 		"/>
		<polygon points="241.2,117.8 251,108.6 241.2,108.6 		"/>
		<polygon fill="#1C1C1C" points="241.2,117.8 231.5,126.9 241.2,126.9 		"/>
		<polygon fill="#1C1C1C" points="251,108.6 241.2,117.8 251,117.8 		"/>
	</g>
	<g>
		<line fill="none" x1="241.2" y1="90.2" x2="241.2" y2="108.6"/>
		<line fill="none" x1="251" y1="99.4" x2="231.5" y2="99.4"/>
		<rect x="231.5" y="90.2" fill="#212121" width="19.5" height="18.4"/>
		<polygon points="231.5,108.6 241.2,99.4 231.5,99.4 		"/>
		<polygon points="241.2,99.4 251,90.2 241.2,90.2 		"/>
		<polygon fill="#1C1C1C" points="241.2,99.4 231.5,108.6 241.2,108.6 		"/>
		<polygon fill="#1C1C1C" points="251,90.2 241.2,99.4 251,99.4 		"/>
	</g>
</g>
<g>
	<g>
		<path fill="#BED731" d="M89.2,13.7c13.7,0,20.6,10.5,20.6,21s-6.9,20.9-20.6,20.9H74.1V13.7H89.2z M89.2,49.6
			c9.7,0,14.6-7.4,14.6-14.9c0-7.4-4.9-14.9-14.6-14.9h-9v29.8L89.2,49.6L89.2,49.6z"/>
		<path fill="#BED731" d="M130.6,13.7c5.3,0,8.6,3,10.2,6.9c1.7,4.1,1.1,8.9-3.1,11.9c4.8,2,6.5,6.5,6.5,10.4
			c0,6.3-4.1,12.7-12.2,12.7h-19V13.7H130.6z M119.1,30.4h11.3c6.6,0,6.7-10.9,0.1-10.9h-11.5V30.4z M119.1,49.8h13
			c4.1,0,6.1-3.4,6.1-6.7s-2-6.7-6.1-6.7h-13V49.8z"/>
		<path fill="#BED731" d="M146.4,13.7h28.4l2,3.8l-23.8,32.7h23.4v5.4h-29.5l-2.5-3.4l24.2-33.1h-22.4L146.4,13.7L146.4,13.7z"/>
	</g>
	<g>
		<path fill="#BED731" d="M73.3,59.1h9.2v2.7h-3.1V78h-3V61.8h-3.1L73.3,59.1L73.3,59.1z"/>
		<path fill="#BED731" d="M86.8,67.1h4.1v2.7h-4.1v5.5h5.1V78h-8.1V59.1h8.1v2.7h-5.1V67.1z"/>
		<path fill="#BED731" d="M102.3,70.9v2.5c0,3-1.5,4.7-4.4,4.7s-4.4-1.7-4.4-4.7v-9.8c0-3,1.5-4.7,4.4-4.7s4.4,1.7,4.4,4.7v1.8h-2.8
			v-2c0-1.3-0.6-1.9-1.5-1.9s-1.5,0.5-1.5,1.9v10.2c0,1.3,0.6,1.8,1.5,1.8s1.5-0.5,1.5-1.8v-2.7C99.5,70.9,102.3,70.9,102.3,70.9z"
			/>
		<path fill="#BED731" d="M107.1,78h-3V59.1h3v8.1h3.4v-8.1h3V78h-3v-8.1h-3.4C107.1,69.9,107.1,78,107.1,78z"/>
		<path fill="#BED731" d="M118.3,64.3V78h-2.7V59.1h3.7l3,11.3V59.1h2.6V78h-3L118.3,64.3z"/>
		<path fill="#BED731" d="M126.9,63.6c0-3,1.6-4.7,4.5-4.7c2.9,0,4.5,1.7,4.5,4.7v9.8c0,3-1.6,4.7-4.5,4.7c-2.9,0-4.5-1.7-4.5-4.7
			C126.9,73.5,126.9,63.6,126.9,63.6z M129.9,73.6c0,1.3,0.6,1.9,1.5,1.9s1.5-0.5,1.5-1.9V63.4c0-1.3-0.6-1.9-1.5-1.9
			s-1.5,0.5-1.5,1.9V73.6z"/>
		<path fill="#BED731" d="M137.9,59.1h3v16.2h4.9V78h-7.9V59.1z"/>
		<path fill="#BED731" d="M146.8,63.6c0-3,1.6-4.7,4.5-4.7c2.9,0,4.5,1.7,4.5,4.7v9.8c0,3-1.6,4.7-4.5,4.7c-2.9,0-4.5-1.7-4.5-4.7
			V63.6z M149.7,73.6c0,1.3,0.6,1.9,1.5,1.9s1.5-0.5,1.5-1.9V63.4c0-1.3-0.6-1.9-1.5-1.9s-1.5,0.5-1.5,1.9V73.6z"/>
		<path fill="#BED731" d="M162.2,67.5h4.2v6c0,3-1.5,4.7-4.4,4.7c-2.9,0-4.4-1.7-4.4-4.7v-9.8c0-3,1.5-4.7,4.4-4.7
			c2.9,0,4.4,1.7,4.4,4.7v1.8h-2.8v-2c0-1.3-0.6-1.9-1.5-1.9s-1.5,0.5-1.5,1.9v10.2c0,1.3,0.6,1.8,1.5,1.8s1.5-0.5,1.5-1.8v-3.5
			h-1.3L162.2,67.5L162.2,67.5z"/>
		<path fill="#BED731" d="M170.6,71.7l-3.8-12.6h3.1l2.3,8.6l2.3-8.6h2.8l-3.8,12.6V78h-3L170.6,71.7L170.6,71.7z"/>
	</g>
</g>
<g>
	<polygon fill="#BED731" points="73.4,109.8 124.7,132 175.9,109.8 175.9,91 124.7,113.2 73.4,91 	"/>
</g>
</svg>
