<?xml version="1.0" encoding="utf-8"?>
<!-- Generator: Adobe Illustrator 17.1.0, SVG Export Plug-In . SVG Version: 6.00 Build 0)  -->
<!DOCTYPE svg PUBLIC "-//W3C//DTD SVG 1.1//EN" "http://www.w3.org/Graphics/SVG/1.1/DTD/svg11.dtd">
<svg version="1.1" id="Layer_1" xmlns="http://www.w3.org/2000/svg" xmlns:xlink="http://www.w3.org/1999/xlink" x="0px" y="0px"
	 viewBox="0 0 2000 1000" enable-background="new 0 0 2000 1000" xml:space="preserve">
<g>
	<path fill="#FFFFFF" d="M515,755.8c-3.8,0-7,1.1-9.7,3.6c-2.7,2.5-4.3,5.6-4.9,9.6h29.2c-0.4-4-1.9-7.3-4.6-9.7
		C522.3,756.8,519,755.8,515,755.8z"/>
	<path fill="#FFFFFF" d="M1407.7,755.8c-3.8,0-7,1.1-9.7,3.6c-2.7,2.5-4.3,5.6-4.9,9.6h29.2c-0.4-4-1.9-7.3-4.6-9.7
		C1415.1,756.8,1411.7,755.8,1407.7,755.8z"/>
	<path fill="#FFFFFF" d="M1353.8,755.8c-4.3,0-7.9,1.7-11,5c-3.1,3.3-4.6,7.3-4.6,11.8s1.5,8.5,4.6,11.8c3.1,3.3,6.7,5,11,5
		c4.3,0,7.9-1.7,11-5c3.1-3.3,4.6-7.3,4.6-11.8s-1.5-8.5-4.6-11.8C1361.7,757.4,1358.1,755.8,1353.8,755.8z"/>
	<path fill="#FFFFFF" d="M755.8,755.8c-4.3,0-8,1.6-11,4.9c-3,3.3-4.6,7.2-4.6,11.9s1.5,8.7,4.6,11.9c3,3.3,6.7,4.9,11,4.9
		c4.3,0,8-1.6,11-4.9c3-3.3,4.6-7.2,4.6-11.9s-1.5-8.7-4.6-11.9C763.8,757.4,760.1,755.8,755.8,755.8z"/>
	<path fill="#FFFFFF" d="M1117.8,755.8c-4.3,0-8,1.6-11,4.9c-3,3.3-4.6,7.2-4.6,11.9s1.5,8.7,4.6,11.9c3,3.3,6.7,4.9,11,4.9
		c4.3,0,8-1.6,11-4.9s4.6-7.2,4.6-11.9s-1.5-8.7-4.6-11.9C1125.8,757.4,1122.1,755.8,1117.8,755.8z"/>
	<path fill="#FFFFFF" d="M645.6,755.8c-4.3,0-7.9,1.7-11,5c-3.1,3.3-4.6,7.3-4.6,11.8s1.5,8.5,4.6,11.8c3.1,3.3,6.7,5,11,5
		c4.3,0,7.9-1.7,11-5c3.1-3.3,4.6-7.3,4.6-11.8s-1.5-8.5-4.6-11.8C653.6,757.4,649.9,755.8,645.6,755.8z"/>
	<path fill="#FFFFFF" d="M1299.2,755.8c-4.3,0-7.9,1.7-11,5c-3.1,3.3-4.6,7.3-4.6,11.8s1.5,8.5,4.6,11.8c3.1,3.3,6.7,5,11,5
		c4.3,0,7.9-1.7,11-5c3.1-3.3,4.6-7.3,4.6-11.8s-1.5-8.5-4.6-11.8C1307.1,757.4,1303.5,755.8,1299.2,755.8z"/>
	<path fill="#FFFFFF" d="M427.3,755.8c-3.8,0-7,1.1-9.7,3.6c-2.7,2.5-4.3,5.6-4.9,9.6h29.2c-0.4-4-1.9-7.3-4.6-9.7
		C434.6,756.8,431.3,755.8,427.3,755.8z"/>
	<path fill="#FFFFFF" d="M1638.8,755.8c-4.3,0-7.9,1.7-11,5c-3.1,3.3-4.6,7.3-4.6,11.8s1.5,8.5,4.6,11.8c3.1,3.3,6.7,5,11,5
		c4.3,0,7.9-1.7,11-5c3.1-3.3,4.6-7.3,4.6-11.8s-1.5-8.5-4.6-11.8C1646.7,757.4,1643.1,755.8,1638.8,755.8z"/>
	<path fill="#FFFFFF" d="M1712.9,755.8c-3.8,0-7,1.1-9.7,3.6c-2.7,2.5-4.3,5.6-4.9,9.6h29.2c-0.4-4-1.9-7.3-4.6-9.7
		C1720.3,756.8,1716.9,755.8,1712.9,755.8z"/>
	<path fill="#FFFFFF" d="M340,739h-13v25h13.8c4.5,0,8-1.1,10.6-3.2c2.6-2.1,3.9-5.2,3.9-9.2C355.3,743.2,350.2,739,340,739z"/>
	<path fill="#FFFFFF" d="M1817.4,771.5l89.5-94.5H140.3l92.4,87.5L143.1,859H1908v-1.7L1817.4,771.5z M1516.9,734.1
		c0.8-0.8,1.7-1.2,2.8-1.2c1.1,0,2.1,0.4,2.8,1.2c0.8,0.8,1.2,1.7,1.2,2.8s-0.4,2.1-1.2,2.8c-0.8,0.8-1.7,1.2-2.8,1.2
		c-1.1,0-2.1-0.4-2.8-1.2c-0.8-0.8-1.2-1.7-1.2-2.8S1516.1,734.9,1516.9,734.1z M714.7,734.1c0.8-0.8,1.7-1.2,2.8-1.2
		c1.1,0,2.1,0.4,2.8,1.2c0.8,0.8,1.2,1.7,1.2,2.8s-0.4,2.1-1.2,2.8c-0.8,0.8-1.7,1.2-2.8,1.2c-1.1,0-2.1-0.4-2.8-1.2
		c-0.8-0.8-1.2-1.7-1.2-2.8S713.9,734.9,714.7,734.1z M355.3,763.6c-3.3,2.9-8.1,4.4-14.5,4.4H327v21h5v4h-16v-4h6v-50h-6v-4h24
		c7.1,0,12.2,1.4,15.4,4.2c3.2,2.8,4.8,6.9,4.8,12.4C360.2,756.7,358.5,760.8,355.3,763.6z M400,762h-4v-5.7c-1-0.1-1.9-0.2-2.5-0.2
		c-3.4,0-6.7,0.9-9.5,2.7c-2.8,1.8-5,4-7,6.7V789h6v4h-16v-4h5v-33h-5v-4h10v8.4c5-5.9,10.8-8.8,17.3-8.8c1.9,0,3.7,0.2,5.7,0.5V762
		z M446.6,773h-34.2c0.2,5,1.7,8.7,4.7,11.7c3,3,6.7,4.6,11.1,4.6c5.7,0,10.3-2.6,13.7-8l3.7,2.2c-1.9,3-4.3,5.5-7.3,7.3
		c-3,1.8-6.4,2.7-10,2.7c-5.9,0-10.8-2-14.8-5.9c-4-3.9-6-8.9-6-15c0-5.9,1.9-10.8,5.6-14.8c3.8-4,8.5-6,14.1-6
		c5.9,0,10.6,1.7,14.2,5.2c3.5,3.5,5.3,8.3,5.3,14.7C446.7,772,446.7,773,446.6,773z M485,787.5c-1,1.7-2.3,2.9-4.1,3.8
		c-1.8,0.8-3.7,1.4-5.6,1.7c-1.9,0.3-4.1,0.5-6.7,0.5c-5,0-9.5-0.8-13.5-2.4v-10h4v6.9c3,1,5.9,1.5,9.4,1.5c8.9,0,13.2-2.8,13.2-8.3
		c0-1.9-1.2-3.6-3.4-4.9c-2.2-1.4-5.2-2.3-8.7-2.8c-4.7-0.7-8.2-2-10.6-3.6c-2.3-1.7-3.5-4.2-3.5-7.5c0-3.2,1.4-5.8,4.2-7.7
		c2.8-1.9,6.4-2.9,10.4-2.9c4.7,0,9.1,0.6,14.1,1.9V764h-4v-7.2c-4-0.9-6.8-1.3-10.3-1.3c-2.5,0-4.7,0.6-6.6,1.8
		c-1.9,1.2-2.8,2.8-2.8,4.8c0,1.9,0.9,3.4,2.9,4.4c1.9,1,4.8,1.9,8.6,2.5c9.8,1.6,14.6,5.7,14.6,12.2
		C486.4,783.7,485.9,785.8,485,787.5z M534.3,773h-34.2c0.2,5,1.7,8.7,4.7,11.7c3,3,6.7,4.6,11.1,4.6c5.7,0,10.3-2.6,13.7-8l3.7,2.2
		c-1.9,3-4.3,5.5-7.3,7.3c-3,1.8-6.4,2.7-10,2.7c-5.9,0-10.8-2-14.8-5.9c-4-3.9-6-8.9-6-15c0-5.9,1.9-10.8,5.6-14.8
		c3.8-4,8.5-6,14.1-6c5.9,0,10.6,1.7,14.2,5.2c3.5,3.5,5.3,8.3,5.3,14.7C534.4,772,534.4,773,534.3,773z M588,793h-16v-4h5v-17
		c0-6-0.4-10.2-1.5-12.6c-1.1-2.3-3.6-3.5-7.6-3.5c-2.5,0-5.2,0.9-8,2.8c-2.9,1.8-4.8,4.1-6.8,6.8V789h6v4h-17v-4h6v-33h-6v-4h11
		v8.4c5-5.8,9.5-8.7,15-8.7c2.6,0,4.8,0.3,6.6,1c1.8,0.7,3.2,1.5,4.2,2.5c1,1,1.7,2.4,2.3,4.1c0.5,1.7,0.8,3.4,0.9,4.9
		c0.1,1.5,0.1,3.4,0.1,5.7V789h6V793z M613.9,793.2c-1.9,0.3-3.3,0.4-4.3,0.4c-2.9,0-4.8-0.9-5.9-2.8c-1.1-1.9-1.6-5.4-1.6-10.6V756
		h-6v-4h6v-10h5v10h8v4h-8v23.7c0,3.8,0.2,6.4,0.8,7.7c0.6,1.3,1.8,2,3.7,2c0.4,0,1.2-0.1,2.4-0.2l1.3-0.2l0.3,3.9L613.9,793.2z
		 M672,793h-11v-8.4c-3,5.9-8.3,8.9-15.5,8.9c-5.8,0-10.6-2.1-14.5-6.2c-3.9-4.1-5.9-9-5.9-14.7c0-5.7,2-10.6,5.9-14.7
		c3.9-4.1,8.7-6.2,14.4-6.2c7.1,0,12.5,3,15.5,8.9V752h5v37h6V793z M698.1,793.2c-1.9,0.3-3.3,0.4-4.3,0.4c-2.9,0-4.9-0.9-6.1-2.8
		c-1.1-1.9-1.7-5.4-1.7-10.6V756h-6v-4h6v-10h5v10h8v4h-8v23.7c0,3.8,0.3,6.4,0.9,7.7c0.6,1.3,1.9,2,3.8,2c0.4,0,1.2-0.1,2.4-0.2
		l1.4-0.2l0.3,3.9L698.1,793.2z M727,793h-18v-4h7v-33h-6v-4h11v37h6V793z M770.3,787.4c-4,4.1-8.8,6.1-14.5,6.1
		c-5.7,0-10.5-2-14.5-6.1c-4-4.1-6-9-6-14.8c0-5.8,2-10.7,6-14.8c4-4.1,8.8-6.1,14.5-6.1c5.7,0,10.5,2,14.5,6.1c4,4.1,6,9,6,14.8
		C776.3,778.4,774.3,783.3,770.3,787.4z M829,793h-16v-4h6v-17c0-6-0.5-10.2-1.6-12.6c-1.1-2.3-3.6-3.5-7.6-3.5
		c-2.5,0-5.1,0.9-8,2.8c-2.9,1.8-4.8,4.1-6.8,6.8V789h6v4h-17v-4h6v-33h-6v-4h11v8.4c4-5.8,9.5-8.7,14.9-8.7c2.6,0,4.7,0.3,6.5,1
		c1.8,0.7,3.2,1.5,4.2,2.5c1,1,1.7,2.4,2.3,4.1c0.5,1.7,0.8,3.4,1,4.9c0.1,1.5,0.2,3.4,0.2,5.7V789h5V793z M895.5,793.4
		c-8.3,0-15.2-2.8-20.8-8.5c-5.6-5.7-8.4-12.6-8.4-21c0-8.3,2.8-15.3,8.4-20.9c5.6-5.6,12.6-8.4,20.8-8.4c8.4,0,15.4,2.9,21,8.6
		l-2.7,2.7c-5.4-4.9-11.5-7.4-18.2-7.4c-6.9,0-12.7,2.5-17.4,7.4c-4.7,4.9-7.1,10.9-7.1,18c0,7.1,2.4,13.1,7.1,18
		c4.7,4.9,10.5,7.4,17.4,7.4c6.8,0,12.9-2.5,18.4-7.6l2.7,2.6C910.9,790.5,903.9,793.4,895.5,793.4z M959.6,787.4
		c-4,4.1-8.8,6.1-14.5,6.1c-5.7,0-10.5-2-14.5-6.1c-4-4.1-6-9-6-14.8c0-5.8,2-10.7,6-14.8c4-4.1,8.8-6.1,14.5-6.1
		c5.7,0,10.5,2,14.5,6.1c4,4.1,6,9,6,14.8C965.6,778.4,963.6,783.3,959.6,787.4z M1019,793h-16v-4h6v-17c0-6-0.8-10.2-2-12.6
		c-1.1-2.3-3.8-3.5-7.8-3.5c-2.5,0-5.4,0.9-8.2,2.8c-2.9,1.8-5,4.1-7,6.8V789h6v4h-16v-4h5v-33h-5v-4h10v8.4c5-5.8,9.6-8.7,15.1-8.7
		c2.6,0,4.8,0.3,6.6,1c1.8,0.7,3.2,1.5,4.2,2.5c1,1,1.8,2.4,2.3,4.1c0.5,1.7,0.7,3.4,0.8,4.9c0.1,1.5,0,3.4,0,5.7V789h6V793z
		 M1045.1,793.2c-1.9,0.3-3.3,0.4-4.3,0.4c-2.9,0-4.9-0.9-6-2.8c-1.1-1.9-1.7-5.4-1.7-10.6V756h-6v-4h6v-10h5v10h8v4h-8v23.7
		c0,3.8,0.3,6.4,0.9,7.7c0.6,1.3,1.9,2,3.8,2c0.4,0,1.2-0.1,2.4-0.2l1.4-0.2l0.3,3.9L1045.1,793.2z M1089,762h-4v-5.7
		c-1-0.1-1.5-0.2-2.1-0.2c-3.4,0-6.4,0.9-9.2,2.7c-2.8,1.8-4.7,4-6.7,6.7V789h6v4h-17v-4h6v-33h-6v-4h11v8.4
		c5-5.9,10.3-8.8,16.8-8.8c1.9,0,4.2,0.2,5.2,0.5V762z M1132.3,787.4c-4,4.1-8.8,6.1-14.5,6.1c-5.7,0-10.5-2-14.5-6.1
		c-4-4.1-6-9-6-14.8c0-5.8,2-10.7,6-14.8c4-4.1,8.8-6.1,14.5-6.1c5.7,0,10.5,2,14.5,6.1c4,4.1,6,9,6,14.8
		C1138.3,778.4,1136.3,783.3,1132.3,787.4z M1164,793h-18v-4h7v-54h-6v-4h11v58h6V793z M1271,739h-6v50h6v4h-17v-4h6v-51.2
		l-21.4,55.2h-4.6l-21.9-54.8V789h5v4h-16v-4h6v-50h-6v-4h14.9l20.3,51.9l19.5-51.9h15.2V739z M1325,793h-10v-8.4
		c-3,5.9-8.6,8.9-15.7,8.9c-5.8,0-10.7-2.1-14.6-6.2c-3.9-4.1-5.9-9-5.9-14.7c0-5.7,2-10.6,5.9-14.7c3.9-4.1,8.9-6.2,14.7-6.2
		c7.1,0,12.7,3,15.7,8.9V752h5v37h5V793z M1380,793h-11v-8.4c-3,5.9-8.2,8.9-15.4,8.9c-5.8,0-10.5-2.1-14.5-6.2
		c-3.9-4.1-5.9-9-5.9-14.7c0-5.7,2-10.6,5.9-14.7c3.9-4.1,8.6-6.2,14.4-6.2c7.1,0,12.4,3,15.4,8.9V735h-5v-4h10v58h6V793z
		 M1427.1,773h-34.2c0.2,5,1.7,8.7,4.7,11.7c3,3,6.7,4.6,11.1,4.6c5.7,0,10.3-2.6,13.7-8l3.7,2.2c-1.9,3-4.3,5.5-7.3,7.3
		c-3,1.8-6.4,2.7-10,2.7c-5.9,0-10.8-2-14.8-5.9c-4-3.9-6-8.9-6-15c0-5.9,1.9-10.8,5.6-14.8c3.8-4,8.5-6,14.1-6
		c5.9,0,10.6,1.7,14.2,5.2c3.5,3.5,5.3,8.3,5.3,14.7C1427.2,772,1427.1,773,1427.1,773z M1481.7,793.4c-6.4,0-12.7-0.8-17.7-2.4v-10
		h4v6.4c5,1.2,9.7,1.8,13.5,1.8c11.5,0,17.2-3.8,17.2-11.5c0-2-0.4-3.8-1.3-5.3c-0.9-1.5-2.1-2.7-3.7-3.6c-1.6-0.9-3.3-1.6-5-2
		c-1.7-0.5-3.7-0.9-6-1.2c-2.5-0.4-4.7-0.8-6.6-1.4c-1.9-0.5-3.7-1.3-5.6-2.4c-1.9-1.1-3.3-2.6-4.4-4.6c-1-1.9-1.5-4.3-1.5-7
		c0-5.1,1.8-8.9,5.3-11.6c3.5-2.7,8-4,13.1-4c7.5,0,13,0.7,18,2.2V747h-4v-6.7c-5-1.1-9.5-1.6-14.1-1.6c-3.6,0-6.7,0.9-9.4,2.8
		c-2.6,1.8-4,4.8-4,8.8c0,1.7,0.3,3.1,0.9,4.3c0.6,1.2,1.3,2.2,2,2.9c0.8,0.7,1.9,1.4,3.5,1.9c1.6,0.6,2.9,1,4.1,1.2
		c1.2,0.2,2.8,0.5,5,0.8c2.2,0.4,4.2,0.8,5.8,1.2c1.6,0.4,3.3,1.1,5,1.9c1.7,0.8,3.1,1.8,4.2,2.9c1.1,1.1,1.9,2.6,2.6,4.4
		c0.7,1.8,1,3.9,1,6.2C1503.6,788.3,1496.3,793.4,1481.7,793.4z M1529,793h-17v-4h6v-33h-6v-4h11v37h6V793z M1605,793h-16v-4h5v-17
		c0-2,0.2-3.5,0.1-4.4c0-0.9,0-2.1-0.1-3.6c-0.1-1.4-0.2-2.5-0.4-3.1c-0.2-0.6-0.4-1.3-0.8-2.1c-0.4-0.8-0.8-1.4-1.3-1.7
		c-0.5-0.3-1.2-0.6-2-0.8c-0.8-0.2-1.8-0.4-2.9-0.4c-2.2,0-4.6,0.7-7,2.1c-2.4,1.4-4.3,3.2-5.9,5.4c0.1,1.3,0.2,3.5,0.2,6.5V789h5v4
		h-16v-4h6v-17c0-2,0-3.5-0.1-4.4c0-0.9-0.1-2.1-0.2-3.6c-0.1-1.4-0.2-2.5-0.4-3.1c-0.2-0.6-0.5-1.3-0.8-2.1
		c-0.4-0.8-0.8-1.4-1.4-1.7c-0.5-0.3-1.2-0.6-2-0.8c-0.8-0.2-1.8-0.4-2.9-0.4c-2.3,0-4.7,0.7-7.2,2.2c-2.5,1.5-4.1,3.4-6.1,5.7V789
		h6v4h-17v-4h6v-33h-6v-4h11v7c4-4.9,8.7-7.3,13.2-7.3c3.6,0,6.4,0.7,8.2,2c1.8,1.3,3.1,3.2,3.7,5.7c4.2-5.1,8.7-7.7,13.5-7.7
		c1.8,0,3.3,0.2,4.6,0.6c1.3,0.4,2.4,0.8,3.3,1.3s1.6,1.2,2.2,2.3c0.6,1,1.1,2,1.4,2.8s0.5,2,0.7,3.5c0.2,1.5,0.1,2.8,0.2,3.7
		c0,0.9-0.1,2.3-0.1,4.2V789h6V793z M1653.4,787.3c-3.9,4.1-8.9,6.2-14.7,6.2c-7.1,0-12.7-3-15.7-8.9V809h6v4h-16v-4h5v-53h-5v-4h10
		v8.6c3-5.9,8.6-8.9,15.7-8.9c5.8,0,10.7,2.1,14.6,6.2c3.9,4.1,5.9,9,5.9,14.7C1659.2,778.3,1657.3,783.2,1653.4,787.3z M1685,793
		h-18v-4h7v-54h-6v-4h11v58h6V793z M1732.3,773h-34.2c0.2,5,1.7,8.7,4.7,11.7c3,3,6.7,4.6,11.1,4.6c5.7,0,10.3-2.6,13.7-8l3.7,2.2
		c-1.9,3-4.3,5.5-7.3,7.3c-3,1.8-6.4,2.7-10,2.7c-5.9,0-10.8-2-14.8-5.9c-4-3.9-6-8.9-6-15c0-5.9,1.9-10.8,5.6-14.8
		c3.8-4,8.5-6,14.1-6c5.9,0,10.6,1.7,14.2,5.2c3.5,3.5,5.3,8.3,5.3,14.7C1732.4,772,1732.4,773,1732.3,773z"/>
	<path fill="#FFFFFF" d="M945.1,755.8c-4.3,0-8,1.6-11,4.9c-3,3.3-4.6,7.2-4.6,11.9s1.5,8.7,4.6,11.9c3,3.3,6.7,4.9,11,4.9
		c4.3,0,8-1.6,11-4.9c3-3.3,4.6-7.2,4.6-11.9s-1.5-8.7-4.6-11.9C953.1,757.4,949.4,755.8,945.1,755.8z"/>
</g>
<g>
	<g>
		<defs>
			<rect id="SVGID_1_" x="708.7" y="24.7" width="630.8" height="630.8"/>
		</defs>
		<clipPath id="SVGID_2_">
			<use xlink:href="#SVGID_1_"  overflow="visible"/>
		</clipPath>
		<polygon clip-path="url(#SVGID_2_)" fill="#FFFFFF" points="918.9,374.2 890.5,402.6 795.8,402.6 767.5,374.2 767.5,256.1 
			805.1,277.8 805.1,374.7 881.2,374.7 881.2,277.7 918.9,277.7 		"/>
		<path clip-path="url(#SVGID_2_)" fill="#FFFFFF" d="M1104.6,316.2l-33,44.7h-88.1v41.7l-37.7,21.6V277.7h130.5L1104.6,316.2z
			 M1065.9,318.7l-9.9-13h-72.6v26.9h72.5L1065.9,318.7z"/>
		<path clip-path="url(#SVGID_2_)" fill="#FFFFFF" d="M1280.8,402.6h-37.7V372l-11.4-11.1h-72.1v41.7l-37.7,21.6V277.7h130.5
			l28.4,38.5l-21.6,29l21.6,21.6V402.6z M1242.1,318.6l-9.8-13h-72.6v26.9h72.3L1242.1,318.6z"/>
		<g clip-path="url(#SVGID_2_)">
			<defs>
				<rect id="SVGID_3_" x="708.7" y="24.7" width="630.8" height="630.8"/>
			</defs>
			<clipPath id="SVGID_4_">
				<use xlink:href="#SVGID_3_"  overflow="visible"/>
			</clipPath>
			
				<circle clip-path="url(#SVGID_4_)" fill="none" stroke="#FFFFFF" stroke-width="39" stroke-miterlimit="10" cx="1024.3" cy="340.3" r="280.5"/>
		</g>
	</g>
</g>
<g>
</g>
<g>
</g>
<g>
</g>
<g>
</g>
<g>
</g>
<g>
</g>
<g>
</g>
<g>
</g>
<g>
</g>
<g>
</g>
<g>
</g>
<g>
</g>
<g>
</g>
<g>
</g>
<g>
</g>
</svg>
